<ttFont>
    <TTGlyph name="A" xMin="-34" yMin="-9" xMax="1324" yMax="1370">
      <contour>
        <pt x="549" y="578" on="1"/>
        <pt x="826" y="578" on="1"/>
        <pt x="869" y="578" on="0"/>
        <pt x="869" y="596" on="1"/>
        <pt x="869" y="601" on="1"/>
        <pt x="869" y="611" on="0"/>
        <pt x="793" y="965" on="0"/>
        <pt x="780" y="1049" on="0"/>
        <pt x="775" y="1049" on="0"/>
        <pt x="746" y="995" on="0"/>
        <pt x="728" y="959" on="0"/>
        <pt x="721" y="947" on="1"/>
        <pt x="526" y="613" on="0"/>
        <pt x="526" y="586" on="1"/>
        <pt x="526" y="578" on="0"/>
      </contour>
      <contour>
        <pt x="857" y="441" on="0"/>
        <pt x="478" y="441" on="0"/>
        <pt x="412" y="392" on="0"/>
        <pt x="333" y="232" on="0"/>
        <pt x="333" y="146" on="0"/>
        <pt x="377" y="50" on="0"/>
        <pt x="377" y="46" on="1"/>
        <pt x="377" y="9" on="0"/>
        <pt x="330" y="-1" on="1"/>
        <pt x="297" y="-8" on="0"/>
        <pt x="129" y="-8" on="1"/>
        <pt x="38" y="-9" on="1"/>
        <pt x="-34" y="-9" on="0"/>
        <pt x="-34" y="27" on="1"/>
        <pt x="-34" y="75" on="0"/>
        <pt x="128" y="169" on="0"/>
        <pt x="187" y="267" on="0"/>
        <pt x="591" y="992" on="0"/>
        <pt x="606" y="1023" on="0"/>
        <pt x="691" y="1236" on="0"/>
        <pt x="708" y="1264" on="1"/>
        <pt x="772" y="1370" on="0"/>
        <pt x="857" y="1370" on="1"/>
        <pt x="892" y="1370" on="0"/>
        <pt x="957" y="1286" on="0"/>
        <pt x="997" y="1138" on="1"/>
        <pt x="1021" y="1024" on="1"/>
        <pt x="1036" y="951" on="0"/>
        <pt x="1046" y="908" on="1"/>
        <pt x="1096" y="673" on="1"/>
        <pt x="1126" y="535" on="0"/>
        <pt x="1190" y="226" on="0"/>
        <pt x="1196" y="208" on="1"/>
        <pt x="1217" y="146" on="0"/>
        <pt x="1256" y="129" on="1"/>
        <pt x="1324" y="99" on="0"/>
        <pt x="1324" y="65" on="1"/>
        <pt x="1324" y="14" on="0"/>
        <pt x="1278" y="-8" on="0"/>
        <pt x="1101" y="-8" on="1"/>
        <pt x="987" y="-9" on="1"/>
        <pt x="847" y="-9" on="0"/>
        <pt x="847" y="33" on="1"/>
        <pt x="847" y="49" on="0"/>
        <pt x="856" y="64" on="1"/>
        <pt x="869" y="82" on="1"/>
        <pt x="894" y="113" on="0"/>
        <pt x="895" y="115" on="1"/>
        <pt x="924" y="166" on="0"/>
        <pt x="924" y="248" on="1"/>
        <pt x="924" y="394" on="0"/>
        <pt x="877" y="427" on="1"/>
      </contour>
    </TTGlyph>
    <TTGlyph name="AE" xMin="-38" yMin="-1" xMax="1878" yMax="1392">
      <contour>
        <pt x="672" y="647" on="1"/>
        <pt x="898" y="647" on="1"/>
        <pt x="937" y="647" on="0"/>
        <pt x="948" y="698" on="1"/>
        <pt x="1023" y="1048" on="0"/>
        <pt x="1023" y="1140" on="1"/>
        <pt x="1023" y="1147" on="1"/>
        <pt x="1021" y="1149" on="1"/>
        <pt x="1018" y="1149" on="1"/>
        <pt x="1015" y="1149" on="0"/>
        <pt x="653" y="666" on="0"/>
        <pt x="653" y="654" on="1"/>
        <pt x="653" y="647" on="0"/>
      </contour>
      <contour>
        <pt x="1254" y="926" on="0"/>
        <pt x="1254" y="860" on="0"/>
        <pt x="1309" y="798" on="0"/>
        <pt x="1395" y="798" on="0"/>
        <pt x="1512" y="846" on="0"/>
        <pt x="1574" y="846" on="1"/>
        <pt x="1617" y="846" on="0"/>
        <pt x="1617" y="645" on="0"/>
        <pt x="1559" y="582" on="1"/>
        <pt x="1535" y="556" on="0"/>
        <pt x="1486" y="556" on="1"/>
        <pt x="1452" y="574" on="1"/>
        <pt x="1420" y="600" on="1"/>
        <pt x="1391" y="619" on="0"/>
        <pt x="1347" y="619" on="1"/>
        <pt x="1229" y="619" on="0"/>
        <pt x="1196" y="563" on="1"/>
        <pt x="1152" y="489" on="0"/>
        <pt x="1152" y="333" on="1"/>
        <pt x="1152" y="239" on="0"/>
        <pt x="1195" y="181" on="1"/>
        <pt x="1216" y="154" on="0"/>
        <pt x="1302" y="154" on="1"/>
        <pt x="1419" y="154" on="0"/>
        <pt x="1621" y="268" on="1"/>
        <pt x="1691" y="308" on="0"/>
        <pt x="1709" y="308" on="1"/>
        <pt x="1745" y="308" on="0"/>
        <pt x="1745" y="234" on="1"/>
        <pt x="1745" y="209" on="0"/>
        <pt x="1696" y="72" on="0"/>
        <pt x="1626" y="-1" on="0"/>
        <pt x="1494" y="-1" on="1"/>
        <pt x="1391" y="-1" on="1"/>
        <pt x="1338" y="0" on="1"/>
        <pt x="1175" y="0" on="1"/>
        <pt x="920" y="0" on="0"/>
        <pt x="871" y="7" on="1"/>
        <pt x="771" y="21" on="0"/>
        <pt x="771" y="63" on="1"/>
        <pt x="771" y="92" on="0"/>
        <pt x="845" y="209" on="1"/>
        <pt x="890" y="280" on="0"/>
        <pt x="890" y="475" on="0"/>
        <pt x="853" y="497" on="1"/>
        <pt x="830" y="511" on="0"/>
        <pt x="765" y="511" on="1"/>
        <pt x="616" y="511" on="0"/>
        <pt x="471" y="401" on="0"/>
        <pt x="392" y="268" on="1"/>
        <pt x="356" y="207" on="0"/>
        <pt x="356" y="160" on="1"/>
        <pt x="357" y="126" on="1"/>
        <pt x="361" y="93" on="1"/>
        <pt x="368" y="62" on="1"/>
        <pt x="368" y="10" on="0"/>
        <pt x="306" y="2" on="1"/>
        <pt x="255" y="1" on="1"/>
        <pt x="99" y="1" on="1"/>
        <pt x="-38" y="1" on="0"/>
        <pt x="-38" y="50" on="1"/>
        <pt x="-38" y="90" on="0"/>
        <pt x="139" y="188" on="0"/>
        <pt x="175" y="229" on="1"/>
        <pt x="206" y="270" on="1"/>
        <pt x="237" y="312" on="0"/>
        <pt x="664" y="900" on="1"/>
        <pt x="782" y="1062" on="0"/>
        <pt x="822" y="1147" on="1"/>
        <pt x="840" y="1187" on="1"/>
        <pt x="842" y="1221" on="1"/>
        <pt x="846" y="1254" on="1"/>
        <pt x="868" y="1370" on="0"/>
        <pt x="1040" y="1384" on="1"/>
        <pt x="1128" y="1391" on="0"/>
        <pt x="1478" y="1391" on="1"/>
        <pt x="1641" y="1392" on="1"/>
        <pt x="1748" y="1392" on="1"/>
        <pt x="1819" y="1392" on="0"/>
        <pt x="1878" y="1316" on="0"/>
        <pt x="1878" y="1281" on="1"/>
        <pt x="1878" y="1196" on="0"/>
        <pt x="1826" y="1106" on="0"/>
        <pt x="1751" y="1106" on="0"/>
        <pt x="1613" y="1237" on="0"/>
        <pt x="1372" y="1237" on="0"/>
        <pt x="1328" y="1177" on="1"/>
        <pt x="1306" y="1146" on="0"/>
      </contour>
    </TTGlyph>
    <TTGlyph name="Aacute" xMin="-42" yMin="13" xMax="1342" yMax="1836">
      <contour>
        <pt x="537" y="613" on="1"/>
        <pt x="841" y="613" on="1"/>
        <pt x="865" y="613" on="0"/>
        <pt x="865" y="635" on="1"/>
        <pt x="865" y="640" on="1"/>
        <pt x="779" y="1075" on="1"/>
        <pt x="779" y="1085" on="0"/>
        <pt x="771" y="1085" on="0"/>
        <pt x="729" y="1001" on="0"/>
        <pt x="722" y="989" on="1"/>
        <pt x="528" y="656" on="0"/>
        <pt x="528" y="621" on="1"/>
        <pt x="528" y="613" on="0"/>
      </contour>
      <contour>
        <pt x="822" y="1510" on="1"/>
        <pt x="812" y="1510" on="1"/>
        <pt x="775" y="1510" on="0"/>
        <pt x="775" y="1548" on="1"/>
        <pt x="775" y="1553" on="1"/>
        <pt x="775" y="1602" on="0"/>
        <pt x="974" y="1779" on="1"/>
        <pt x="1038" y="1836" on="0"/>
        <pt x="1083" y="1836" on="1"/>
        <pt x="1101" y="1836" on="1"/>
        <pt x="1170" y="1836" on="0"/>
        <pt x="1221" y="1802" on="1"/>
        <pt x="1232" y="1795" on="0"/>
        <pt x="1232" y="1781" on="1"/>
        <pt x="1232" y="1744" on="0"/>
        <pt x="1119" y="1665" on="1"/>
        <pt x="898" y="1510" on="0"/>
      </contour>
      <contour>
        <pt x="323" y="180" on="1"/>
        <pt x="323" y="177" on="0"/>
        <pt x="371" y="68" on="0"/>
        <pt x="371" y="55" on="1"/>
        <pt x="371" y="13" on="0"/>
        <pt x="283" y="13" on="1"/>
        <pt x="44" y="13" on="1"/>
        <pt x="-42" y="13" on="0"/>
        <pt x="-42" y="58" on="1"/>
        <pt x="-42" y="96" on="0"/>
        <pt x="116" y="190" on="0"/>
        <pt x="134" y="212" on="0"/>
        <pt x="517" y="899" on="0"/>
        <pt x="713" y="1258" on="0"/>
        <pt x="767" y="1349" on="0"/>
        <pt x="854" y="1424" on="0"/>
        <pt x="887" y="1424" on="1"/>
        <pt x="946" y="1424" on="0"/>
        <pt x="970" y="1342" on="1"/>
        <pt x="991" y="1258" on="0"/>
        <pt x="1026" y="1083" on="1"/>
        <pt x="1070" y="881" on="1"/>
        <pt x="1076" y="852" on="0"/>
        <pt x="1106" y="716" on="0"/>
        <pt x="1208" y="244" on="0"/>
        <pt x="1210" y="239" on="1"/>
        <pt x="1232" y="179" on="0"/>
        <pt x="1266" y="156" on="1"/>
        <pt x="1342" y="106" on="0"/>
        <pt x="1342" y="68" on="1"/>
        <pt x="1342" y="13" on="0"/>
        <pt x="1273" y="13" on="1"/>
        <pt x="1015" y="13" on="1"/>
        <pt x="860" y="13" on="0"/>
        <pt x="860" y="61" on="1"/>
        <pt x="860" y="67" on="0"/>
        <pt x="923" y="181" on="0"/>
        <pt x="923" y="212" on="1"/>
        <pt x="923" y="407" on="0"/>
        <pt x="883" y="451" on="1"/>
        <pt x="861" y="475" on="0"/>
        <pt x="479" y="475" on="0"/>
        <pt x="444" y="441" on="1"/>
        <pt x="397" y="395" on="0"/>
        <pt x="323" y="223" on="0"/>
      </contour>
    </TTGlyph>
    <TTGlyph name="Acircumflex" xMin="-43" yMin="8" xMax="1341" yMax="1855">
      <contour>
        <pt x="543" y="608" on="1"/>
        <pt x="833" y="608" on="1"/>
        <pt x="864" y="608" on="0"/>
        <pt x="864" y="630" on="1"/>
        <pt x="864" y="636" on="1"/>
        <pt x="840" y="758" on="1"/>
        <pt x="839" y="764" on="1"/>
        <pt x="834" y="785" on="1"/>
        <pt x="796" y="963" on="0"/>
        <pt x="776" y="1081" on="0"/>
        <pt x="770" y="1081" on="0"/>
        <pt x="732" y="1004" on="0"/>
        <pt x="527" y="623" on="0"/>
        <pt x="527" y="608" on="0"/>
      </contour>
      <contour>
        <pt x="1156" y="1519" on="1"/>
        <pt x="1141" y="1519" on="1"/>
        <pt x="1094" y="1519" on="0"/>
        <pt x="921" y="1667" on="0"/>
        <pt x="897" y="1667" on="0"/>
        <pt x="675" y="1519" on="0"/>
        <pt x="633" y="1519" on="1"/>
        <pt x="626" y="1519" on="1"/>
        <pt x="574" y="1519" on="0"/>
        <pt x="574" y="1547" on="1"/>
        <pt x="574" y="1553" on="1"/>
        <pt x="574" y="1562" on="0"/>
        <pt x="893" y="1855" on="0"/>
        <pt x="934" y="1855" on="1"/>
        <pt x="950" y="1855" on="1"/>
        <pt x="986" y="1855" on="0"/>
        <pt x="1024" y="1817" on="1"/>
        <pt x="1028" y="1813" on="0"/>
        <pt x="1066" y="1754" on="0"/>
        <pt x="1091" y="1719" on="1"/>
        <pt x="1150" y="1634" on="1"/>
        <pt x="1198" y="1572" on="0"/>
        <pt x="1198" y="1559" on="1"/>
        <pt x="1198" y="1519" on="0"/>
      </contour>
      <contour>
        <pt x="322" y="175" on="1"/>
        <pt x="322" y="173" on="0"/>
        <pt x="370" y="62" on="0"/>
        <pt x="370" y="50" on="1"/>
        <pt x="370" y="8" on="0"/>
        <pt x="282" y="8" on="1"/>
        <pt x="43" y="8" on="1"/>
        <pt x="-43" y="8" on="0"/>
        <pt x="-43" y="54" on="1"/>
        <pt x="-43" y="93" on="0"/>
        <pt x="116" y="186" on="0"/>
        <pt x="165" y="247" on="0"/>
        <pt x="638" y="1126" on="0"/>
        <pt x="766" y="1344" on="0"/>
        <pt x="853" y="1419" on="0"/>
        <pt x="887" y="1419" on="1"/>
        <pt x="944" y="1419" on="0"/>
        <pt x="996" y="1247" on="0"/>
        <pt x="1185" y="301" on="0"/>
        <pt x="1230" y="174" on="0"/>
        <pt x="1265" y="151" on="1"/>
        <pt x="1341" y="100" on="0"/>
        <pt x="1341" y="63" on="1"/>
        <pt x="1341" y="8" on="0"/>
        <pt x="1272" y="8" on="1"/>
        <pt x="1212" y="8" on="1"/>
        <pt x="1183" y="9" on="1"/>
        <pt x="1127" y="9" on="1"/>
        <pt x="1072" y="8" on="1"/>
        <pt x="1014" y="8" on="1"/>
        <pt x="859" y="8" on="0"/>
        <pt x="859" y="56" on="1"/>
        <pt x="859" y="63" on="0"/>
        <pt x="922" y="177" on="0"/>
        <pt x="922" y="208" on="1"/>
        <pt x="922" y="403" on="0"/>
        <pt x="882" y="446" on="1"/>
        <pt x="859" y="470" on="0"/>
        <pt x="478" y="470" on="0"/>
        <pt x="397" y="392" on="0"/>
        <pt x="322" y="216" on="0"/>
      </contour>
    </TTGlyph>
    <TTGlyph name="Adieresis" xMin="-50" yMin="10" xMax="1335" yMax="1803">
      <contour>
        <pt x="564" y="610" on="1"/>
        <pt x="792" y="610" on="1"/>
        <pt x="857" y="610" on="0"/>
        <pt x="857" y="632" on="1"/>
        <pt x="857" y="638" on="1"/>
        <pt x="857" y="639" on="0"/>
        <pt x="774" y="1054" on="0"/>
        <pt x="769" y="1083" on="0"/>
        <pt x="763" y="1083" on="0"/>
        <pt x="729" y="1014" on="0"/>
        <pt x="520" y="626" on="0"/>
        <pt x="520" y="610" on="0"/>
      </contour>
      <contour>
        <pt x="579" y="1638" on="1"/>
        <pt x="579" y="1659" on="1"/>
        <pt x="579" y="1707" on="0"/>
        <pt x="661" y="1803" on="0"/>
        <pt x="714" y="1803" on="1"/>
        <pt x="740" y="1803" on="1"/>
        <pt x="778" y="1803" on="0"/>
        <pt x="846" y="1735" on="0"/>
        <pt x="846" y="1692" on="1"/>
        <pt x="846" y="1674" on="1"/>
        <pt x="846" y="1634" on="0"/>
        <pt x="774" y="1533" on="0"/>
        <pt x="724" y="1533" on="1"/>
        <pt x="698" y="1530" on="1"/>
        <pt x="694" y="1530" on="1"/>
        <pt x="652" y="1530" on="0"/>
        <pt x="579" y="1591" on="0"/>
      </contour>
      <contour>
        <pt x="1241" y="1696" on="1"/>
        <pt x="1241" y="1670" on="1"/>
        <pt x="1241" y="1612" on="0"/>
        <pt x="1145" y="1530" on="0"/>
        <pt x="1098" y="1530" on="1"/>
        <pt x="1089" y="1530" on="1"/>
        <pt x="1085" y="1531" on="1"/>
        <pt x="1076" y="1531" on="1"/>
        <pt x="1066" y="1533" on="0"/>
        <pt x="1063" y="1533" on="1"/>
        <pt x="1038" y="1533" on="0"/>
        <pt x="976" y="1595" on="0"/>
        <pt x="976" y="1625" on="1"/>
        <pt x="973" y="1650" on="1"/>
        <pt x="974" y="1655" on="1"/>
        <pt x="974" y="1708" on="0"/>
        <pt x="1056" y="1803" on="0"/>
        <pt x="1109" y="1803" on="1"/>
        <pt x="1135" y="1803" on="1"/>
        <pt x="1175" y="1803" on="0"/>
        <pt x="1241" y="1737" on="0"/>
      </contour>
      <contour>
        <pt x="315" y="177" on="1"/>
        <pt x="315" y="175" on="0"/>
        <pt x="363" y="64" on="0"/>
        <pt x="363" y="52" on="1"/>
        <pt x="363" y="11" on="0"/>
        <pt x="157" y="11" on="1"/>
        <pt x="66" y="10" on="1"/>
        <pt x="-50" y="10" on="0"/>
        <pt x="-50" y="56" on="1"/>
        <pt x="-50" y="94" on="0"/>
        <pt x="111" y="190" on="0"/>
        <pt x="131" y="216" on="0"/>
        <pt x="326" y="565" on="0"/>
        <pt x="363" y="635" on="0"/>
        <pt x="489" y="861" on="0"/>
        <pt x="505" y="890" on="0"/>
        <pt x="576" y="1018" on="1"/>
        <pt x="647" y="1148" on="1"/>
        <pt x="729" y="1295" on="0"/>
        <pt x="735" y="1304" on="1"/>
        <pt x="814" y="1422" on="0"/>
        <pt x="943" y="1422" on="0"/>
        <pt x="970" y="1312" on="1"/>
        <pt x="977" y="1284" on="0"/>
        <pt x="1052" y="923" on="0"/>
        <pt x="1111" y="654" on="0"/>
        <pt x="1200" y="241" on="0"/>
        <pt x="1202" y="237" on="1"/>
        <pt x="1225" y="175" on="0"/>
        <pt x="1258" y="153" on="1"/>
        <pt x="1335" y="102" on="0"/>
        <pt x="1335" y="65" on="1"/>
        <pt x="1335" y="10" on="0"/>
        <pt x="1266" y="10" on="1"/>
        <pt x="1235" y="10" on="1"/>
        <pt x="1205" y="11" on="1"/>
        <pt x="1120" y="11" on="1"/>
        <pt x="1036" y="10" on="1"/>
        <pt x="1007" y="10" on="1"/>
        <pt x="852" y="10" on="0"/>
        <pt x="852" y="59" on="1"/>
        <pt x="852" y="65" on="0"/>
        <pt x="915" y="179" on="0"/>
        <pt x="915" y="237" on="1"/>
        <pt x="915" y="407" on="0"/>
        <pt x="875" y="448" on="1"/>
        <pt x="852" y="472" on="0"/>
        <pt x="469" y="472" on="0"/>
        <pt x="437" y="439" on="1"/>
        <pt x="389" y="389" on="0"/>
        <pt x="315" y="218" on="0"/>
      </contour>
    </TTGlyph>
    <TTGlyph name="Agrave" xMin="-43" yMin="12" xMax="1342" yMax="1836">
      <contour>
        <pt x="557" y="612" on="1"/>
        <pt x="812" y="612" on="1"/>
        <pt x="864" y="612" on="0"/>
        <pt x="864" y="634" on="1"/>
        <pt x="864" y="640" on="1"/>
        <pt x="864" y="649" on="0"/>
        <pt x="796" y="968" on="0"/>
        <pt x="776" y="1085" on="0"/>
        <pt x="773" y="1085" on="1"/>
        <pt x="718" y="983" on="1"/>
        <pt x="527" y="628" on="0"/>
        <pt x="527" y="612" on="0"/>
      </contour>
      <contour>
        <pt x="731" y="1836" on="1"/>
        <pt x="753" y="1836" on="1"/>
        <pt x="765" y="1834" on="0"/>
        <pt x="769" y="1834" on="1"/>
        <pt x="810" y="1834" on="0"/>
        <pt x="874" y="1743" on="1"/>
        <pt x="998" y="1566" on="0"/>
        <pt x="998" y="1558" on="1"/>
        <pt x="998" y="1553" on="1"/>
        <pt x="998" y="1512" on="0"/>
        <pt x="960" y="1512" on="1"/>
        <pt x="950" y="1512" on="1"/>
        <pt x="897" y="1512" on="0"/>
        <pt x="597" y="1722" on="0"/>
        <pt x="597" y="1769" on="1"/>
        <pt x="597" y="1774" on="1"/>
        <pt x="597" y="1791" on="0"/>
        <pt x="659" y="1832" on="0"/>
        <pt x="704" y="1832" on="1"/>
        <pt x="724" y="1836" on="0"/>
      </contour>
      <contour>
        <pt x="322" y="179" on="1"/>
        <pt x="322" y="177" on="0"/>
        <pt x="370" y="66" on="0"/>
        <pt x="370" y="54" on="1"/>
        <pt x="370" y="12" on="0"/>
        <pt x="252" y="12" on="1"/>
        <pt x="223" y="13" on="1"/>
        <pt x="134" y="13" on="1"/>
        <pt x="73" y="12" on="1"/>
        <pt x="43" y="12" on="1"/>
        <pt x="-43" y="12" on="0"/>
        <pt x="-43" y="58" on="1"/>
        <pt x="-43" y="97" on="0"/>
        <pt x="116" y="190" on="0"/>
        <pt x="127" y="204" on="1"/>
        <pt x="157" y="243" on="0"/>
        <pt x="433" y="750" on="0"/>
        <pt x="438" y="759" on="1"/>
        <pt x="467" y="811" on="1"/>
        <pt x="481" y="837" on="0"/>
        <pt x="510" y="889" on="1"/>
        <pt x="582" y="1020" on="1"/>
        <pt x="739" y="1302" on="0"/>
        <pt x="742" y="1306" on="1"/>
        <pt x="821" y="1424" on="0"/>
        <pt x="944" y="1424" on="0"/>
        <pt x="991" y="1266" on="0"/>
        <pt x="1189" y="296" on="0"/>
        <pt x="1231" y="178" on="0"/>
        <pt x="1265" y="155" on="1"/>
        <pt x="1342" y="104" on="0"/>
        <pt x="1342" y="67" on="1"/>
        <pt x="1342" y="12" on="0"/>
        <pt x="1272" y="12" on="1"/>
        <pt x="1242" y="12" on="1"/>
        <pt x="1212" y="13" on="1"/>
        <pt x="1127" y="13" on="1"/>
        <pt x="1043" y="12" on="1"/>
        <pt x="1014" y="12" on="1"/>
        <pt x="859" y="12" on="0"/>
        <pt x="859" y="61" on="1"/>
        <pt x="859" y="66" on="0"/>
        <pt x="922" y="182" on="0"/>
        <pt x="922" y="238" on="1"/>
        <pt x="922" y="409" on="0"/>
        <pt x="882" y="450" on="1"/>
        <pt x="859" y="474" on="0"/>
        <pt x="477" y="474" on="0"/>
        <pt x="398" y="397" on="0"/>
        <pt x="322" y="220" on="0"/>
      </contour>
    </TTGlyph>
    <TTGlyph name="Aring" xMin="-3" yMin="12" xMax="1354" yMax="1861">
      <contour>
        <pt x="888" y="1555" on="1"/>
        <pt x="903" y="1555" on="1"/>
        <pt x="938" y="1555" on="0"/>
        <pt x="995" y="1627" on="0"/>
        <pt x="995" y="1671" on="1"/>
        <pt x="995" y="1677" on="1"/>
        <pt x="994" y="1680" on="1"/>
        <pt x="991" y="1704" on="1"/>
        <pt x="990" y="1707" on="0"/>
        <pt x="990" y="1710" on="1"/>
        <pt x="990" y="1759" on="0"/>
        <pt x="942" y="1759" on="1"/>
        <pt x="936" y="1761" on="0"/>
        <pt x="933" y="1761" on="1"/>
        <pt x="924" y="1762" on="1"/>
        <pt x="921" y="1762" on="1"/>
        <pt x="898" y="1758" on="1"/>
        <pt x="881" y="1758" on="0"/>
        <pt x="832" y="1696" on="0"/>
        <pt x="832" y="1679" on="1"/>
        <pt x="828" y="1667" on="0"/>
        <pt x="828" y="1664" on="1"/>
        <pt x="826" y="1642" on="1"/>
        <pt x="826" y="1633" on="1"/>
        <pt x="830" y="1609" on="1"/>
        <pt x="830" y="1557" on="0"/>
        <pt x="879" y="1557" on="1"/>
        <pt x="885" y="1555" on="0"/>
      </contour>
      <contour>
        <pt x="630" y="603" on="1"/>
        <pt x="758" y="603" on="1"/>
        <pt x="883" y="603" on="0"/>
        <pt x="883" y="617" on="1"/>
        <pt x="882" y="623" on="1"/>
        <pt x="882" y="629" on="1"/>
        <pt x="882" y="632" on="0"/>
        <pt x="858" y="736" on="0"/>
        <pt x="855" y="750" on="1"/>
        <pt x="850" y="771" on="1"/>
        <pt x="848" y="778" on="1"/>
        <pt x="842" y="806" on="1"/>
        <pt x="839" y="815" on="0"/>
        <pt x="835" y="833" on="1"/>
        <pt x="832" y="850" on="0"/>
        <pt x="828" y="864" on="1"/>
        <pt x="816" y="912" on="1"/>
        <pt x="812" y="927" on="1"/>
        <pt x="806" y="955" on="1"/>
        <pt x="799" y="983" on="1"/>
        <pt x="796" y="997" on="0"/>
        <pt x="787" y="1036" on="0"/>
        <pt x="780" y="1078" on="0"/>
        <pt x="774" y="1078" on="0"/>
        <pt x="709" y="947" on="0"/>
        <pt x="534" y="622" on="0"/>
        <pt x="534" y="603" on="0"/>
      </contour>
      <contour>
        <pt x="705" y="1615" on="1"/>
        <pt x="705" y="1634" on="1"/>
        <pt x="705" y="1719" on="0"/>
        <pt x="762" y="1776" on="1"/>
        <pt x="847" y="1861" on="0"/>
        <pt x="931" y="1861" on="1"/>
        <pt x="950" y="1861" on="1"/>
        <pt x="1014" y="1861" on="0"/>
        <pt x="1116" y="1769" on="0"/>
        <pt x="1116" y="1707" on="1"/>
        <pt x="1116" y="1674" on="1"/>
        <pt x="1116" y="1603" on="0"/>
        <pt x="983" y="1455" on="0"/>
        <pt x="897" y="1455" on="1"/>
        <pt x="864" y="1455" on="1"/>
        <pt x="795" y="1455" on="0"/>
        <pt x="705" y="1557" on="0"/>
      </contour>
      <contour>
        <pt x="874" y="478" on="0"/>
        <pt x="492" y="478" on="0"/>
        <pt x="420" y="411" on="0"/>
        <pt x="329" y="228" on="0"/>
        <pt x="329" y="156" on="0"/>
        <pt x="383" y="70" on="0"/>
        <pt x="383" y="44" on="1"/>
        <pt x="383" y="13" on="0"/>
        <pt x="194" y="13" on="1"/>
        <pt x="106" y="12" on="1"/>
        <pt x="-3" y="12" on="0"/>
        <pt x="-3" y="60" on="1"/>
        <pt x="-3" y="94" on="0"/>
        <pt x="141" y="172" on="0"/>
        <pt x="203" y="257" on="0"/>
        <pt x="671" y="1141" on="0"/>
        <pt x="826" y="1408" on="0"/>
        <pt x="896" y="1408" on="1"/>
        <pt x="935" y="1408" on="0"/>
        <pt x="983" y="1229" on="0"/>
        <pt x="1218" y="256" on="0"/>
        <pt x="1244" y="170" on="0"/>
        <pt x="1278" y="145" on="1"/>
        <pt x="1354" y="88" on="0"/>
        <pt x="1354" y="58" on="1"/>
        <pt x="1354" y="22" on="0"/>
        <pt x="1311" y="15" on="1"/>
        <pt x="1299" y="13" on="0"/>
        <pt x="1140" y="13" on="1"/>
        <pt x="1087" y="13" on="1"/>
        <pt x="1031" y="12" on="1"/>
        <pt x="974" y="12" on="0"/>
        <pt x="900" y="47" on="0"/>
        <pt x="900" y="67" on="0"/>
        <pt x="955" y="152" on="0"/>
        <pt x="955" y="200" on="1"/>
        <pt x="955" y="316" on="0"/>
        <pt x="923" y="416" on="1"/>
        <pt x="913" y="449" on="0"/>
        <pt x="899" y="459" on="1"/>
      </contour>
    </TTGlyph>
    <TTGlyph name="Atilde" xMin="-37" yMin="9" xMax="1348" yMax="1798">
      <contour>
        <pt x="564" y="609" on="1"/>
        <pt x="819" y="609" on="1"/>
        <pt x="870" y="609" on="0"/>
        <pt x="870" y="631" on="1"/>
        <pt x="870" y="637" on="1"/>
        <pt x="870" y="638" on="0"/>
        <pt x="787" y="1053" on="0"/>
        <pt x="782" y="1082" on="0"/>
        <pt x="776" y="1082" on="0"/>
        <pt x="735" y="999" on="0"/>
        <pt x="533" y="624" on="0"/>
        <pt x="533" y="609" on="0"/>
      </contour>
      <contour>
        <pt x="793" y="1798" on="1"/>
        <pt x="810" y="1798" on="1"/>
        <pt x="867" y="1798" on="0"/>
        <pt x="1031" y="1692" on="0"/>
        <pt x="1125" y="1692" on="0"/>
        <pt x="1228" y="1780" on="0"/>
        <pt x="1248" y="1780" on="1"/>
        <pt x="1290" y="1780" on="0"/>
        <pt x="1290" y="1684" on="0"/>
        <pt x="1118" y="1525" on="0"/>
        <pt x="1041" y="1525" on="1"/>
        <pt x="1032" y="1525" on="1"/>
        <pt x="1032" y="1525" on="0"/>
        <pt x="1030" y="1525" on="1"/>
        <pt x="970" y="1525" on="0"/>
        <pt x="888" y="1578" on="1"/>
        <pt x="804" y="1632" on="0"/>
        <pt x="700" y="1632" on="0"/>
        <pt x="610" y="1542" on="0"/>
        <pt x="591" y="1542" on="1"/>
        <pt x="541" y="1542" on="0"/>
        <pt x="541" y="1583" on="1"/>
        <pt x="541" y="1654" on="0"/>
        <pt x="660" y="1743" on="1"/>
        <pt x="733" y="1798" on="0"/>
      </contour>
      <contour>
        <pt x="328" y="176" on="1"/>
        <pt x="328" y="174" on="0"/>
        <pt x="376" y="63" on="0"/>
        <pt x="376" y="51" on="1"/>
        <pt x="376" y="9" on="0"/>
        <pt x="259" y="9" on="1"/>
        <pt x="229" y="10" on="1"/>
        <pt x="140" y="10" on="1"/>
        <pt x="80" y="9" on="1"/>
        <pt x="49" y="9" on="1"/>
        <pt x="-37" y="9" on="0"/>
        <pt x="-37" y="55" on="1"/>
        <pt x="-37" y="93" on="0"/>
        <pt x="124" y="189" on="0"/>
        <pt x="144" y="215" on="0"/>
        <pt x="349" y="582" on="0"/>
        <pt x="386" y="652" on="0"/>
        <pt x="507" y="869" on="0"/>
        <pt x="517" y="888" on="0"/>
        <pt x="589" y="1017" on="1"/>
        <pt x="660" y="1147" on="1"/>
        <pt x="742" y="1294" on="0"/>
        <pt x="748" y="1303" on="1"/>
        <pt x="827" y="1421" on="0"/>
        <pt x="956" y="1421" on="0"/>
        <pt x="983" y="1311" on="1"/>
        <pt x="985" y="1304" on="0"/>
        <pt x="1064" y="926" on="0"/>
        <pt x="1213" y="241" on="0"/>
        <pt x="1215" y="235" on="1"/>
        <pt x="1238" y="174" on="0"/>
        <pt x="1271" y="152" on="1"/>
        <pt x="1348" y="101" on="0"/>
        <pt x="1348" y="64" on="1"/>
        <pt x="1348" y="9" on="0"/>
        <pt x="1279" y="9" on="1"/>
        <pt x="1248" y="9" on="1"/>
        <pt x="1218" y="10" on="1"/>
        <pt x="1133" y="10" on="1"/>
        <pt x="1049" y="9" on="1"/>
        <pt x="1020" y="9" on="1"/>
        <pt x="865" y="9" on="0"/>
        <pt x="865" y="57" on="1"/>
        <pt x="865" y="63" on="0"/>
        <pt x="928" y="179" on="0"/>
        <pt x="928" y="235" on="1"/>
        <pt x="928" y="406" on="0"/>
        <pt x="888" y="447" on="1"/>
        <pt x="865" y="471" on="0"/>
        <pt x="483" y="471" on="0"/>
        <pt x="450" y="438" on="1"/>
        <pt x="402" y="390" on="0"/>
        <pt x="328" y="217" on="0"/>
      </contour>
    </TTGlyph>
    <TTGlyph name="B" xMin="44" yMin="-13" xMax="1228" yMax="1356">
      <contour>
        <pt x="607" y="765" on="1"/>
        <pt x="671" y="765" on="1"/>
        <pt x="679" y="766" on="1"/>
        <pt x="703" y="767" on="1"/>
        <pt x="743" y="770" on="1"/>
        <pt x="838" y="770" on="0"/>
        <pt x="986" y="933" on="0"/>
        <pt x="986" y="1033" on="1"/>
        <pt x="986" y="1057" on="1"/>
        <pt x="986" y="1131" on="0"/>
        <pt x="874" y="1223" on="0"/>
        <pt x="759" y="1223" on="1"/>
        <pt x="736" y="1223" on="1"/>
        <pt x="647" y="1223" on="0"/>
        <pt x="625" y="1186" on="1"/>
        <pt x="620" y="1177" on="0"/>
        <pt x="552" y="838" on="0"/>
        <pt x="552" y="808" on="1"/>
        <pt x="552" y="801" on="1"/>
        <pt x="553" y="796" on="1"/>
        <pt x="553" y="765" on="0"/>
      </contour>
      <contour>
        <pt x="685" y="631" on="1"/>
        <pt x="609" y="631" on="1"/>
        <pt x="530" y="631" on="0"/>
        <pt x="516" y="592" on="1"/>
        <pt x="511" y="578" on="0"/>
        <pt x="442" y="187" on="0"/>
        <pt x="442" y="177" on="1"/>
        <pt x="442" y="169" on="1"/>
        <pt x="443" y="162" on="1"/>
        <pt x="443" y="120" on="0"/>
        <pt x="580" y="120" on="1"/>
        <pt x="617" y="120" on="1"/>
        <pt x="763" y="120" on="0"/>
        <pt x="836" y="187" on="1"/>
        <pt x="941" y="283" on="0"/>
        <pt x="941" y="402" on="1"/>
        <pt x="941" y="429" on="1"/>
        <pt x="941" y="530" on="0"/>
        <pt x="796" y="631" on="0"/>
      </contour>
      <contour>
        <pt x="362" y="1122" on="1"/>
        <pt x="362" y="1191" on="0"/>
        <pt x="323" y="1220" on="1"/>
        <pt x="255" y="1271" on="0"/>
        <pt x="255" y="1294" on="1"/>
        <pt x="255" y="1333" on="0"/>
        <pt x="312" y="1348" on="1"/>
        <pt x="339" y="1355" on="0"/>
        <pt x="613" y="1355" on="1"/>
        <pt x="689" y="1356" on="1"/>
        <pt x="821" y="1356" on="1"/>
        <pt x="1024" y="1356" on="0"/>
        <pt x="1228" y="1205" on="0"/>
        <pt x="1228" y="1091" on="1"/>
        <pt x="1228" y="1065" on="1"/>
        <pt x="1228" y="902" on="0"/>
        <pt x="1090" y="792" on="1"/>
        <pt x="1079" y="783" on="0"/>
        <pt x="990" y="726" on="0"/>
        <pt x="990" y="714" on="0"/>
        <pt x="1054" y="672" on="1"/>
        <pt x="1190" y="583" on="0"/>
        <pt x="1190" y="219" on="0"/>
        <pt x="870" y="-13" on="0"/>
        <pt x="615" y="-13" on="1"/>
        <pt x="514" y="-13" on="1"/>
        <pt x="488" y="-12" on="1"/>
        <pt x="434" y="-12" on="1"/>
        <pt x="332" y="-10" on="1"/>
        <pt x="44" y="-10" on="0"/>
        <pt x="44" y="22" on="1"/>
        <pt x="44" y="40" on="1"/>
        <pt x="44" y="56" on="0"/>
        <pt x="136" y="126" on="1"/>
        <pt x="192" y="168" on="0"/>
        <pt x="238" y="356" on="0"/>
        <pt x="322" y="878" on="0"/>
        <pt x="362" y="1100" on="0"/>
      </contour>
    </TTGlyph>
    <TTGlyph name="C" xMin="114" yMin="-22" xMax="1333" yMax="1372">
      <contour>
        <pt x="887" y="1372" on="1"/>
        <pt x="944" y="1372" on="0"/>
        <pt x="1103" y="1346" on="0"/>
        <pt x="1246" y="1346" on="0"/>
        <pt x="1300" y="1311" on="1"/>
        <pt x="1333" y="1289" on="0"/>
        <pt x="1333" y="1217" on="1"/>
        <pt x="1333" y="1187" on="1"/>
        <pt x="1333" y="1102" on="0"/>
        <pt x="1278" y="998" on="0"/>
        <pt x="1239" y="998" on="1"/>
        <pt x="1226" y="998" on="0"/>
        <pt x="1093" y="1154" on="0"/>
        <pt x="1060" y="1176" on="1"/>
        <pt x="982" y="1228" on="0"/>
        <pt x="879" y="1228" on="1"/>
        <pt x="673" y="1228" on="0"/>
        <pt x="521" y="1029" on="1"/>
        <pt x="450" y="935" on="0"/>
        <pt x="371" y="682" on="0"/>
        <pt x="371" y="545" on="1"/>
        <pt x="371" y="362" on="0"/>
        <pt x="561" y="134" on="0"/>
        <pt x="897" y="134" on="0"/>
        <pt x="1049" y="244" on="1"/>
        <pt x="1115" y="292" on="0"/>
        <pt x="1142" y="292" on="1"/>
        <pt x="1175" y="292" on="0"/>
        <pt x="1175" y="209" on="0"/>
        <pt x="1084" y="81" on="0"/>
        <pt x="1036" y="52" on="1"/>
        <pt x="913" y="-22" on="0"/>
        <pt x="439" y="-22" on="0"/>
        <pt x="282" y="123" on="1"/>
        <pt x="205" y="195" on="0"/>
        <pt x="114" y="405" on="0"/>
        <pt x="114" y="520" on="1"/>
        <pt x="114" y="552" on="1"/>
        <pt x="114" y="715" on="0"/>
        <pt x="176" y="867" on="1"/>
        <pt x="305" y="1183" on="0"/>
        <pt x="609" y="1314" on="1"/>
        <pt x="744" y="1372" on="0"/>
      </contour>
    </TTGlyph>
    <TTGlyph name="Ccedilla" xMin="51" yMin="-411" xMax="1381" yMax="1399">
      <contour>
        <pt x="51" y="534" on="1"/>
        <pt x="51" y="569" on="1"/>
        <pt x="51" y="716" on="0"/>
        <pt x="180" y="1034" on="0"/>
        <pt x="420" y="1274" on="0"/>
        <pt x="735" y="1399" on="0"/>
        <pt x="1011" y="1399" on="0"/>
        <pt x="1203" y="1349" on="0"/>
        <pt x="1260" y="1339" on="0"/>
        <pt x="1336" y="1298" on="0"/>
        <pt x="1381" y="1245" on="0"/>
        <pt x="1381" y="1135" on="1"/>
        <pt x="1381" y="1102" on="1"/>
        <pt x="1381" y="1021" on="0"/>
        <pt x="1315" y="1021" on="1"/>
        <pt x="1304" y="1021" on="0"/>
        <pt x="1256" y="1091" on="1"/>
        <pt x="1148" y="1247" on="0"/>
        <pt x="846" y="1247" on="1"/>
        <pt x="754" y="1247" on="0"/>
        <pt x="557" y="1138" on="0"/>
        <pt x="409" y="947" on="0"/>
        <pt x="326" y="691" on="0"/>
        <pt x="326" y="565" on="1"/>
        <pt x="326" y="336" on="0"/>
        <pt x="450" y="210" on="1"/>
        <pt x="508" y="150" on="0"/>
        <pt x="637" y="111" on="0"/>
        <pt x="836" y="111" on="0"/>
        <pt x="1010" y="182" on="1"/>
        <pt x="1056" y="201" on="0"/>
        <pt x="1195" y="327" on="0"/>
        <pt x="1222" y="327" on="0"/>
        <pt x="1222" y="271" on="0"/>
        <pt x="1120" y="60" on="0"/>
        <pt x="1083" y="40" on="1"/>
        <pt x="931" y="-40" on="0"/>
        <pt x="711" y="-40" on="1"/>
        <pt x="675" y="-40" on="1"/>
        <pt x="402" y="-40" on="0"/>
        <pt x="227" y="117" on="1"/>
        <pt x="51" y="275" on="0"/>
      </contour>
      <contour>
        <pt x="463" y="-411" on="1"/>
        <pt x="435" y="-411" on="1"/>
        <pt x="367" y="-411" on="0"/>
        <pt x="367" y="-380" on="1"/>
        <pt x="367" y="-375" on="1"/>
        <pt x="367" y="-318" on="0"/>
        <pt x="424" y="-318" on="1"/>
        <pt x="470" y="-318" on="0"/>
        <pt x="531" y="-263" on="0"/>
        <pt x="531" y="-201" on="0"/>
        <pt x="467" y="-169" on="0"/>
        <pt x="467" y="-117" on="0"/>
        <pt x="525" y="-39" on="0"/>
        <pt x="544" y="-39" on="1"/>
        <pt x="568" y="-39" on="1"/>
        <pt x="603" y="-39" on="0"/>
        <pt x="603" y="-73" on="1"/>
        <pt x="603" y="-79" on="0"/>
        <pt x="665" y="-122" on="1"/>
        <pt x="702" y="-148" on="0"/>
        <pt x="702" y="-206" on="1"/>
        <pt x="701" y="-213" on="1"/>
        <pt x="701" y="-293" on="0"/>
        <pt x="556" y="-411" on="0"/>
      </contour>
    </TTGlyph>
    <TTGlyph name="D" xMin="21" yMin="-10" xMax="1390" yMax="1358">
      <contour>
        <pt x="548" y="125" on="1"/>
        <pt x="596" y="125" on="1"/>
        <pt x="598" y="125" on="0"/>
        <pt x="600" y="125" on="1"/>
        <pt x="705" y="125" on="0"/>
        <pt x="802" y="176" on="1"/>
        <pt x="1006" y="282" on="0"/>
        <pt x="1089" y="542" on="1"/>
        <pt x="1134" y="682" on="0"/>
        <pt x="1134" y="821" on="1"/>
        <pt x="1133" y="836" on="1"/>
        <pt x="1133" y="1020" on="0"/>
        <pt x="940" y="1224" on="0"/>
        <pt x="739" y="1224" on="1"/>
        <pt x="723" y="1224" on="1"/>
        <pt x="667" y="1224" on="0"/>
        <pt x="648" y="1218" on="1"/>
        <pt x="610" y="1206" on="0"/>
        <pt x="577" y="1096" on="0"/>
        <pt x="529" y="806" on="1"/>
        <pt x="482" y="516" on="0"/>
        <pt x="476" y="490" on="1"/>
        <pt x="445" y="314" on="1"/>
        <pt x="424" y="181" on="1"/>
        <pt x="424" y="144" on="0"/>
        <pt x="477" y="125" on="0"/>
      </contour>
      <contour>
        <pt x="232" y="1295" on="1"/>
        <pt x="232" y="1333" on="0"/>
        <pt x="283" y="1349" on="1"/>
        <pt x="303" y="1355" on="0"/>
        <pt x="552" y="1355" on="1"/>
        <pt x="701" y="1358" on="1"/>
        <pt x="777" y="1358" on="1"/>
        <pt x="1223" y="1358" on="0"/>
        <pt x="1347" y="1058" on="1"/>
        <pt x="1390" y="956" on="0"/>
        <pt x="1390" y="843" on="1"/>
        <pt x="1390" y="793" on="1"/>
        <pt x="1390" y="622" on="0"/>
        <pt x="1310" y="455" on="1"/>
        <pt x="1157" y="134" on="0"/>
        <pt x="829" y="30" on="1"/>
        <pt x="704" y="-10" on="0"/>
        <pt x="511" y="-10" on="1"/>
        <pt x="487" y="-10" on="1"/>
        <pt x="461" y="-9" on="1"/>
        <pt x="410" y="-9" on="1"/>
        <pt x="361" y="-8" on="1"/>
        <pt x="311" y="-8" on="1"/>
        <pt x="74" y="-8" on="0"/>
        <pt x="66" y="-7" on="1"/>
        <pt x="21" y="-2" on="0"/>
        <pt x="21" y="39" on="1"/>
        <pt x="21" y="64" on="0"/>
        <pt x="110" y="120" on="1"/>
        <pt x="162" y="153" on="0"/>
        <pt x="204" y="300" on="0"/>
        <pt x="294" y="836" on="0"/>
        <pt x="345" y="1116" on="0"/>
        <pt x="345" y="1193" on="0"/>
        <pt x="306" y="1218" on="1"/>
        <pt x="232" y="1266" on="0"/>
      </contour>
    </TTGlyph>
    <TTGlyph name="E" xMin="40" yMin="-3" xMax="1241" yMax="1360">
      <contour>
        <pt x="639" y="788" on="0"/>
        <pt x="736" y="788" on="0"/>
        <pt x="888" y="849" on="0"/>
        <pt x="940" y="849" on="0"/>
        <pt x="978" y="792" on="0"/>
        <pt x="978" y="764" on="1"/>
        <pt x="978" y="680" on="0"/>
        <pt x="927" y="576" on="1"/>
        <pt x="906" y="533" on="0"/>
        <pt x="886" y="533" on="1"/>
        <pt x="839" y="533" on="0"/>
        <pt x="715" y="623" on="0"/>
        <pt x="678" y="623" on="1"/>
        <pt x="555" y="623" on="0"/>
        <pt x="523" y="565" on="1"/>
        <pt x="474" y="476" on="0"/>
        <pt x="474" y="267" on="1"/>
        <pt x="474" y="201" on="0"/>
        <pt x="511" y="150" on="0"/>
        <pt x="580" y="150" on="1"/>
        <pt x="742" y="150" on="0"/>
        <pt x="900" y="200" on="0"/>
        <pt x="1056" y="324" on="0"/>
        <pt x="1080" y="324" on="1"/>
        <pt x="1112" y="324" on="0"/>
        <pt x="1112" y="274" on="1"/>
        <pt x="1112" y="139" on="0"/>
        <pt x="1013" y="-3" on="0"/>
        <pt x="904" y="-3" on="1"/>
        <pt x="741" y="-3" on="1"/>
        <pt x="699" y="-2" on="1"/>
        <pt x="483" y="-1" on="1"/>
        <pt x="88" y="-1" on="0"/>
        <pt x="79" y="1" on="1"/>
        <pt x="40" y="10" on="0"/>
        <pt x="40" y="71" on="0"/>
        <pt x="137" y="131" on="1"/>
        <pt x="193" y="166" on="0"/>
        <pt x="213" y="244" on="1"/>
        <pt x="222" y="281" on="0"/>
        <pt x="361" y="1084" on="0"/>
        <pt x="361" y="1138" on="0"/>
        <pt x="274" y="1289" on="0"/>
        <pt x="274" y="1313" on="1"/>
        <pt x="274" y="1349" on="0"/>
        <pt x="347" y="1357" on="1"/>
        <pt x="356" y="1358" on="0"/>
        <pt x="755" y="1358" on="1"/>
        <pt x="1096" y="1360" on="1"/>
        <pt x="1163" y="1360" on="0"/>
        <pt x="1189" y="1337" on="1"/>
        <pt x="1241" y="1292" on="0"/>
        <pt x="1241" y="1170" on="0"/>
        <pt x="1224" y="1134" on="1"/>
        <pt x="1195" y="1073" on="0"/>
        <pt x="1159" y="1073" on="1"/>
        <pt x="1153" y="1073" on="0"/>
        <pt x="991" y="1177" on="0"/>
        <pt x="982" y="1180" on="1"/>
        <pt x="923" y="1203" on="0"/>
        <pt x="835" y="1203" on="1"/>
        <pt x="696" y="1203" on="0"/>
        <pt x="658" y="1141" on="1"/>
        <pt x="582" y="1018" on="0"/>
        <pt x="582" y="871" on="1"/>
        <pt x="582" y="838" on="0"/>
        <pt x="599" y="823" on="1"/>
      </contour>
    </TTGlyph>
    <TTGlyph name="Eacute" xMin="21" yMin="3" xMax="1226" yMax="1828">
      <contour>
        <pt x="1027" y="1826" on="1"/>
        <pt x="1073" y="1826" on="0"/>
        <pt x="1118" y="1796" on="1"/>
        <pt x="1133" y="1786" on="0"/>
        <pt x="1133" y="1772" on="1"/>
        <pt x="1133" y="1728" on="0"/>
        <pt x="993" y="1639" on="1"/>
        <pt x="778" y="1502" on="0"/>
        <pt x="676" y="1502" on="0"/>
        <pt x="676" y="1541" on="1"/>
        <pt x="676" y="1594" on="0"/>
        <pt x="876" y="1772" on="1"/>
        <pt x="939" y="1828" on="0"/>
        <pt x="980" y="1828" on="1"/>
        <pt x="1009" y="1828" on="1"/>
        <pt x="1021" y="1826" on="0"/>
      </contour>
      <contour>
        <pt x="696" y="811" on="1"/>
        <pt x="696" y="811" on="0"/>
        <pt x="882" y="859" on="1"/>
        <pt x="921" y="859" on="0"/>
        <pt x="969" y="801" on="0"/>
        <pt x="969" y="770" on="1"/>
        <pt x="969" y="696" on="0"/>
        <pt x="903" y="558" on="0"/>
        <pt x="866" y="558" on="1"/>
        <pt x="842" y="558" on="0"/>
        <pt x="711" y="643" on="0"/>
        <pt x="553" y="643" on="0"/>
        <pt x="519" y="594" on="1"/>
        <pt x="468" y="520" on="0"/>
        <pt x="468" y="302" on="1"/>
        <pt x="468" y="210" on="0"/>
        <pt x="521" y="160" on="0"/>
        <pt x="584" y="160" on="1"/>
        <pt x="726" y="160" on="0"/>
        <pt x="844" y="205" on="1"/>
        <pt x="900" y="226" on="0"/>
        <pt x="1035" y="325" on="0"/>
        <pt x="1058" y="325" on="1"/>
        <pt x="1097" y="325" on="0"/>
        <pt x="1097" y="254" on="1"/>
        <pt x="1097" y="111" on="0"/>
        <pt x="1034" y="48" on="1"/>
        <pt x="989" y="3" on="0"/>
        <pt x="822" y="3" on="1"/>
        <pt x="741" y="3" on="1"/>
        <pt x="700" y="4" on="1"/>
        <pt x="401" y="5" on="1"/>
        <pt x="21" y="5" on="0"/>
        <pt x="21" y="28" on="1"/>
        <pt x="21" y="62" on="1"/>
        <pt x="21" y="91" on="0"/>
        <pt x="66" y="111" on="1"/>
        <pt x="104" y="125" on="1"/>
        <pt x="138" y="141" on="1"/>
        <pt x="165" y="162" on="0"/>
        <pt x="213" y="341" on="0"/>
        <pt x="339" y="1138" on="0"/>
        <pt x="339" y="1198" on="0"/>
        <pt x="251" y="1316" on="0"/>
        <pt x="251" y="1349" on="1"/>
        <pt x="251" y="1395" on="0"/>
        <pt x="325" y="1395" on="1"/>
        <pt x="1075" y="1397" on="1"/>
        <pt x="1114" y="1397" on="1"/>
        <pt x="1160" y="1397" on="0"/>
        <pt x="1226" y="1331" on="0"/>
        <pt x="1226" y="1210" on="0"/>
        <pt x="1212" y="1178" on="1"/>
        <pt x="1185" y="1117" on="0"/>
        <pt x="1115" y="1117" on="0"/>
        <pt x="928" y="1239" on="0"/>
        <pt x="698" y="1239" on="0"/>
        <pt x="660" y="1183" on="1"/>
        <pt x="635" y="1146" on="0"/>
        <pt x="575" y="928" on="0"/>
        <pt x="575" y="868" on="0"/>
        <pt x="643" y="811" on="0"/>
      </contour>
    </TTGlyph>
    <TTGlyph name="Ecircumflex" xMin="21" yMin="0" xMax="1226" yMax="1846">
      <contour>
        <pt x="1073" y="1510" on="1"/>
        <pt x="1059" y="1510" on="1"/>
        <pt x="1006" y="1510" on="0"/>
        <pt x="846" y="1658" on="0"/>
        <pt x="814" y="1658" on="0"/>
        <pt x="592" y="1510" on="0"/>
        <pt x="550" y="1510" on="1"/>
        <pt x="543" y="1510" on="1"/>
        <pt x="491" y="1510" on="0"/>
        <pt x="491" y="1538" on="1"/>
        <pt x="491" y="1544" on="1"/>
        <pt x="491" y="1563" on="0"/>
        <pt x="825" y="1846" on="0"/>
        <pt x="859" y="1846" on="1"/>
        <pt x="867" y="1846" on="1"/>
        <pt x="906" y="1846" on="0"/>
        <pt x="941" y="1808" on="1"/>
        <pt x="954" y="1794" on="0"/>
        <pt x="1016" y="1698" on="0"/>
        <pt x="1115" y="1559" on="0"/>
        <pt x="1115" y="1550" on="1"/>
        <pt x="1115" y="1543" on="1"/>
        <pt x="1115" y="1510" on="0"/>
      </contour>
      <contour>
        <pt x="696" y="807" on="1"/>
        <pt x="710" y="807" on="0"/>
        <pt x="874" y="856" on="0"/>
        <pt x="882" y="856" on="1"/>
        <pt x="920" y="856" on="0"/>
        <pt x="969" y="797" on="0"/>
        <pt x="969" y="766" on="1"/>
        <pt x="969" y="690" on="0"/>
        <pt x="903" y="554" on="0"/>
        <pt x="866" y="554" on="1"/>
        <pt x="844" y="554" on="0"/>
        <pt x="713" y="639" on="0"/>
        <pt x="553" y="639" on="0"/>
        <pt x="519" y="590" on="1"/>
        <pt x="468" y="516" on="0"/>
        <pt x="468" y="299" on="1"/>
        <pt x="468" y="207" on="0"/>
        <pt x="521" y="156" on="0"/>
        <pt x="584" y="156" on="1"/>
        <pt x="721" y="156" on="0"/>
        <pt x="844" y="201" on="1"/>
        <pt x="895" y="220" on="0"/>
        <pt x="1035" y="322" on="0"/>
        <pt x="1058" y="322" on="1"/>
        <pt x="1097" y="322" on="0"/>
        <pt x="1097" y="250" on="1"/>
        <pt x="1097" y="106" on="0"/>
        <pt x="1034" y="44" on="1"/>
        <pt x="989" y="0" on="0"/>
        <pt x="862" y="0" on="1"/>
        <pt x="615" y="0" on="1"/>
        <pt x="571" y="1" on="1"/>
        <pt x="443" y="2" on="1"/>
        <pt x="21" y="2" on="0"/>
        <pt x="21" y="24" on="1"/>
        <pt x="21" y="59" on="1"/>
        <pt x="21" y="87" on="0"/>
        <pt x="66" y="107" on="1"/>
        <pt x="138" y="138" on="1"/>
        <pt x="165" y="159" on="0"/>
        <pt x="195" y="270" on="0"/>
        <pt x="339" y="1114" on="0"/>
        <pt x="339" y="1195" on="0"/>
        <pt x="251" y="1313" on="0"/>
        <pt x="251" y="1346" on="1"/>
        <pt x="251" y="1392" on="0"/>
        <pt x="325" y="1392" on="1"/>
        <pt x="990" y="1393" on="1"/>
        <pt x="1114" y="1393" on="1"/>
        <pt x="1161" y="1393" on="0"/>
        <pt x="1226" y="1328" on="0"/>
        <pt x="1226" y="1207" on="0"/>
        <pt x="1212" y="1174" on="1"/>
        <pt x="1186" y="1114" on="0"/>
        <pt x="1112" y="1114" on="0"/>
        <pt x="931" y="1236" on="0"/>
        <pt x="698" y="1236" on="0"/>
        <pt x="660" y="1179" on="1"/>
        <pt x="635" y="1141" on="0"/>
        <pt x="575" y="926" on="0"/>
        <pt x="575" y="865" on="0"/>
        <pt x="644" y="807" on="0"/>
      </contour>
    </TTGlyph>
    <TTGlyph name="Edieresis" xMin="31" yMin="4" xMax="1236" yMax="1799">
      <contour>
        <pt x="497" y="1655" on="1"/>
        <pt x="497" y="1655" on="0"/>
        <pt x="500" y="1681" on="1"/>
        <pt x="500" y="1714" on="0"/>
        <pt x="585" y="1799" on="0"/>
        <pt x="631" y="1799" on="1"/>
        <pt x="657" y="1799" on="1"/>
        <pt x="695" y="1799" on="0"/>
        <pt x="763" y="1731" on="0"/>
        <pt x="763" y="1692" on="1"/>
        <pt x="763" y="1666" on="1"/>
        <pt x="763" y="1608" on="0"/>
        <pt x="667" y="1526" on="0"/>
        <pt x="620" y="1526" on="1"/>
        <pt x="611" y="1526" on="1"/>
        <pt x="575" y="1526" on="0"/>
        <pt x="496" y="1582" on="0"/>
        <pt x="496" y="1638" on="1"/>
        <pt x="496" y="1651" on="1"/>
      </contour>
      <contour>
        <pt x="1158" y="1696" on="1"/>
        <pt x="1155" y="1644" on="1"/>
        <pt x="1155" y="1606" on="0"/>
        <pt x="1062" y="1526" on="0"/>
        <pt x="1023" y="1526" on="1"/>
        <pt x="997" y="1526" on="1"/>
        <pt x="989" y="1528" on="0"/>
        <pt x="984" y="1528" on="1"/>
        <pt x="957" y="1528" on="0"/>
        <pt x="891" y="1594" on="0"/>
        <pt x="891" y="1633" on="1"/>
        <pt x="891" y="1660" on="1"/>
        <pt x="891" y="1702" on="0"/>
        <pt x="974" y="1799" on="0"/>
        <pt x="1026" y="1799" on="1"/>
        <pt x="1052" y="1799" on="1"/>
        <pt x="1091" y="1799" on="0"/>
        <pt x="1155" y="1735" on="0"/>
        <pt x="1155" y="1709" on="1"/>
      </contour>
      <contour>
        <pt x="879" y="860" on="0"/>
        <pt x="931" y="860" on="0"/>
        <pt x="979" y="802" on="0"/>
        <pt x="979" y="771" on="1"/>
        <pt x="979" y="697" on="0"/>
        <pt x="913" y="559" on="0"/>
        <pt x="876" y="559" on="1"/>
        <pt x="852" y="559" on="0"/>
        <pt x="721" y="644" on="0"/>
        <pt x="563" y="644" on="0"/>
        <pt x="529" y="595" on="1"/>
        <pt x="478" y="521" on="0"/>
        <pt x="478" y="303" on="1"/>
        <pt x="478" y="211" on="0"/>
        <pt x="531" y="161" on="0"/>
        <pt x="594" y="161" on="1"/>
        <pt x="736" y="161" on="0"/>
        <pt x="854" y="206" on="1"/>
        <pt x="910" y="227" on="0"/>
        <pt x="1045" y="326" on="0"/>
        <pt x="1068" y="326" on="1"/>
        <pt x="1107" y="326" on="0"/>
        <pt x="1107" y="255" on="1"/>
        <pt x="1107" y="112" on="0"/>
        <pt x="1044" y="49" on="1"/>
        <pt x="999" y="4" on="0"/>
        <pt x="832" y="4" on="1"/>
        <pt x="751" y="4" on="1"/>
        <pt x="710" y="5" on="1"/>
        <pt x="411" y="7" on="1"/>
        <pt x="31" y="7" on="0"/>
        <pt x="31" y="29" on="1"/>
        <pt x="31" y="63" on="1"/>
        <pt x="31" y="92" on="0"/>
        <pt x="76" y="112" on="1"/>
        <pt x="114" y="126" on="1"/>
        <pt x="148" y="142" on="1"/>
        <pt x="175" y="163" on="0"/>
        <pt x="220" y="335" on="0"/>
        <pt x="349" y="1145" on="0"/>
        <pt x="349" y="1200" on="0"/>
        <pt x="261" y="1318" on="0"/>
        <pt x="261" y="1350" on="1"/>
        <pt x="261" y="1396" on="0"/>
        <pt x="335" y="1396" on="1"/>
        <pt x="1085" y="1398" on="1"/>
        <pt x="1124" y="1398" on="1"/>
        <pt x="1170" y="1398" on="0"/>
        <pt x="1236" y="1330" on="0"/>
        <pt x="1236" y="1211" on="0"/>
        <pt x="1222" y="1179" on="1"/>
        <pt x="1196" y="1119" on="0"/>
        <pt x="1124" y="1119" on="0"/>
        <pt x="938" y="1240" on="0"/>
        <pt x="707" y="1240" on="0"/>
        <pt x="670" y="1184" on="1"/>
        <pt x="644" y="1145" on="0"/>
        <pt x="585" y="929" on="0"/>
        <pt x="585" y="869" on="0"/>
        <pt x="653" y="812" on="0"/>
        <pt x="721" y="812" on="0"/>
      </contour>
    </TTGlyph>
    <TTGlyph name="Egrave" xMin="21" yMin="3" xMax="1226" yMax="1829">
      <contour>
        <pt x="680" y="1829" on="1"/>
        <pt x="735" y="1829" on="0"/>
        <pt x="775" y="1777" on="1"/>
        <pt x="930" y="1578" on="0"/>
        <pt x="930" y="1550" on="1"/>
        <pt x="930" y="1546" on="1"/>
        <pt x="930" y="1505" on="0"/>
        <pt x="892" y="1505" on="1"/>
        <pt x="877" y="1505" on="1"/>
        <pt x="828" y="1505" on="0"/>
        <pt x="529" y="1715" on="0"/>
        <pt x="529" y="1757" on="1"/>
        <pt x="529" y="1767" on="1"/>
        <pt x="529" y="1785" on="0"/>
        <pt x="596" y="1827" on="0"/>
        <pt x="652" y="1827" on="1"/>
        <pt x="663" y="1829" on="1"/>
      </contour>
      <contour>
        <pt x="882" y="859" on="1"/>
        <pt x="920" y="859" on="0"/>
        <pt x="969" y="800" on="0"/>
        <pt x="969" y="769" on="1"/>
        <pt x="969" y="693" on="0"/>
        <pt x="903" y="557" on="0"/>
        <pt x="866" y="557" on="1"/>
        <pt x="844" y="557" on="0"/>
        <pt x="711" y="643" on="0"/>
        <pt x="553" y="643" on="0"/>
        <pt x="519" y="593" on="1"/>
        <pt x="468" y="519" on="0"/>
        <pt x="468" y="302" on="1"/>
        <pt x="468" y="210" on="0"/>
        <pt x="520" y="160" on="0"/>
        <pt x="584" y="160" on="1"/>
        <pt x="724" y="160" on="0"/>
        <pt x="844" y="204" on="1"/>
        <pt x="895" y="223" on="0"/>
        <pt x="1035" y="325" on="0"/>
        <pt x="1058" y="325" on="1"/>
        <pt x="1097" y="325" on="0"/>
        <pt x="1097" y="253" on="1"/>
        <pt x="1097" y="109" on="0"/>
        <pt x="1034" y="47" on="1"/>
        <pt x="989" y="3" on="0"/>
        <pt x="862" y="3" on="1"/>
        <pt x="658" y="3" on="1"/>
        <pt x="615" y="4" on="1"/>
        <pt x="443" y="5" on="1"/>
        <pt x="21" y="5" on="0"/>
        <pt x="21" y="28" on="1"/>
        <pt x="21" y="62" on="1"/>
        <pt x="21" y="90" on="0"/>
        <pt x="66" y="110" on="1"/>
        <pt x="138" y="141" on="1"/>
        <pt x="166" y="162" on="0"/>
        <pt x="210" y="331" on="0"/>
        <pt x="339" y="1135" on="0"/>
        <pt x="339" y="1198" on="0"/>
        <pt x="251" y="1316" on="0"/>
        <pt x="251" y="1349" on="1"/>
        <pt x="251" y="1395" on="0"/>
        <pt x="325" y="1395" on="1"/>
        <pt x="990" y="1396" on="1"/>
        <pt x="1114" y="1396" on="1"/>
        <pt x="1161" y="1396" on="0"/>
        <pt x="1226" y="1331" on="0"/>
        <pt x="1226" y="1211" on="0"/>
        <pt x="1212" y="1178" on="1"/>
        <pt x="1186" y="1117" on="0"/>
        <pt x="1112" y="1117" on="0"/>
        <pt x="931" y="1239" on="0"/>
        <pt x="699" y="1239" on="0"/>
        <pt x="660" y="1182" on="1"/>
        <pt x="635" y="1145" on="0"/>
        <pt x="575" y="930" on="0"/>
        <pt x="575" y="868" on="0"/>
        <pt x="643" y="811" on="0"/>
        <pt x="714" y="811" on="0"/>
        <pt x="874" y="859" on="0"/>
      </contour>
    </TTGlyph>
    <TTGlyph name="Eth" xMin="18" yMin="-1" xMax="1415" yMax="1397">
      <contour>
        <pt x="707" y="1262" on="1"/>
        <pt x="637" y="1262" on="0"/>
        <pt x="606" y="1183" on="1"/>
        <pt x="545" y="1025" on="0"/>
        <pt x="545" y="846" on="1"/>
        <pt x="545" y="801" on="0"/>
        <pt x="580" y="775" on="0"/>
        <pt x="811" y="775" on="0"/>
        <pt x="811" y="740" on="1"/>
        <pt x="811" y="669" on="0"/>
        <pt x="762" y="629" on="0"/>
        <pt x="520" y="629" on="0"/>
        <pt x="503" y="587" on="1"/>
        <pt x="495" y="568" on="0"/>
        <pt x="434" y="201" on="0"/>
        <pt x="434" y="179" on="1"/>
        <pt x="434" y="133" on="0"/>
        <pt x="537" y="133" on="1"/>
        <pt x="596" y="133" on="1"/>
        <pt x="704" y="133" on="0"/>
        <pt x="806" y="187" on="1"/>
        <pt x="1018" y="300" on="0"/>
        <pt x="1103" y="573" on="1"/>
        <pt x="1143" y="700" on="0"/>
        <pt x="1143" y="836" on="1"/>
        <pt x="1143" y="854" on="1"/>
        <pt x="1143" y="857" on="0"/>
        <pt x="1143" y="860" on="1"/>
        <pt x="1143" y="951" on="0"/>
        <pt x="1114" y="1032" on="1"/>
        <pt x="1033" y="1262" on="0"/>
        <pt x="764" y="1262" on="1"/>
      </contour>
      <contour>
        <pt x="815" y="1397" on="1"/>
        <pt x="940" y="1397" on="0"/>
        <pt x="1053" y="1361" on="1"/>
        <pt x="1275" y="1290" on="0"/>
        <pt x="1363" y="1102" on="1"/>
        <pt x="1415" y="991" on="0"/>
        <pt x="1415" y="872" on="1"/>
        <pt x="1415" y="817" on="1"/>
        <pt x="1415" y="668" on="0"/>
        <pt x="1350" y="509" on="1"/>
        <pt x="1216" y="181" on="0"/>
        <pt x="887" y="56" on="1"/>
        <pt x="737" y="-1" on="0"/>
        <pt x="549" y="-1" on="1"/>
        <pt x="414" y="-1" on="1"/>
        <pt x="388" y="0" on="1"/>
        <pt x="308" y="1" on="1"/>
        <pt x="196" y="1" on="1"/>
        <pt x="93" y="-1" on="1"/>
        <pt x="18" y="-1" on="0"/>
        <pt x="18" y="48" on="1"/>
        <pt x="18" y="78" on="0"/>
        <pt x="153" y="159" on="0"/>
        <pt x="163" y="184" on="1"/>
        <pt x="233" y="355" on="0"/>
        <pt x="233" y="567" on="1"/>
        <pt x="233" y="610" on="0"/>
        <pt x="217" y="621" on="1"/>
        <pt x="216" y="622" on="0"/>
        <pt x="106" y="641" on="0"/>
        <pt x="106" y="669" on="1"/>
        <pt x="106" y="726" on="0"/>
        <pt x="136" y="756" on="1"/>
        <pt x="147" y="767" on="0"/>
        <pt x="253" y="782" on="0"/>
        <pt x="285" y="840" on="0"/>
        <pt x="340" y="1159" on="0"/>
        <pt x="340" y="1241" on="0"/>
        <pt x="301" y="1259" on="1"/>
        <pt x="234" y="1290" on="0"/>
        <pt x="234" y="1373" on="0"/>
        <pt x="282" y="1386" on="1"/>
        <pt x="304" y="1392" on="0"/>
        <pt x="438" y="1392" on="1"/>
        <pt x="678" y="1397" on="1"/>
      </contour>
    </TTGlyph>
    <TTGlyph name="Euro" xMin="51" yMin="-14" xMax="1223" yMax="1327">
      <contour>
        <pt x="888" y="1327" on="1"/>
        <pt x="1018" y="1327" on="0"/>
        <pt x="1223" y="1254" on="0"/>
        <pt x="1223" y="1202" on="1"/>
        <pt x="1223" y="1114" on="0"/>
        <pt x="1159" y="1041" on="1"/>
        <pt x="1127" y="1005" on="0"/>
        <pt x="1080" y="1005" on="1"/>
        <pt x="1055" y="1005" on="0"/>
        <pt x="1009" y="1059" on="1"/>
        <pt x="990" y="1084" on="1"/>
        <pt x="959" y="1126" on="0"/>
        <pt x="953" y="1131" on="1"/>
        <pt x="911" y="1166" on="0"/>
        <pt x="724" y="1166" on="0"/>
        <pt x="585" y="1015" on="0"/>
        <pt x="585" y="917" on="1"/>
        <pt x="585" y="866" on="0"/>
        <pt x="647" y="847" on="1"/>
        <pt x="731" y="821" on="0"/>
        <pt x="862" y="821" on="1"/>
        <pt x="900" y="821" on="0"/>
        <pt x="900" y="810" on="1"/>
        <pt x="900" y="792" on="0"/>
        <pt x="853" y="723" on="0"/>
        <pt x="811" y="713" on="0"/>
        <pt x="522" y="713" on="0"/>
        <pt x="506" y="709" on="1"/>
        <pt x="443" y="693" on="0"/>
        <pt x="443" y="605" on="0"/>
        <pt x="496" y="593" on="1"/>
        <pt x="533" y="591" on="1"/>
        <pt x="654" y="592" on="1"/>
        <pt x="775" y="592" on="0"/>
        <pt x="814" y="562" on="1"/>
        <pt x="829" y="550" on="0"/>
        <pt x="829" y="541" on="1"/>
        <pt x="829" y="508" on="0"/>
        <pt x="766" y="481" on="1"/>
        <pt x="754" y="476" on="0"/>
        <pt x="596" y="459" on="0"/>
        <pt x="559" y="438" on="1"/>
        <pt x="482" y="395" on="0"/>
        <pt x="482" y="336" on="1"/>
        <pt x="482" y="239" on="0"/>
        <pt x="572" y="185" on="1"/>
        <pt x="638" y="145" on="0"/>
        <pt x="748" y="145" on="1"/>
        <pt x="801" y="145" on="0"/>
        <pt x="1013" y="270" on="0"/>
        <pt x="1031" y="270" on="1"/>
        <pt x="1080" y="270" on="0"/>
        <pt x="1080" y="234" on="1"/>
        <pt x="1080" y="223" on="0"/>
        <pt x="1012" y="107" on="0"/>
        <pt x="939" y="59" on="1"/>
        <pt x="828" y="-14" on="0"/>
        <pt x="677" y="-14" on="1"/>
        <pt x="634" y="-14" on="1"/>
        <pt x="462" y="-14" on="0"/>
        <pt x="338" y="89" on="1"/>
        <pt x="227" y="182" on="0"/>
        <pt x="154" y="392" on="1"/>
        <pt x="130" y="460" on="0"/>
        <pt x="120" y="470" on="1"/>
        <pt x="96" y="484" on="1"/>
        <pt x="51" y="503" on="0"/>
        <pt x="51" y="504" on="1"/>
        <pt x="51" y="569" on="0"/>
        <pt x="92" y="594" on="1"/>
        <pt x="126" y="602" on="1"/>
        <pt x="165" y="611" on="0"/>
        <pt x="165" y="632" on="1"/>
        <pt x="165" y="701" on="0"/>
        <pt x="143" y="715" on="1"/>
        <pt x="91" y="749" on="0"/>
        <pt x="91" y="796" on="0"/>
        <pt x="128" y="818" on="1"/>
        <pt x="158" y="832" on="1"/>
        <pt x="207" y="852" on="0"/>
        <pt x="233" y="877" on="0"/>
        <pt x="316" y="1020" on="0"/>
        <pt x="323" y="1030" on="1"/>
        <pt x="532" y="1327" on="0"/>
      </contour>
    </TTGlyph>
    <TTGlyph name="F" xMin="66" yMin="-1" xMax="1243" yMax="1359">
      <contour>
        <pt x="358" y="1142" on="1"/>
        <pt x="358" y="1196" on="0"/>
        <pt x="265" y="1270" on="0"/>
        <pt x="265" y="1320" on="1"/>
        <pt x="265" y="1359" on="0"/>
        <pt x="322" y="1359" on="1"/>
        <pt x="460" y="1359" on="1"/>
        <pt x="495" y="1358" on="1"/>
        <pt x="976" y="1359" on="1"/>
        <pt x="1157" y="1359" on="1"/>
        <pt x="1202" y="1359" on="0"/>
        <pt x="1243" y="1311" on="0"/>
        <pt x="1243" y="1148" on="0"/>
        <pt x="1194" y="1051" on="0"/>
        <pt x="1134" y="1051" on="0"/>
        <pt x="1067" y="1142" on="0"/>
        <pt x="953" y="1207" on="0"/>
        <pt x="691" y="1207" on="0"/>
        <pt x="648" y="1142" on="1"/>
        <pt x="629" y="1114" on="0"/>
        <pt x="572" y="873" on="0"/>
        <pt x="572" y="807" on="0"/>
        <pt x="645" y="759" on="0"/>
        <pt x="745" y="759" on="0"/>
        <pt x="869" y="835" on="0"/>
        <pt x="917" y="835" on="1"/>
        <pt x="974" y="835" on="0"/>
        <pt x="974" y="669" on="0"/>
        <pt x="901" y="524" on="0"/>
        <pt x="829" y="524" on="0"/>
        <pt x="713" y="587" on="0"/>
        <pt x="684" y="587" on="1"/>
        <pt x="571" y="587" on="0"/>
        <pt x="480" y="496" on="0"/>
        <pt x="480" y="270" on="1"/>
        <pt x="480" y="133" on="0"/>
        <pt x="538" y="86" on="1"/>
        <pt x="559" y="68" on="0"/>
        <pt x="559" y="54" on="1"/>
        <pt x="559" y="-1" on="0"/>
        <pt x="431" y="-1" on="1"/>
        <pt x="363" y="-1" on="1"/>
        <pt x="329" y="0" on="1"/>
        <pt x="297" y="0" on="1"/>
        <pt x="134" y="0" on="0"/>
        <pt x="66" y="39" on="0"/>
        <pt x="66" y="48" on="1"/>
        <pt x="66" y="68" on="1"/>
        <pt x="66" y="72" on="0"/>
        <pt x="149" y="140" on="1"/>
        <pt x="192" y="175" on="0"/>
        <pt x="219" y="271" on="1"/>
        <pt x="224" y="290" on="0"/>
        <pt x="358" y="1047" on="0"/>
      </contour>
    </TTGlyph>
    <TTGlyph name="G" xMin="98" yMin="-20" xMax="1329" yMax="1369">
      <contour>
        <pt x="1104" y="637" on="1"/>
        <pt x="1322" y="637" on="0"/>
        <pt x="1322" y="571" on="1"/>
        <pt x="1322" y="558" on="0"/>
        <pt x="1268" y="492" on="0"/>
        <pt x="1232" y="415" on="0"/>
        <pt x="1170" y="130" on="0"/>
        <pt x="1138" y="102" on="1"/>
        <pt x="1088" y="58" on="0"/>
        <pt x="984" y="33" on="1"/>
        <pt x="762" y="-20" on="0"/>
        <pt x="644" y="-20" on="1"/>
        <pt x="395" y="-20" on="0"/>
        <pt x="247" y="141" on="1"/>
        <pt x="98" y="302" on="0"/>
        <pt x="98" y="538" on="1"/>
        <pt x="98" y="578" on="1"/>
        <pt x="98" y="720" on="0"/>
        <pt x="226" y="1027" on="0"/>
        <pt x="433" y="1237" on="0"/>
        <pt x="708" y="1369" on="0"/>
        <pt x="847" y="1369" on="1"/>
        <pt x="885" y="1369" on="1"/>
        <pt x="895" y="1369" on="0"/>
        <pt x="1057" y="1349" on="0"/>
        <pt x="1170" y="1349" on="1"/>
        <pt x="1329" y="1349" on="0"/>
        <pt x="1329" y="1212" on="1"/>
        <pt x="1329" y="1137" on="0"/>
        <pt x="1270" y="1012" on="0"/>
        <pt x="1221" y="1012" on="1"/>
        <pt x="1197" y="1012" on="0"/>
        <pt x="1070" y="1154" on="0"/>
        <pt x="1034" y="1176" on="1"/>
        <pt x="960" y="1222" on="0"/>
        <pt x="863" y="1222" on="1"/>
        <pt x="656" y="1222" on="0"/>
        <pt x="512" y="1039" on="1"/>
        <pt x="445" y="954" on="0"/>
        <pt x="357" y="706" on="0"/>
        <pt x="357" y="568" on="1"/>
        <pt x="357" y="369" on="0"/>
        <pt x="547" y="135" on="0"/>
        <pt x="857" y="135" on="0"/>
        <pt x="960" y="290" on="0"/>
        <pt x="960" y="492" on="0"/>
        <pt x="932" y="515" on="1"/>
        <pt x="875" y="562" on="0"/>
        <pt x="875" y="575" on="1"/>
        <pt x="875" y="594" on="0"/>
        <pt x="904" y="606" on="1"/>
        <pt x="978" y="637" on="0"/>
      </contour>
    </TTGlyph>
    <TTGlyph name="H" xMin="29" yMin="-3" xMax="1598" yMax="1358">
      <contour>
        <pt x="622" y="766" on="0"/>
        <pt x="1072" y="766" on="0"/>
        <pt x="1114" y="805" on="0"/>
        <pt x="1171" y="957" on="0"/>
        <pt x="1171" y="1150" on="0"/>
        <pt x="1150" y="1201" on="0"/>
        <pt x="1093" y="1292" on="0"/>
        <pt x="1093" y="1305" on="1"/>
        <pt x="1100" y="1323" on="1"/>
        <pt x="1134" y="1357" on="0"/>
        <pt x="1205" y="1357" on="1"/>
        <pt x="1526" y="1358" on="1"/>
        <pt x="1598" y="1358" on="0"/>
        <pt x="1598" y="1334" on="1"/>
        <pt x="1598" y="1285" on="0"/>
        <pt x="1537" y="1242" on="1"/>
        <pt x="1443" y="1175" on="0"/>
        <pt x="1430" y="1133" on="1"/>
        <pt x="1420" y="1086" on="1"/>
        <pt x="1414" y="1056" on="0"/>
        <pt x="1394" y="937" on="0"/>
        <pt x="1378" y="852" on="1"/>
        <pt x="1362" y="759" on="1"/>
        <pt x="1356" y="725" on="0"/>
        <pt x="1273" y="260" on="0"/>
        <pt x="1273" y="157" on="0"/>
        <pt x="1294" y="138" on="1"/>
        <pt x="1328" y="122" on="1"/>
        <pt x="1385" y="90" on="0"/>
        <pt x="1385" y="75" on="1"/>
        <pt x="1385" y="-3" on="0"/>
        <pt x="1323" y="-3" on="1"/>
        <pt x="1178" y="0" on="1"/>
        <pt x="1040" y="-1" on="1"/>
        <pt x="879" y="-1" on="0"/>
        <pt x="879" y="42" on="1"/>
        <pt x="879" y="76" on="0"/>
        <pt x="998" y="187" on="0"/>
        <pt x="1025" y="260" on="1"/>
        <pt x="1078" y="405" on="0"/>
        <pt x="1078" y="530" on="1"/>
        <pt x="1078" y="600" on="0"/>
        <pt x="1017" y="628" on="0"/>
        <pt x="571" y="628" on="0"/>
        <pt x="526" y="589" on="0"/>
        <pt x="509" y="543" on="1"/>
        <pt x="462" y="417" on="0"/>
        <pt x="462" y="268" on="1"/>
        <pt x="462" y="204" on="0"/>
        <pt x="483" y="161" on="1"/>
        <pt x="499" y="134" on="1"/>
        <pt x="520" y="106" on="1"/>
        <pt x="542" y="72" on="0"/>
        <pt x="542" y="49" on="1"/>
        <pt x="542" y="19" on="0"/>
        <pt x="466" y="4" on="1"/>
        <pt x="440" y="-1" on="0"/>
        <pt x="29" y="-1" on="0"/>
        <pt x="29" y="25" on="1"/>
        <pt x="29" y="81" on="0"/>
        <pt x="176" y="151" on="0"/>
        <pt x="194" y="192" on="1"/>
        <pt x="206" y="234" on="1"/>
        <pt x="215" y="271" on="0"/>
        <pt x="241" y="420" on="1"/>
        <pt x="273" y="606" on="1"/>
        <pt x="362" y="1088" on="0"/>
        <pt x="362" y="1159" on="1"/>
        <pt x="362" y="1188" on="0"/>
        <pt x="324" y="1213" on="1"/>
        <pt x="250" y="1261" on="0"/>
        <pt x="250" y="1290" on="1"/>
        <pt x="250" y="1358" on="0"/>
        <pt x="321" y="1358" on="1"/>
        <pt x="371" y="1357" on="1"/>
        <pt x="512" y="1356" on="1"/>
        <pt x="760" y="1356" on="0"/>
        <pt x="760" y="1311" on="1"/>
        <pt x="760" y="1281" on="0"/>
        <pt x="647" y="1190" on="0"/>
        <pt x="622" y="1132" on="1"/>
        <pt x="563" y="994" on="0"/>
        <pt x="563" y="864" on="1"/>
        <pt x="563" y="794" on="0"/>
        <pt x="599" y="777" on="1"/>
      </contour>
    </TTGlyph>
    <TTGlyph name="I" xMin="54" yMin="-2" xMax="847" yMax="1358">
      <contour>
        <pt x="395" y="1043" on="0"/>
        <pt x="395" y="1156" on="0"/>
        <pt x="369" y="1198" on="1"/>
        <pt x="362" y="1210" on="0"/>
        <pt x="272" y="1272" on="0"/>
        <pt x="272" y="1307" on="1"/>
        <pt x="272" y="1358" on="0"/>
        <pt x="355" y="1358" on="1"/>
        <pt x="400" y="1358" on="1"/>
        <pt x="423" y="1357" on="1"/>
        <pt x="777" y="1358" on="1"/>
        <pt x="847" y="1358" on="0"/>
        <pt x="847" y="1282" on="0"/>
        <pt x="742" y="1220" on="1"/>
        <pt x="677" y="1181" on="0"/>
        <pt x="647" y="1082" on="1"/>
        <pt x="637" y="1048" on="0"/>
        <pt x="505" y="306" on="0"/>
        <pt x="505" y="198" on="0"/>
        <pt x="530" y="157" on="1"/>
        <pt x="538" y="145" on="0"/>
        <pt x="625" y="82" on="0"/>
        <pt x="625" y="49" on="1"/>
        <pt x="625" y="-2" on="0"/>
        <pt x="545" y="-2" on="1"/>
        <pt x="499" y="-2" on="1"/>
        <pt x="475" y="-1" on="1"/>
        <pt x="407" y="-1" on="1"/>
        <pt x="364" y="0" on="1"/>
        <pt x="322" y="0" on="1"/>
        <pt x="186" y="-2" on="1"/>
        <pt x="116" y="-2" on="1"/>
        <pt x="54" y="-2" on="0"/>
        <pt x="54" y="77" on="0"/>
        <pt x="159" y="138" on="1"/>
        <pt x="216" y="171" on="0"/>
        <pt x="274" y="327" on="0"/>
        <pt x="335" y="713" on="0"/>
      </contour>
    </TTGlyph>
    <TTGlyph name="Iacute" xMin="21" yMin="4" xMax="849" yMax="1828">
      <contour>
        <pt x="393" y="1537" on="1"/>
        <pt x="393" y="1546" on="1"/>
        <pt x="393" y="1566" on="0"/>
        <pt x="655" y="1828" on="0"/>
        <pt x="696" y="1828" on="1"/>
        <pt x="726" y="1828" on="1"/>
        <pt x="736" y="1826" on="0"/>
        <pt x="784" y="1826" on="0"/>
        <pt x="834" y="1796" on="1"/>
        <pt x="849" y="1787" on="0"/>
        <pt x="849" y="1772" on="1"/>
        <pt x="849" y="1736" on="0"/>
        <pt x="741" y="1660" on="1"/>
        <pt x="517" y="1503" on="0"/>
        <pt x="444" y="1503" on="1"/>
        <pt x="428" y="1503" on="1"/>
        <pt x="393" y="1503" on="0"/>
      </contour>
      <contour>
        <pt x="346" y="1202" on="1"/>
        <pt x="346" y="1233" on="0"/>
        <pt x="239" y="1315" on="0"/>
        <pt x="239" y="1341" on="1"/>
        <pt x="239" y="1395" on="0"/>
        <pt x="337" y="1395" on="1"/>
        <pt x="359" y="1394" on="1"/>
        <pt x="724" y="1395" on="1"/>
        <pt x="782" y="1395" on="0"/>
        <pt x="782" y="1365" on="1"/>
        <pt x="782" y="1324" on="0"/>
        <pt x="684" y="1264" on="1"/>
        <pt x="628" y="1229" on="0"/>
        <pt x="605" y="1137" on="1"/>
        <pt x="596" y="1100" on="0"/>
        <pt x="523" y="652" on="0"/>
        <pt x="456" y="292" on="0"/>
        <pt x="456" y="198" on="1"/>
        <pt x="456" y="162" on="0"/>
        <pt x="561" y="88" on="0"/>
        <pt x="561" y="58" on="1"/>
        <pt x="561" y="4" on="0"/>
        <pt x="488" y="4" on="1"/>
        <pt x="465" y="4" on="1"/>
        <pt x="443" y="5" on="1"/>
        <pt x="375" y="6" on="1"/>
        <pt x="271" y="6" on="1"/>
        <pt x="116" y="4" on="1"/>
        <pt x="71" y="4" on="1"/>
        <pt x="21" y="4" on="0"/>
        <pt x="21" y="33" on="1"/>
        <pt x="21" y="76" on="0"/>
        <pt x="120" y="137" on="1"/>
        <pt x="174" y="170" on="0"/>
        <pt x="212" y="315" on="0"/>
        <pt x="346" y="1139" on="0"/>
      </contour>
    </TTGlyph>
    <TTGlyph name="Icircumflex" xMin="24" yMin="1" xMax="851" yMax="1850">
      <contour>
        <pt x="596" y="1850" on="1"/>
        <pt x="603" y="1850" on="1"/>
        <pt x="642" y="1850" on="0"/>
        <pt x="710" y="1775" on="0"/>
        <pt x="851" y="1557" on="0"/>
        <pt x="851" y="1554" on="1"/>
        <pt x="851" y="1513" on="0"/>
        <pt x="743" y="1513" on="0"/>
        <pt x="581" y="1662" on="0"/>
        <pt x="551" y="1662" on="0"/>
        <pt x="327" y="1513" on="0"/>
        <pt x="228" y="1513" on="0"/>
        <pt x="228" y="1542" on="1"/>
        <pt x="228" y="1548" on="1"/>
        <pt x="228" y="1556" on="0"/>
        <pt x="250" y="1576" on="1"/>
        <pt x="340" y="1659" on="1"/>
        <pt x="447" y="1758" on="1"/>
        <pt x="465" y="1776" on="0"/>
        <pt x="478" y="1788" on="1"/>
        <pt x="496" y="1806" on="1"/>
        <pt x="540" y="1850" on="0"/>
      </contour>
      <contour>
        <pt x="350" y="1200" on="1"/>
        <pt x="350" y="1229" on="0"/>
        <pt x="243" y="1311" on="0"/>
        <pt x="243" y="1339" on="1"/>
        <pt x="243" y="1392" on="0"/>
        <pt x="318" y="1392" on="1"/>
        <pt x="385" y="1392" on="1"/>
        <pt x="407" y="1391" on="1"/>
        <pt x="705" y="1392" on="1"/>
        <pt x="728" y="1392" on="1"/>
        <pt x="785" y="1392" on="0"/>
        <pt x="785" y="1363" on="1"/>
        <pt x="785" y="1320" on="0"/>
        <pt x="688" y="1262" on="1"/>
        <pt x="635" y="1230" on="0"/>
        <pt x="588" y="1055" on="0"/>
        <pt x="459" y="247" on="0"/>
        <pt x="459" y="162" on="0"/>
        <pt x="564" y="82" on="0"/>
        <pt x="564" y="55" on="1"/>
        <pt x="564" y="9" on="0"/>
        <pt x="514" y="3" on="1"/>
        <pt x="401" y="3" on="1"/>
        <pt x="336" y="4" on="1"/>
        <pt x="275" y="4" on="1"/>
        <pt x="253" y="3" on="1"/>
        <pt x="210" y="3" on="1"/>
        <pt x="96" y="1" on="1"/>
        <pt x="24" y="1" on="0"/>
        <pt x="24" y="31" on="1"/>
        <pt x="24" y="74" on="0"/>
        <pt x="123" y="135" on="1"/>
        <pt x="180" y="170" on="0"/>
        <pt x="201" y="256" on="1"/>
        <pt x="203" y="263" on="0"/>
        <pt x="213" y="321" on="1"/>
        <pt x="217" y="344" on="1"/>
        <pt x="220" y="366" on="1"/>
        <pt x="228" y="411" on="1"/>
        <pt x="233" y="439" on="0"/>
        <pt x="247" y="527" on="0"/>
        <pt x="267" y="631" on="0"/>
        <pt x="301" y="842" on="0"/>
        <pt x="350" y="1105" on="0"/>
      </contour>
    </TTGlyph>
    <TTGlyph name="Idieresis" xMin="20" yMin="3" xMax="873" yMax="1794">
      <contour>
        <pt x="224" y="1637" on="1"/>
        <pt x="224" y="1654" on="1"/>
        <pt x="224" y="1700" on="0"/>
        <pt x="305" y="1794" on="0"/>
        <pt x="359" y="1794" on="1"/>
        <pt x="380" y="1794" on="1"/>
        <pt x="417" y="1794" on="0"/>
        <pt x="481" y="1730" on="0"/>
        <pt x="481" y="1702" on="1"/>
        <pt x="484" y="1677" on="1"/>
        <pt x="484" y="1673" on="1"/>
        <pt x="483" y="1669" on="1"/>
        <pt x="483" y="1623" on="0"/>
        <pt x="404" y="1529" on="0"/>
        <pt x="353" y="1529" on="1"/>
        <pt x="328" y="1529" on="1"/>
        <pt x="290" y="1529" on="0"/>
        <pt x="224" y="1595" on="0"/>
      </contour>
      <contour>
        <pt x="749" y="1794" on="1"/>
        <pt x="770" y="1794" on="1"/>
        <pt x="807" y="1794" on="0"/>
        <pt x="873" y="1728" on="0"/>
        <pt x="873" y="1690" on="1"/>
        <pt x="873" y="1664" on="1"/>
        <pt x="870" y="1652" on="0"/>
        <pt x="870" y="1644" on="1"/>
        <pt x="870" y="1613" on="0"/>
        <pt x="789" y="1532" on="0"/>
        <pt x="758" y="1532" on="1"/>
        <pt x="730" y="1528" on="1"/>
        <pt x="726" y="1528" on="1"/>
        <pt x="722" y="1529" on="1"/>
        <pt x="713" y="1529" on="1"/>
        <pt x="705" y="1531" on="0"/>
        <pt x="678" y="1531" on="0"/>
        <pt x="616" y="1593" on="0"/>
        <pt x="616" y="1621" on="1"/>
        <pt x="613" y="1645" on="1"/>
        <pt x="613" y="1650" on="1"/>
        <pt x="614" y="1654" on="1"/>
        <pt x="614" y="1691" on="0"/>
        <pt x="688" y="1794" on="0"/>
      </contour>
      <contour>
        <pt x="20" y="35" on="1"/>
        <pt x="20" y="81" on="0"/>
        <pt x="109" y="127" on="1"/>
        <pt x="171" y="159" on="0"/>
        <pt x="193" y="238" on="1"/>
        <pt x="206" y="284" on="0"/>
        <pt x="351" y="1154" on="0"/>
        <pt x="351" y="1218" on="1"/>
        <pt x="351" y="1242" on="0"/>
        <pt x="240" y="1303" on="0"/>
        <pt x="240" y="1354" on="1"/>
        <pt x="240" y="1394" on="0"/>
        <pt x="311" y="1394" on="1"/>
        <pt x="356" y="1394" on="1"/>
        <pt x="378" y="1393" on="1"/>
        <pt x="697" y="1394" on="1"/>
        <pt x="719" y="1394" on="1"/>
        <pt x="774" y="1394" on="0"/>
        <pt x="774" y="1362" on="1"/>
        <pt x="774" y="1317" on="0"/>
        <pt x="685" y="1273" on="1"/>
        <pt x="622" y="1242" on="0"/>
        <pt x="578" y="1078" on="0"/>
        <pt x="442" y="241" on="0"/>
        <pt x="442" y="179" on="1"/>
        <pt x="442" y="154" on="0"/>
        <pt x="551" y="93" on="0"/>
        <pt x="551" y="44" on="1"/>
        <pt x="551" y="11" on="0"/>
        <pt x="505" y="5" on="1"/>
        <pt x="202" y="5" on="1"/>
        <pt x="111" y="3" on="1"/>
        <pt x="66" y="3" on="1"/>
        <pt x="20" y="3" on="0"/>
      </contour>
    </TTGlyph>
    <TTGlyph name="Igrave" xMin="25" yMin="3" xMax="786" yMax="1829">
      <contour>
        <pt x="264" y="1757" on="1"/>
        <pt x="264" y="1772" on="1"/>
        <pt x="264" y="1787" on="0"/>
        <pt x="284" y="1798" on="1"/>
        <pt x="340" y="1829" on="0"/>
        <pt x="398" y="1829" on="1"/>
        <pt x="414" y="1829" on="1"/>
        <pt x="463" y="1829" on="0"/>
        <pt x="509" y="1777" on="1"/>
        <pt x="665" y="1601" on="0"/>
        <pt x="665" y="1550" on="1"/>
        <pt x="664" y="1546" on="1"/>
        <pt x="664" y="1541" on="1"/>
        <pt x="664" y="1505" on="0"/>
        <pt x="627" y="1505" on="1"/>
        <pt x="612" y="1505" on="1"/>
        <pt x="563" y="1505" on="0"/>
        <pt x="264" y="1714" on="0"/>
      </contour>
      <contour>
        <pt x="350" y="1202" on="1"/>
        <pt x="350" y="1235" on="0"/>
        <pt x="243" y="1310" on="0"/>
        <pt x="243" y="1341" on="1"/>
        <pt x="243" y="1394" on="0"/>
        <pt x="319" y="1394" on="1"/>
        <pt x="385" y="1394" on="1"/>
        <pt x="408" y="1393" on="1"/>
        <pt x="706" y="1394" on="1"/>
        <pt x="728" y="1394" on="1"/>
        <pt x="786" y="1394" on="0"/>
        <pt x="786" y="1365" on="1"/>
        <pt x="786" y="1322" on="0"/>
        <pt x="688" y="1264" on="1"/>
        <pt x="632" y="1231" on="0"/>
        <pt x="591" y="1062" on="0"/>
        <pt x="460" y="259" on="0"/>
        <pt x="460" y="198" on="1"/>
        <pt x="460" y="164" on="0"/>
        <pt x="565" y="84" on="0"/>
        <pt x="565" y="57" on="1"/>
        <pt x="565" y="11" on="0"/>
        <pt x="514" y="5" on="1"/>
        <pt x="401" y="5" on="1"/>
        <pt x="337" y="6" on="1"/>
        <pt x="275" y="6" on="1"/>
        <pt x="232" y="5" on="1"/>
        <pt x="187" y="5" on="1"/>
        <pt x="97" y="3" on="1"/>
        <pt x="25" y="3" on="0"/>
        <pt x="25" y="33" on="1"/>
        <pt x="25" y="76" on="0"/>
        <pt x="124" y="137" on="1"/>
        <pt x="180" y="171" on="0"/>
        <pt x="221" y="339" on="0"/>
        <pt x="350" y="1133" on="0"/>
      </contour>
    </TTGlyph>
    <TTGlyph name="J" xMin="-52" yMin="-222" xMax="880" yMax="1358">
      <contour>
        <pt x="492" y="1088" on="0"/>
        <pt x="492" y="1180" on="0"/>
        <pt x="459" y="1219" on="1"/>
        <pt x="449" y="1230" on="0"/>
        <pt x="347" y="1286" on="0"/>
        <pt x="347" y="1295" on="1"/>
        <pt x="347" y="1337" on="0"/>
        <pt x="425" y="1354" on="1"/>
        <pt x="439" y="1357" on="0"/>
        <pt x="636" y="1357" on="1"/>
        <pt x="761" y="1358" on="1"/>
        <pt x="787" y="1358" on="1"/>
        <pt x="880" y="1358" on="0"/>
        <pt x="880" y="1321" on="1"/>
        <pt x="880" y="1304" on="0"/>
        <pt x="833" y="1236" on="0"/>
        <pt x="755" y="1088" on="0"/>
        <pt x="727" y="1003" on="0"/>
        <pt x="578" y="194" on="0"/>
        <pt x="460" y="-38" on="0"/>
        <pt x="197" y="-222" on="0"/>
        <pt x="74" y="-222" on="1"/>
        <pt x="55" y="-222" on="1"/>
        <pt x="-1" y="-222" on="0"/>
        <pt x="-52" y="-177" on="0"/>
        <pt x="-52" y="-150" on="1"/>
        <pt x="-52" y="-95" on="0"/>
        <pt x="45" y="-12" on="0"/>
        <pt x="179" y="27" on="0"/>
        <pt x="206" y="52" on="1"/>
        <pt x="344" y="182" on="0"/>
        <pt x="436" y="744" on="1"/>
      </contour>
    </TTGlyph>
    <TTGlyph name="K" xMin="64" yMin="-3" xMax="1414" yMax="1345">
      <contour>
        <pt x="1021" y="1298" on="1"/>
        <pt x="1021" y="1342" on="0"/>
        <pt x="1284" y="1342" on="0"/>
        <pt x="1414" y="1316" on="0"/>
        <pt x="1414" y="1276" on="1"/>
        <pt x="1414" y="1251" on="0"/>
        <pt x="1210" y="1142" on="0"/>
        <pt x="1088" y="1042" on="0"/>
        <pt x="912" y="880" on="1"/>
        <pt x="812" y="788" on="0"/>
        <pt x="812" y="676" on="0"/>
        <pt x="1104" y="261" on="1"/>
        <pt x="1149" y="197" on="0"/>
        <pt x="1311" y="130" on="0"/>
        <pt x="1311" y="72" on="1"/>
        <pt x="1311" y="45" on="0"/>
        <pt x="1178" y="-3" on="0"/>
        <pt x="1046" y="-3" on="1"/>
        <pt x="971" y="-2" on="0"/>
        <pt x="918" y="120" on="1"/>
        <pt x="897" y="168" on="0"/>
        <pt x="789" y="345" on="0"/>
        <pt x="718" y="468" on="0"/>
        <pt x="696" y="502" on="1"/>
        <pt x="673" y="535" on="1"/>
        <pt x="625" y="587" on="0"/>
        <pt x="570" y="587" on="1"/>
        <pt x="558" y="587" on="0"/>
        <pt x="534" y="542" on="1"/>
        <pt x="465" y="413" on="0"/>
        <pt x="465" y="272" on="1"/>
        <pt x="465" y="243" on="0"/>
        <pt x="533" y="134" on="0"/>
        <pt x="533" y="94" on="1"/>
        <pt x="533" y="35" on="0"/>
        <pt x="438" y="7" on="1"/>
        <pt x="411" y="-1" on="0"/>
        <pt x="64" y="-1" on="0"/>
        <pt x="64" y="41" on="1"/>
        <pt x="64" y="68" on="0"/>
        <pt x="201" y="164" on="0"/>
        <pt x="221" y="218" on="1"/>
        <pt x="230" y="242" on="0"/>
        <pt x="293" y="641" on="1"/>
        <pt x="307" y="731" on="1"/>
        <pt x="324" y="837" on="0"/>
        <pt x="336" y="912" on="0"/>
        <pt x="343" y="955" on="1"/>
        <pt x="350" y="998" on="1"/>
        <pt x="359" y="1055" on="0"/>
        <pt x="363" y="1083" on="1"/>
        <pt x="369" y="1124" on="1"/>
        <pt x="369" y="1180" on="0"/>
        <pt x="332" y="1206" on="1"/>
        <pt x="249" y="1265" on="0"/>
        <pt x="249" y="1301" on="1"/>
        <pt x="271" y="1321" on="1"/>
        <pt x="308" y="1345" on="0"/>
        <pt x="339" y="1345" on="1"/>
        <pt x="382" y="1345" on="1"/>
        <pt x="426" y="1344" on="1"/>
        <pt x="644" y="1345" on="1"/>
        <pt x="688" y="1345" on="1"/>
        <pt x="738" y="1345" on="0"/>
        <pt x="738" y="1291" on="1"/>
        <pt x="738" y="1272" on="0"/>
        <pt x="646" y="1193" on="0"/>
        <pt x="637" y="1174" on="1"/>
        <pt x="551" y="989" on="0"/>
        <pt x="551" y="808" on="1"/>
        <pt x="551" y="771" on="0"/>
        <pt x="566" y="771" on="1"/>
        <pt x="641" y="771" on="0"/>
        <pt x="1005" y="1141" on="1"/>
        <pt x="1040" y="1177" on="0"/>
        <pt x="1040" y="1217" on="1"/>
        <pt x="1033" y="1240" on="1"/>
        <pt x="1021" y="1279" on="0"/>
      </contour>
    </TTGlyph>
    <TTGlyph name="L" xMin="45" yMin="-3" xMax="1132" yMax="1360">
      <contour>
        <pt x="638" y="136" on="1"/>
        <pt x="774" y="136" on="0"/>
        <pt x="913" y="216" on="0"/>
        <pt x="1053" y="385" on="0"/>
        <pt x="1107" y="385" on="1"/>
        <pt x="1132" y="385" on="0"/>
        <pt x="1132" y="311" on="0"/>
        <pt x="1061" y="57" on="0"/>
        <pt x="1052" y="44" on="1"/>
        <pt x="1020" y="-3" on="0"/>
        <pt x="889" y="-3" on="1"/>
        <pt x="773" y="-3" on="1"/>
        <pt x="743" y="-2" on="1"/>
        <pt x="622" y="-2" on="1"/>
        <pt x="561" y="-1" on="1"/>
        <pt x="471" y="-1" on="1"/>
        <pt x="389" y="0" on="1"/>
        <pt x="305" y="0" on="1"/>
        <pt x="274" y="-1" on="1"/>
        <pt x="212" y="-1" on="1"/>
        <pt x="98" y="-3" on="1"/>
        <pt x="45" y="-3" on="0"/>
        <pt x="45" y="48" on="1"/>
        <pt x="45" y="66" on="0"/>
        <pt x="133" y="128" on="1"/>
        <pt x="184" y="164" on="0"/>
        <pt x="214" y="249" on="1"/>
        <pt x="224" y="277" on="0"/>
        <pt x="369" y="1104" on="0"/>
        <pt x="369" y="1187" on="0"/>
        <pt x="261" y="1267" on="0"/>
        <pt x="261" y="1360" on="0"/>
        <pt x="357" y="1360" on="1"/>
        <pt x="386" y="1359" on="1"/>
        <pt x="558" y="1358" on="1"/>
        <pt x="800" y="1358" on="0"/>
        <pt x="800" y="1320" on="1"/>
        <pt x="800" y="1297" on="0"/>
        <pt x="701" y="1228" on="1"/>
        <pt x="646" y="1190" on="0"/>
        <pt x="615" y="1102" on="1"/>
        <pt x="602" y="1065" on="0"/>
        <pt x="558" y="810" on="1"/>
        <pt x="538" y="694" on="1"/>
        <pt x="530" y="645" on="0"/>
        <pt x="518" y="585" on="0"/>
        <pt x="465" y="283" on="0"/>
        <pt x="464" y="273" on="1"/>
        <pt x="462" y="252" on="0"/>
        <pt x="462" y="235" on="1"/>
        <pt x="462" y="186" on="0"/>
        <pt x="478" y="165" on="1"/>
        <pt x="500" y="136" on="0"/>
      </contour>
    </TTGlyph>
    <TTGlyph name="Lslash" xMin="30" yMin="-6" xMax="1082" yMax="1363">
      <contour>
        <pt x="30" y="18" on="1"/>
        <pt x="30" y="62" on="0"/>
        <pt x="73" y="83" on="1"/>
        <pt x="158" y="124" on="0"/>
        <pt x="171" y="150" on="1"/>
        <pt x="222" y="250" on="0"/>
        <pt x="222" y="438" on="1"/>
        <pt x="222" y="453" on="0"/>
        <pt x="201" y="453" on="1"/>
        <pt x="157" y="447" on="1"/>
        <pt x="112" y="447" on="0"/>
        <pt x="112" y="471" on="1"/>
        <pt x="112" y="513" on="0"/>
        <pt x="242" y="693" on="0"/>
        <pt x="249" y="714" on="0"/>
        <pt x="257" y="839" on="0"/>
        <pt x="338" y="1113" on="0"/>
        <pt x="338" y="1180" on="1"/>
        <pt x="338" y="1220" on="0"/>
        <pt x="239" y="1269" on="0"/>
        <pt x="239" y="1292" on="1"/>
        <pt x="239" y="1361" on="0"/>
        <pt x="477" y="1361" on="1"/>
        <pt x="541" y="1363" on="1"/>
        <pt x="574" y="1363" on="1"/>
        <pt x="707" y="1363" on="0"/>
        <pt x="707" y="1314" on="1"/>
        <pt x="707" y="1294" on="0"/>
        <pt x="651" y="1220" on="1"/>
        <pt x="547" y="1084" on="0"/>
        <pt x="547" y="907" on="1"/>
        <pt x="547" y="836" on="0"/>
        <pt x="575" y="836" on="1"/>
        <pt x="587" y="836" on="0"/>
        <pt x="623" y="852" on="1"/>
        <pt x="651" y="867" on="1"/>
        <pt x="688" y="885" on="0"/>
        <pt x="790" y="918" on="0"/>
        <pt x="821" y="918" on="0"/>
        <pt x="821" y="862" on="0"/>
        <pt x="536" y="608" on="0"/>
        <pt x="509" y="567" on="1"/>
        <pt x="455" y="483" on="0"/>
        <pt x="455" y="223" on="1"/>
        <pt x="455" y="125" on="0"/>
        <pt x="603" y="125" on="1"/>
        <pt x="712" y="125" on="0"/>
        <pt x="790" y="159" on="1"/>
        <pt x="818" y="171" on="0"/>
        <pt x="1034" y="328" on="0"/>
        <pt x="1045" y="328" on="1"/>
        <pt x="1082" y="328" on="0"/>
        <pt x="1082" y="247" on="0"/>
        <pt x="1019" y="48" on="0"/>
        <pt x="975" y="-6" on="0"/>
        <pt x="873" y="-6" on="1"/>
        <pt x="808" y="-6" on="1"/>
        <pt x="775" y="-5" on="1"/>
        <pt x="709" y="-5" on="1"/>
        <pt x="332" y="-1" on="1"/>
        <pt x="272" y="-1" on="1"/>
        <pt x="172" y="-3" on="1"/>
        <pt x="138" y="-4" on="1"/>
        <pt x="73" y="-5" on="1"/>
        <pt x="30" y="-5" on="0"/>
      </contour>
    </TTGlyph>
    <TTGlyph name="M" xMin="50" yMin="-1" xMax="1853" yMax="1356">
      <contour>
        <pt x="1529" y="-1" on="1"/>
        <pt x="1414" y="-1" on="1"/>
        <pt x="1211" y="-1" on="0"/>
        <pt x="1211" y="36" on="1"/>
        <pt x="1211" y="63" on="0"/>
        <pt x="1247" y="106" on="1"/>
        <pt x="1309" y="182" on="1"/>
        <pt x="1351" y="249" on="0"/>
        <pt x="1389" y="436" on="0"/>
        <pt x="1454" y="927" on="0"/>
        <pt x="1454" y="953" on="1"/>
        <pt x="1451" y="979" on="1"/>
        <pt x="1417" y="948" on="1"/>
        <pt x="1389" y="905" on="1"/>
        <pt x="1349" y="843" on="0"/>
        <pt x="1300" y="760" on="1"/>
        <pt x="1210" y="609" on="1"/>
        <pt x="956" y="186" on="0"/>
        <pt x="936" y="159" on="1"/>
        <pt x="884" y="90" on="0"/>
        <pt x="817" y="90" on="1"/>
        <pt x="788" y="90" on="0"/>
        <pt x="757" y="154" on="1"/>
        <pt x="740" y="206" on="1"/>
        <pt x="725" y="261" on="1"/>
        <pt x="713" y="307" on="0"/>
        <pt x="695" y="371" on="1"/>
        <pt x="665" y="483" on="1"/>
        <pt x="543" y="940" on="0"/>
        <pt x="499" y="940" on="1"/>
        <pt x="486" y="903" on="1"/>
        <pt x="479" y="877" on="0"/>
        <pt x="381" y="398" on="0"/>
        <pt x="381" y="199" on="0"/>
        <pt x="393" y="164" on="1"/>
        <pt x="423" y="76" on="0"/>
        <pt x="423" y="60" on="1"/>
        <pt x="417" y="33" on="1"/>
        <pt x="390" y="-1" on="0"/>
        <pt x="154" y="-1" on="0"/>
        <pt x="50" y="20" on="0"/>
        <pt x="50" y="60" on="1"/>
        <pt x="50" y="81" on="0"/>
        <pt x="184" y="219" on="0"/>
        <pt x="222" y="344" on="0"/>
        <pt x="356" y="1041" on="0"/>
        <pt x="356" y="1118" on="0"/>
        <pt x="340" y="1168" on="1"/>
        <pt x="326" y="1209" on="1"/>
        <pt x="294" y="1285" on="1"/>
        <pt x="294" y="1317" on="0"/>
        <pt x="314" y="1329" on="1"/>
        <pt x="360" y="1356" on="0"/>
        <pt x="392" y="1356" on="1"/>
        <pt x="449" y="1356" on="1"/>
        <pt x="534" y="1356" on="0"/>
        <pt x="670" y="1287" on="0"/>
        <pt x="709" y="1229" on="1"/>
        <pt x="721" y="1211" on="0"/>
        <pt x="819" y="855" on="1"/>
        <pt x="910" y="510" on="1"/>
        <pt x="929" y="469" on="1"/>
        <pt x="964" y="469" on="0"/>
        <pt x="1397" y="1200" on="0"/>
        <pt x="1440" y="1246" on="1"/>
        <pt x="1542" y="1354" on="0"/>
        <pt x="1811" y="1354" on="0"/>
        <pt x="1843" y="1321" on="1"/>
        <pt x="1853" y="1297" on="1"/>
        <pt x="1853" y="1281" on="0"/>
        <pt x="1752" y="1214" on="0"/>
        <pt x="1735" y="1163" on="1"/>
        <pt x="1705" y="1070" on="0"/>
        <pt x="1601" y="297" on="0"/>
        <pt x="1601" y="225" on="0"/>
        <pt x="1621" y="161" on="1"/>
        <pt x="1636" y="121" on="1"/>
        <pt x="1656" y="93" on="1"/>
        <pt x="1675" y="71" on="1"/>
        <pt x="1675" y="-1" on="0"/>
      </contour>
    </TTGlyph>
    <TTGlyph name="N" xMin="49" yMin="-16" xMax="1594" yMax="1359">
      <contour>
        <pt x="268" y="1249" on="0"/>
        <pt x="268" y="1328" on="0"/>
        <pt x="288" y="1339" on="1"/>
        <pt x="326" y="1359" on="0"/>
        <pt x="489" y="1359" on="0"/>
        <pt x="640" y="1274" on="0"/>
        <pt x="697" y="1204" on="1"/>
        <pt x="711" y="1186" on="0"/>
        <pt x="1134" y="410" on="0"/>
        <pt x="1145" y="410" on="1"/>
        <pt x="1157" y="428" on="1"/>
        <pt x="1166" y="450" on="0"/>
        <pt x="1262" y="997" on="0"/>
        <pt x="1262" y="1138" on="1"/>
        <pt x="1262" y="1172" on="0"/>
        <pt x="1241" y="1207" on="1"/>
        <pt x="1218" y="1232" on="1"/>
        <pt x="1190" y="1265" on="0"/>
        <pt x="1190" y="1277" on="1"/>
        <pt x="1190" y="1318" on="0"/>
        <pt x="1270" y="1359" on="0"/>
        <pt x="1418" y="1359" on="1"/>
        <pt x="1512" y="1359" on="1"/>
        <pt x="1594" y="1359" on="0"/>
        <pt x="1594" y="1283" on="0"/>
        <pt x="1543" y="1238" on="1"/>
        <pt x="1450" y="1156" on="0"/>
        <pt x="1429" y="1103" on="0"/>
        <pt x="1234" y="-16" on="0"/>
        <pt x="1202" y="-16" on="1"/>
        <pt x="1112" y="-16" on="0"/>
        <pt x="1034" y="94" on="1"/>
        <pt x="1004" y="136" on="0"/>
        <pt x="542" y="996" on="0"/>
        <pt x="531" y="996" on="1"/>
        <pt x="510" y="996" on="0"/>
        <pt x="498" y="959" on="0"/>
        <pt x="385" y="318" on="0"/>
        <pt x="385" y="217" on="1"/>
        <pt x="385" y="175" on="0"/>
        <pt x="469" y="72" on="0"/>
        <pt x="469" y="48" on="1"/>
        <pt x="469" y="14" on="0"/>
        <pt x="405" y="2" on="1"/>
        <pt x="389" y="-1" on="0"/>
        <pt x="49" y="-1" on="0"/>
        <pt x="49" y="36" on="1"/>
        <pt x="49" y="92" on="0"/>
        <pt x="95" y="124" on="1"/>
        <pt x="198" y="196" on="0"/>
        <pt x="221" y="256" on="0"/>
        <pt x="364" y="1070" on="0"/>
        <pt x="364" y="1177" on="0"/>
      </contour>
    </TTGlyph>
    <TTGlyph name="Nacute" xMin="16" yMin="-3" xMax="1533" yMax="1777">
      <contour>
        <pt x="782" y="1453" on="1"/>
        <pt x="774" y="1453" on="1"/>
        <pt x="740" y="1453" on="0"/>
        <pt x="740" y="1499" on="1"/>
        <pt x="740" y="1513" on="0"/>
        <pt x="1037" y="1777" on="0"/>
        <pt x="1071" y="1777" on="1"/>
        <pt x="1077" y="1777" on="1"/>
        <pt x="1132" y="1777" on="0"/>
        <pt x="1210" y="1722" on="0"/>
        <pt x="1210" y="1707" on="1"/>
        <pt x="1210" y="1691" on="1"/>
        <pt x="1208" y="1681" on="0"/>
        <pt x="1208" y="1677" on="1"/>
        <pt x="1208" y="1665" on="0"/>
        <pt x="1119" y="1616" on="1"/>
        <pt x="820" y="1453" on="0"/>
      </contour>
      <contour>
        <pt x="1469" y="1362" on="1"/>
        <pt x="1533" y="1362" on="0"/>
        <pt x="1533" y="1331" on="1"/>
        <pt x="1533" y="1312" on="0"/>
        <pt x="1409" y="1231" on="0"/>
        <pt x="1369" y="1099" on="0"/>
        <pt x="1184" y="51" on="0"/>
        <pt x="1179" y="35" on="1"/>
        <pt x="1167" y="-3" on="0"/>
        <pt x="1131" y="-3" on="1"/>
        <pt x="1054" y="-3" on="0"/>
        <pt x="974" y="125" on="1"/>
        <pt x="957" y="153" on="0"/>
        <pt x="838" y="369" on="1"/>
        <pt x="708" y="608" on="1"/>
        <pt x="481" y="1019" on="0"/>
        <pt x="454" y="1019" on="0"/>
        <pt x="442" y="979" on="1"/>
        <pt x="386" y="670" on="1"/>
        <pt x="308" y="241" on="0"/>
        <pt x="308" y="219" on="1"/>
        <pt x="308" y="163" on="0"/>
        <pt x="404" y="71" on="0"/>
        <pt x="404" y="42" on="1"/>
        <pt x="404" y="6" on="0"/>
        <pt x="146" y="6" on="1"/>
        <pt x="16" y="6" on="0"/>
        <pt x="16" y="37" on="1"/>
        <pt x="16" y="55" on="0"/>
        <pt x="149" y="171" on="0"/>
        <pt x="171" y="240" on="1"/>
        <pt x="179" y="266" on="0"/>
        <pt x="328" y="1075" on="0"/>
        <pt x="328" y="1165" on="1"/>
        <pt x="328" y="1201" on="0"/>
        <pt x="239" y="1309" on="0"/>
        <pt x="239" y="1316" on="1"/>
        <pt x="239" y="1362" on="0"/>
        <pt x="457" y="1362" on="0"/>
        <pt x="506" y="1335" on="1"/>
        <pt x="604" y="1281" on="0"/>
        <pt x="659" y="1209" on="1"/>
        <pt x="766" y="1008" on="1"/>
        <pt x="824" y="899" on="0"/>
        <pt x="873" y="811" on="1"/>
        <pt x="1100" y="405" on="1"/>
        <pt x="1121" y="405" on="0"/>
        <pt x="1239" y="1060" on="0"/>
        <pt x="1239" y="1164" on="0"/>
        <pt x="1217" y="1196" on="1"/>
        <pt x="1166" y="1271" on="0"/>
        <pt x="1166" y="1274" on="1"/>
        <pt x="1166" y="1323" on="0"/>
        <pt x="1255" y="1346" on="1"/>
        <pt x="1316" y="1362" on="0"/>
      </contour>
    </TTGlyph>
    <TTGlyph name="Ntilde" xMin="20" yMin="-8" xMax="1607" yMax="1789">
      <contour>
        <pt x="814" y="1789" on="1"/>
        <pt x="841" y="1789" on="1"/>
        <pt x="901" y="1789" on="0"/>
        <pt x="1050" y="1684" on="0"/>
        <pt x="1156" y="1684" on="0"/>
        <pt x="1250" y="1771" on="0"/>
        <pt x="1317" y="1771" on="0"/>
        <pt x="1317" y="1739" on="1"/>
        <pt x="1317" y="1730" on="1"/>
        <pt x="1317" y="1675" on="0"/>
        <pt x="1216" y="1581" on="1"/>
        <pt x="1147" y="1517" on="0"/>
        <pt x="1076" y="1517" on="1"/>
        <pt x="1049" y="1517" on="1"/>
        <pt x="998" y="1517" on="0"/>
        <pt x="835" y="1623" on="0"/>
        <pt x="740" y="1623" on="0"/>
        <pt x="625" y="1533" on="0"/>
        <pt x="616" y="1533" on="1"/>
        <pt x="571" y="1533" on="0"/>
        <pt x="571" y="1567" on="1"/>
        <pt x="571" y="1576" on="1"/>
        <pt x="571" y="1628" on="0"/>
        <pt x="744" y="1789" on="0"/>
      </contour>
      <contour>
        <pt x="341" y="1097" on="0"/>
        <pt x="341" y="1208" on="0"/>
        <pt x="245" y="1291" on="0"/>
        <pt x="245" y="1338" on="1"/>
        <pt x="245" y="1393" on="0"/>
        <pt x="392" y="1393" on="1"/>
        <pt x="468" y="1393" on="0"/>
        <pt x="652" y="1289" on="0"/>
        <pt x="689" y="1237" on="1"/>
        <pt x="713" y="1196" on="1"/>
        <pt x="726" y="1174" on="0"/>
        <pt x="760" y="1113" on="1"/>
        <pt x="922" y="828" on="1"/>
        <pt x="1146" y="435" on="0"/>
        <pt x="1154" y="435" on="1"/>
        <pt x="1165" y="460" on="1"/>
        <pt x="1179" y="507" on="0"/>
        <pt x="1257" y="995" on="0"/>
        <pt x="1257" y="1092" on="1"/>
        <pt x="1261" y="1179" on="1"/>
        <pt x="1261" y="1222" on="0"/>
        <pt x="1199" y="1316" on="0"/>
        <pt x="1199" y="1317" on="1"/>
        <pt x="1199" y="1353" on="0"/>
        <pt x="1300" y="1394" on="0"/>
        <pt x="1450" y="1394" on="1"/>
        <pt x="1497" y="1394" on="1"/>
        <pt x="1607" y="1394" on="0"/>
        <pt x="1607" y="1340" on="1"/>
        <pt x="1607" y="1322" on="0"/>
        <pt x="1449" y="1186" on="0"/>
        <pt x="1437" y="1141" on="1"/>
        <pt x="1364" y="721" on="1"/>
        <pt x="1352" y="644" on="0"/>
        <pt x="1293" y="307" on="0"/>
        <pt x="1262" y="130" on="1"/>
        <pt x="1254" y="83" on="1"/>
        <pt x="1232" y="-8" on="0"/>
        <pt x="1197" y="-8" on="1"/>
        <pt x="1171" y="-8" on="0"/>
        <pt x="1129" y="22" on="1"/>
        <pt x="1061" y="70" on="0"/>
        <pt x="985" y="193" on="1"/>
        <pt x="869" y="398" on="1"/>
        <pt x="524" y="1005" on="0"/>
        <pt x="510" y="1005" on="1"/>
        <pt x="488" y="1005" on="0"/>
        <pt x="471" y="959" on="0"/>
        <pt x="366" y="314" on="0"/>
        <pt x="366" y="181" on="1"/>
        <pt x="366" y="155" on="0"/>
        <pt x="442" y="76" on="0"/>
        <pt x="442" y="54" on="1"/>
        <pt x="442" y="14" on="0"/>
        <pt x="368" y="5" on="1"/>
        <pt x="351" y="3" on="0"/>
        <pt x="20" y="3" on="0"/>
        <pt x="20" y="50" on="1"/>
        <pt x="20" y="104" on="0"/>
        <pt x="176" y="180" on="0"/>
        <pt x="194" y="251" on="1"/>
        <pt x="220" y="354" on="0"/>
      </contour>
    </TTGlyph>
    <TTGlyph name="O" xMin="105" yMin="-32" xMax="1443" yMax="1376">
      <contour>
        <pt x="1186" y="776" on="1"/>
        <pt x="1186" y="837" on="1"/>
        <pt x="1186" y="1017" on="0"/>
        <pt x="1085" y="1139" on="1"/>
        <pt x="1003" y="1238" on="0"/>
        <pt x="868" y="1238" on="1"/>
        <pt x="852" y="1238" on="1"/>
        <pt x="752" y="1238" on="0"/>
        <pt x="666" y="1184" on="1"/>
        <pt x="490" y="1073" on="0"/>
        <pt x="406" y="822" on="1"/>
        <pt x="362" y="690" on="0"/>
        <pt x="362" y="574" on="1"/>
        <pt x="362" y="526" on="1"/>
        <pt x="362" y="341" on="0"/>
        <pt x="544" y="107" on="0"/>
        <pt x="696" y="107" on="1"/>
        <pt x="698" y="107" on="0"/>
        <pt x="699" y="107" on="1"/>
        <pt x="788" y="107" on="0"/>
        <pt x="874" y="158" on="1"/>
        <pt x="1048" y="261" on="0"/>
        <pt x="1141" y="528" on="1"/>
        <pt x="1186" y="659" on="0"/>
      </contour>
      <contour>
        <pt x="874" y="1376" on="1"/>
        <pt x="919" y="1376" on="1"/>
        <pt x="1016" y="1376" on="0"/>
        <pt x="1217" y="1299" on="0"/>
        <pt x="1358" y="1152" on="0"/>
        <pt x="1443" y="948" on="0"/>
        <pt x="1443" y="831" on="1"/>
        <pt x="1443" y="787" on="1"/>
        <pt x="1443" y="634" on="0"/>
        <pt x="1308" y="317" on="0"/>
        <pt x="1088" y="89" on="0"/>
        <pt x="810" y="-32" on="0"/>
        <pt x="674" y="-32" on="1"/>
        <pt x="629" y="-32" on="1"/>
        <pt x="412" y="-32" on="0"/>
        <pt x="259" y="121" on="1"/>
        <pt x="191" y="189" on="0"/>
        <pt x="105" y="396" on="0"/>
        <pt x="105" y="513" on="1"/>
        <pt x="105" y="557" on="1"/>
        <pt x="105" y="559" on="0"/>
        <pt x="105" y="562" on="1"/>
        <pt x="105" y="716" on="0"/>
        <pt x="170" y="867" on="1"/>
        <pt x="300" y="1172" on="0"/>
        <pt x="580" y="1307" on="1"/>
        <pt x="722" y="1376" on="0"/>
      </contour>
    </TTGlyph>
    <TTGlyph name="OE" xMin="76" yMin="-23" xMax="1806" yMax="1346">
      <contour>
        <pt x="325" y="549" on="1"/>
        <pt x="325" y="487" on="1"/>
        <pt x="325" y="327" on="0"/>
        <pt x="399" y="216" on="1"/>
        <pt x="433" y="165" on="0"/>
        <pt x="545" y="98" on="0"/>
        <pt x="615" y="98" on="1"/>
        <pt x="662" y="98" on="1"/>
        <pt x="817" y="98" on="0"/>
        <pt x="854" y="196" on="1"/>
        <pt x="862" y="218" on="0"/>
        <pt x="1018" y="971" on="0"/>
        <pt x="1018" y="1100" on="1"/>
        <pt x="1018" y="1115" on="1"/>
        <pt x="1018" y="1171" on="0"/>
        <pt x="907" y="1226" on="0"/>
        <pt x="817" y="1226" on="1"/>
        <pt x="801" y="1226" on="1"/>
        <pt x="612" y="1226" on="0"/>
        <pt x="487" y="1051" on="1"/>
        <pt x="411" y="945" on="0"/>
        <pt x="325" y="668" on="0"/>
      </contour>
      <contour>
        <pt x="76" y="504" on="1"/>
        <pt x="76" y="548" on="1"/>
        <pt x="76" y="683" on="0"/>
        <pt x="134" y="832" on="1"/>
        <pt x="254" y="1144" on="0"/>
        <pt x="532" y="1277" on="1"/>
        <pt x="676" y="1346" on="0"/>
        <pt x="818" y="1346" on="1"/>
        <pt x="861" y="1346" on="1"/>
        <pt x="920" y="1346" on="0"/>
        <pt x="1193" y="1314" on="0"/>
        <pt x="1241" y="1314" on="1"/>
        <pt x="1361" y="1326" on="1"/>
        <pt x="1486" y="1327" on="1"/>
        <pt x="1671" y="1327" on="0"/>
        <pt x="1752" y="1291" on="1"/>
        <pt x="1806" y="1267" on="0"/>
        <pt x="1806" y="1150" on="1"/>
        <pt x="1806" y="1099" on="0"/>
        <pt x="1759" y="1034" on="0"/>
        <pt x="1712" y="1034" on="0"/>
        <pt x="1638" y="1161" on="0"/>
        <pt x="1602" y="1173" on="1"/>
        <pt x="1536" y="1196" on="0"/>
        <pt x="1405" y="1196" on="1"/>
        <pt x="1335" y="1196" on="0"/>
        <pt x="1298" y="1129" on="1"/>
        <pt x="1224" y="995" on="0"/>
        <pt x="1224" y="829" on="1"/>
        <pt x="1236" y="802" on="1"/>
        <pt x="1260" y="769" on="0"/>
        <pt x="1300" y="769" on="1"/>
        <pt x="1378" y="769" on="0"/>
        <pt x="1510" y="839" on="0"/>
        <pt x="1520" y="839" on="1"/>
        <pt x="1571" y="839" on="0"/>
        <pt x="1571" y="782" on="1"/>
        <pt x="1571" y="656" on="0"/>
        <pt x="1523" y="553" on="1"/>
        <pt x="1504" y="513" on="0"/>
        <pt x="1460" y="513" on="0"/>
        <pt x="1340" y="605" on="0"/>
        <pt x="1307" y="605" on="1"/>
        <pt x="1206" y="605" on="0"/>
        <pt x="1175" y="537" on="1"/>
        <pt x="1115" y="407" on="0"/>
        <pt x="1115" y="256" on="1"/>
        <pt x="1115" y="173" on="0"/>
        <pt x="1205" y="122" on="0"/>
        <pt x="1395" y="122" on="0"/>
        <pt x="1466" y="163" on="1"/>
        <pt x="1499" y="182" on="0"/>
        <pt x="1627" y="315" on="0"/>
        <pt x="1652" y="315" on="1"/>
        <pt x="1685" y="315" on="0"/>
        <pt x="1685" y="268" on="1"/>
        <pt x="1685" y="90" on="0"/>
        <pt x="1485" y="-5" on="0"/>
        <pt x="1141" y="-5" on="1"/>
        <pt x="1051" y="-5" on="0"/>
        <pt x="1015" y="-2" on="1"/>
        <pt x="905" y="9" on="1"/>
        <pt x="890" y="9" on="0"/>
        <pt x="676" y="-23" on="0"/>
        <pt x="609" y="-23" on="1"/>
        <pt x="565" y="-23" on="1"/>
        <pt x="456" y="-23" on="0"/>
        <pt x="368" y="17" on="1"/>
        <pt x="182" y="101" on="0"/>
        <pt x="112" y="292" on="1"/>
        <pt x="76" y="389" on="0"/>
      </contour>
    </TTGlyph>
    <TTGlyph name="Oacute" xMin="107" yMin="-11" xMax="1482" yMax="1837">
      <contour>
        <pt x="380" y="609" on="1"/>
        <pt x="380" y="576" on="1"/>
        <pt x="381" y="560" on="1"/>
        <pt x="381" y="368" on="0"/>
        <pt x="484" y="238" on="1"/>
        <pt x="570" y="130" on="0"/>
        <pt x="718" y="130" on="1"/>
        <pt x="908" y="130" on="0"/>
        <pt x="1053" y="332" on="1"/>
        <pt x="1128" y="436" on="0"/>
        <pt x="1210" y="708" on="0"/>
        <pt x="1210" y="829" on="1"/>
        <pt x="1210" y="845" on="1"/>
        <pt x="1210" y="1041" on="0"/>
        <pt x="1036" y="1287" on="0"/>
        <pt x="889" y="1287" on="1"/>
        <pt x="873" y="1287" on="1"/>
        <pt x="679" y="1287" on="0"/>
        <pt x="543" y="1101" on="1"/>
        <pt x="467" y="998" on="0"/>
        <pt x="380" y="727" on="0"/>
      </contour>
      <contour>
        <pt x="843" y="1512" on="1"/>
        <pt x="827" y="1512" on="1"/>
        <pt x="792" y="1512" on="0"/>
        <pt x="792" y="1550" on="1"/>
        <pt x="792" y="1555" on="1"/>
        <pt x="792" y="1558" on="0"/>
        <pt x="1040" y="1837" on="0"/>
        <pt x="1095" y="1837" on="1"/>
        <pt x="1125" y="1837" on="1"/>
        <pt x="1135" y="1835" on="0"/>
        <pt x="1183" y="1835" on="0"/>
        <pt x="1233" y="1805" on="1"/>
        <pt x="1248" y="1796" on="0"/>
        <pt x="1248" y="1781" on="1"/>
        <pt x="1248" y="1776" on="1"/>
        <pt x="1248" y="1745" on="0"/>
        <pt x="1140" y="1669" on="1"/>
        <pt x="916" y="1512" on="0"/>
      </contour>
      <contour>
        <pt x="892" y="1426" on="1"/>
        <pt x="939" y="1426" on="1"/>
        <pt x="1052" y="1426" on="0"/>
        <pt x="1156" y="1382" on="1"/>
        <pt x="1360" y="1295" on="0"/>
        <pt x="1438" y="1091" on="1"/>
        <pt x="1482" y="978" on="0"/>
        <pt x="1482" y="873" on="1"/>
        <pt x="1482" y="829" on="1"/>
        <pt x="1482" y="669" on="0"/>
        <pt x="1414" y="504" on="1"/>
        <pt x="1278" y="176" on="0"/>
        <pt x="957" y="43" on="1"/>
        <pt x="828" y="-11" on="0"/>
        <pt x="696" y="-11" on="1"/>
        <pt x="426" y="-11" on="0"/>
        <pt x="107" y="308" on="0"/>
        <pt x="107" y="566" on="1"/>
        <pt x="107" y="569" on="0"/>
        <pt x="107" y="572" on="1"/>
        <pt x="107" y="741" on="0"/>
        <pt x="166" y="890" on="1"/>
        <pt x="294" y="1215" on="0"/>
        <pt x="592" y="1356" on="1"/>
        <pt x="739" y="1426" on="0"/>
      </contour>
    </TTGlyph>
    <TTGlyph name="Ocircumflex" xMin="107" yMin="-15" xMax="1482" yMax="1857">
      <contour>
        <pt x="702" y="126" on="1"/>
        <pt x="734" y="126" on="1"/>
        <pt x="825" y="126" on="0"/>
        <pt x="1001" y="248" on="0"/>
        <pt x="1135" y="449" on="0"/>
        <pt x="1210" y="708" on="0"/>
        <pt x="1210" y="825" on="1"/>
        <pt x="1210" y="840" on="1"/>
        <pt x="1210" y="1036" on="0"/>
        <pt x="1036" y="1282" on="0"/>
        <pt x="889" y="1282" on="1"/>
        <pt x="857" y="1282" on="1"/>
        <pt x="770" y="1282" on="0"/>
        <pt x="682" y="1226" on="1"/>
        <pt x="498" y="1110" on="0"/>
        <pt x="414" y="827" on="1"/>
        <pt x="380" y="714" on="0"/>
        <pt x="380" y="604" on="1"/>
        <pt x="380" y="572" on="1"/>
        <pt x="381" y="556" on="1"/>
        <pt x="381" y="382" on="0"/>
        <pt x="466" y="257" on="1"/>
        <pt x="507" y="197" on="0"/>
        <pt x="630" y="126" on="0"/>
      </contour>
      <contour>
        <pt x="990" y="1857" on="1"/>
        <pt x="998" y="1857" on="1"/>
        <pt x="1036" y="1857" on="0"/>
        <pt x="1072" y="1818" on="1"/>
        <pt x="1080" y="1809" on="0"/>
        <pt x="1124" y="1741" on="0"/>
        <pt x="1169" y="1678" on="0"/>
        <pt x="1194" y="1640" on="0"/>
        <pt x="1246" y="1572" on="0"/>
        <pt x="1246" y="1560" on="1"/>
        <pt x="1246" y="1553" on="1"/>
        <pt x="1246" y="1520" on="0"/>
        <pt x="1197" y="1520" on="1"/>
        <pt x="1189" y="1521" on="1"/>
        <pt x="1182" y="1521" on="1"/>
        <pt x="1141" y="1521" on="0"/>
        <pt x="968" y="1668" on="0"/>
        <pt x="946" y="1668" on="0"/>
        <pt x="850" y="1604" on="1"/>
        <pt x="828" y="1590" on="1"/>
        <pt x="711" y="1520" on="0"/>
        <pt x="681" y="1520" on="1"/>
        <pt x="674" y="1520" on="1"/>
        <pt x="622" y="1520" on="0"/>
        <pt x="622" y="1548" on="1"/>
        <pt x="622" y="1555" on="1"/>
        <pt x="622" y="1562" on="0"/>
        <pt x="941" y="1857" on="0"/>
      </contour>
      <contour>
        <pt x="108" y="606" on="1"/>
        <pt x="108" y="759" on="0"/>
        <pt x="253" y="1081" on="0"/>
        <pt x="477" y="1305" on="0"/>
        <pt x="760" y="1422" on="0"/>
        <pt x="896" y="1422" on="1"/>
        <pt x="1159" y="1422" on="0"/>
        <pt x="1320" y="1267" on="1"/>
        <pt x="1389" y="1200" on="0"/>
        <pt x="1482" y="989" on="0"/>
        <pt x="1482" y="868" on="1"/>
        <pt x="1482" y="824" on="1"/>
        <pt x="1482" y="664" on="0"/>
        <pt x="1419" y="512" on="1"/>
        <pt x="1291" y="205" on="0"/>
        <pt x="1018" y="65" on="1"/>
        <pt x="862" y="-15" on="0"/>
        <pt x="697" y="-15" on="1"/>
        <pt x="651" y="-15" on="1"/>
        <pt x="420" y="-15" on="0"/>
        <pt x="256" y="155" on="1"/>
        <pt x="184" y="230" on="0"/>
        <pt x="107" y="445" on="0"/>
        <pt x="107" y="561" on="1"/>
        <pt x="108" y="583" on="1"/>
      </contour>
    </TTGlyph>
    <TTGlyph name="Odieresis" xMin="109" yMin="-13" xMax="1484" yMax="1805">
      <contour>
        <pt x="1211" y="811" on="1"/>
        <pt x="1211" y="874" on="1"/>
        <pt x="1211" y="1051" on="0"/>
        <pt x="1029" y="1284" on="0"/>
        <pt x="890" y="1284" on="1"/>
        <pt x="874" y="1285" on="1"/>
        <pt x="872" y="1285" on="0"/>
        <pt x="870" y="1285" on="1"/>
        <pt x="781" y="1285" on="0"/>
        <pt x="697" y="1238" on="1"/>
        <pt x="523" y="1142" on="0"/>
        <pt x="430" y="876" on="1"/>
        <pt x="382" y="741" on="0"/>
        <pt x="382" y="606" on="1"/>
        <pt x="382" y="558" on="1"/>
        <pt x="382" y="368" on="0"/>
        <pt x="486" y="236" on="1"/>
        <pt x="572" y="128" on="0"/>
        <pt x="719" y="128" on="1"/>
        <pt x="902" y="128" on="0"/>
        <pt x="1047" y="318" on="1"/>
        <pt x="1129" y="426" on="0"/>
        <pt x="1211" y="708" on="0"/>
      </contour>
      <contour>
        <pt x="617" y="1666" on="1"/>
        <pt x="617" y="1711" on="0"/>
        <pt x="698" y="1805" on="0"/>
        <pt x="751" y="1805" on="1"/>
        <pt x="777" y="1805" on="1"/>
        <pt x="815" y="1805" on="0"/>
        <pt x="880" y="1740" on="0"/>
        <pt x="880" y="1710" on="1"/>
        <pt x="883" y="1685" on="1"/>
        <pt x="883" y="1680" on="1"/>
        <pt x="882" y="1676" on="1"/>
        <pt x="882" y="1628" on="0"/>
        <pt x="804" y="1535" on="0"/>
        <pt x="761" y="1535" on="1"/>
        <pt x="735" y="1532" on="1"/>
        <pt x="731" y="1532" on="1"/>
        <pt x="685" y="1532" on="0"/>
        <pt x="620" y="1597" on="0"/>
        <pt x="620" y="1624" on="1"/>
        <pt x="617" y="1636" on="1"/>
      </contour>
      <contour>
        <pt x="1279" y="1693" on="1"/>
        <pt x="1279" y="1676" on="1"/>
        <pt x="1279" y="1628" on="0"/>
        <pt x="1197" y="1532" on="0"/>
        <pt x="1144" y="1532" on="1"/>
        <pt x="1118" y="1532" on="1"/>
        <pt x="1080" y="1532" on="0"/>
        <pt x="1012" y="1600" on="0"/>
        <pt x="1012" y="1640" on="1"/>
        <pt x="1012" y="1666" on="1"/>
        <pt x="1012" y="1708" on="0"/>
        <pt x="1095" y="1805" on="0"/>
        <pt x="1151" y="1805" on="1"/>
        <pt x="1173" y="1805" on="1"/>
        <pt x="1211" y="1805" on="0"/>
        <pt x="1279" y="1737" on="0"/>
      </contour>
      <contour>
        <pt x="894" y="1424" on="1"/>
        <pt x="940" y="1424" on="1"/>
        <pt x="1052" y="1424" on="0"/>
        <pt x="1156" y="1380" on="1"/>
        <pt x="1359" y="1293" on="0"/>
        <pt x="1440" y="1089" on="1"/>
        <pt x="1484" y="976" on="0"/>
        <pt x="1484" y="849" on="1"/>
        <pt x="1484" y="826" on="1"/>
        <pt x="1484" y="668" on="0"/>
        <pt x="1416" y="506" on="1"/>
        <pt x="1277" y="172" on="0"/>
        <pt x="959" y="41" on="1"/>
        <pt x="830" y="-13" on="0"/>
        <pt x="690" y="-13" on="1"/>
        <pt x="444" y="-13" on="0"/>
        <pt x="288" y="127" on="1"/>
        <pt x="202" y="205" on="0"/>
        <pt x="109" y="429" on="0"/>
        <pt x="109" y="541" on="1"/>
        <pt x="109" y="586" on="1"/>
        <pt x="109" y="746" on="0"/>
        <pt x="173" y="900" on="1"/>
        <pt x="305" y="1218" on="0"/>
        <pt x="593" y="1354" on="1"/>
        <pt x="740" y="1424" on="0"/>
      </contour>
    </TTGlyph>
    <TTGlyph name="Ograve" xMin="107" yMin="-11" xMax="1482" yMax="1838">
      <contour>
        <pt x="702" y="130" on="1"/>
        <pt x="734" y="130" on="1"/>
        <pt x="830" y="130" on="0"/>
        <pt x="922" y="197" on="1"/>
        <pt x="1095" y="324" on="0"/>
        <pt x="1175" y="591" on="1"/>
        <pt x="1210" y="708" on="0"/>
        <pt x="1210" y="829" on="1"/>
        <pt x="1210" y="844" on="1"/>
        <pt x="1210" y="1154" on="0"/>
        <pt x="1013" y="1257" on="1"/>
        <pt x="957" y="1286" on="0"/>
        <pt x="889" y="1286" on="1"/>
        <pt x="857" y="1286" on="1"/>
        <pt x="780" y="1286" on="0"/>
        <pt x="694" y="1238" on="1"/>
        <pt x="512" y="1137" on="0"/>
        <pt x="419" y="847" on="1"/>
        <pt x="380" y="726" on="0"/>
        <pt x="380" y="608" on="1"/>
        <pt x="380" y="576" on="1"/>
        <pt x="381" y="560" on="1"/>
        <pt x="381" y="386" on="0"/>
        <pt x="466" y="261" on="1"/>
        <pt x="507" y="201" on="0"/>
        <pt x="630" y="130" on="0"/>
      </contour>
      <contour>
        <pt x="651" y="1766" on="1"/>
        <pt x="651" y="1775" on="1"/>
        <pt x="651" y="1790" on="0"/>
        <pt x="715" y="1838" on="0"/>
        <pt x="791" y="1838" on="1"/>
        <pt x="796" y="1838" on="1"/>
        <pt x="850" y="1838" on="0"/>
        <pt x="893" y="1790" on="1"/>
        <pt x="1052" y="1611" on="0"/>
        <pt x="1052" y="1559" on="1"/>
        <pt x="1052" y="1555" on="1"/>
        <pt x="1052" y="1513" on="0"/>
        <pt x="1009" y="1513" on="1"/>
        <pt x="1004" y="1513" on="1"/>
        <pt x="951" y="1513" on="0"/>
        <pt x="651" y="1723" on="0"/>
      </contour>
      <contour>
        <pt x="915" y="1426" on="1"/>
        <pt x="1162" y="1426" on="0"/>
        <pt x="1320" y="1272" on="1"/>
        <pt x="1388" y="1206" on="0"/>
        <pt x="1482" y="993" on="0"/>
        <pt x="1482" y="873" on="1"/>
        <pt x="1482" y="828" on="1"/>
        <pt x="1482" y="672" on="0"/>
        <pt x="1420" y="518" on="1"/>
        <pt x="1291" y="199" on="0"/>
        <pt x="998" y="60" on="1"/>
        <pt x="849" y="-11" on="0"/>
        <pt x="697" y="-11" on="1"/>
        <pt x="651" y="-11" on="1"/>
        <pt x="420" y="-11" on="0"/>
        <pt x="256" y="159" on="1"/>
        <pt x="107" y="312" on="0"/>
        <pt x="107" y="590" on="1"/>
        <pt x="107" y="734" on="0"/>
        <pt x="226" y="1045" on="0"/>
        <pt x="439" y="1279" on="0"/>
        <pt x="732" y="1426" on="0"/>
        <pt x="892" y="1426" on="1"/>
      </contour>
    </TTGlyph>
    <TTGlyph name="Oslash" xMin="107" yMin="-33" xMax="1481" yMax="1423">
      <contour>
        <pt x="380" y="604" on="1"/>
        <pt x="380" y="567" on="1"/>
        <pt x="380" y="435" on="0"/>
        <pt x="411" y="385" on="1"/>
        <pt x="420" y="370" on="0"/>
        <pt x="428" y="370" on="1"/>
        <pt x="442" y="370" on="0"/>
        <pt x="1081" y="1129" on="0"/>
        <pt x="1081" y="1160" on="1"/>
        <pt x="1081" y="1206" on="0"/>
        <pt x="964" y="1276" on="0"/>
        <pt x="885" y="1276" on="1"/>
        <pt x="860" y="1276" on="1"/>
        <pt x="680" y="1276" on="0"/>
        <pt x="539" y="1087" on="1"/>
        <pt x="457" y="977" on="0"/>
        <pt x="380" y="704" on="0"/>
      </contour>
      <contour>
        <pt x="1206" y="804" on="1"/>
        <pt x="1206" y="841" on="1"/>
        <pt x="1206" y="956" on="0"/>
        <pt x="1178" y="1006" on="1"/>
        <pt x="1169" y="1022" on="0"/>
        <pt x="1153" y="1022" on="0"/>
        <pt x="510" y="258" on="0"/>
        <pt x="510" y="192" on="0"/>
        <pt x="623" y="121" on="0"/>
        <pt x="692" y="121" on="1"/>
        <pt x="730" y="121" on="1"/>
        <pt x="813" y="121" on="0"/>
        <pt x="992" y="232" on="0"/>
        <pt x="1132" y="442" on="0"/>
        <pt x="1206" y="696" on="0"/>
      </contour>
      <contour>
        <pt x="194" y="156" on="0"/>
        <pt x="194" y="204" on="0"/>
        <pt x="163" y="275" on="0"/>
        <pt x="107" y="451" on="0"/>
        <pt x="107" y="531" on="1"/>
        <pt x="107" y="583" on="1"/>
        <pt x="107" y="730" on="0"/>
        <pt x="230" y="1046" on="0"/>
        <pt x="345" y="1168" on="1"/>
        <pt x="578" y="1414" on="0"/>
        <pt x="917" y="1414" on="1"/>
        <pt x="996" y="1414" on="0"/>
        <pt x="1184" y="1366" on="0"/>
        <pt x="1243" y="1366" on="0"/>
        <pt x="1343" y="1423" on="0"/>
        <pt x="1364" y="1423" on="1"/>
        <pt x="1383" y="1423" on="1"/>
        <pt x="1442" y="1423" on="0"/>
        <pt x="1442" y="1358" on="1"/>
        <pt x="1442" y="1341" on="0"/>
        <pt x="1406" y="1224" on="0"/>
        <pt x="1406" y="1184" on="0"/>
        <pt x="1481" y="939" on="0"/>
        <pt x="1481" y="842" on="1"/>
        <pt x="1481" y="816" on="1"/>
        <pt x="1481" y="816" on="0"/>
        <pt x="1481" y="811" on="1"/>
        <pt x="1481" y="666" on="0"/>
        <pt x="1420" y="511" on="1"/>
        <pt x="1291" y="181" on="0"/>
        <pt x="980" y="45" on="1"/>
        <pt x="834" y="-19" on="0"/>
        <pt x="674" y="-19" on="1"/>
        <pt x="610" y="-19" on="0"/>
        <pt x="429" y="18" on="0"/>
        <pt x="345" y="18" on="0"/>
        <pt x="221" y="-33" on="0"/>
        <pt x="209" y="-33" on="1"/>
        <pt x="150" y="-33" on="0"/>
        <pt x="150" y="37" on="1"/>
        <pt x="150" y="52" on="0"/>
        <pt x="160" y="76" on="1"/>
        <pt x="179" y="115" on="1"/>
      </contour>
    </TTGlyph>
    <TTGlyph name="Otilde" xMin="107" yMin="-14" xMax="1482" yMax="1808">
      <contour>
        <pt x="702" y="127" on="1"/>
        <pt x="734" y="127" on="1"/>
        <pt x="830" y="127" on="0"/>
        <pt x="922" y="194" on="1"/>
        <pt x="1095" y="321" on="0"/>
        <pt x="1175" y="588" on="1"/>
        <pt x="1210" y="705" on="0"/>
        <pt x="1210" y="826" on="1"/>
        <pt x="1210" y="841" on="1"/>
        <pt x="1210" y="1151" on="0"/>
        <pt x="1013" y="1254" on="1"/>
        <pt x="957" y="1283" on="0"/>
        <pt x="889" y="1283" on="1"/>
        <pt x="857" y="1283" on="1"/>
        <pt x="780" y="1283" on="0"/>
        <pt x="694" y="1235" on="1"/>
        <pt x="512" y="1134" on="0"/>
        <pt x="419" y="844" on="1"/>
        <pt x="380" y="723" on="0"/>
        <pt x="380" y="605" on="1"/>
        <pt x="380" y="573" on="1"/>
        <pt x="381" y="557" on="1"/>
        <pt x="381" y="383" on="0"/>
        <pt x="466" y="258" on="1"/>
        <pt x="507" y="198" on="0"/>
        <pt x="630" y="127" on="0"/>
      </contour>
      <contour>
        <pt x="823" y="1808" on="1"/>
        <pt x="840" y="1808" on="1"/>
        <pt x="893" y="1808" on="0"/>
        <pt x="1057" y="1702" on="0"/>
        <pt x="1155" y="1702" on="0"/>
        <pt x="1250" y="1790" on="0"/>
        <pt x="1317" y="1790" on="0"/>
        <pt x="1317" y="1758" on="1"/>
        <pt x="1317" y="1694" on="0"/>
        <pt x="1216" y="1600" on="1"/>
        <pt x="1146" y="1535" on="0"/>
        <pt x="1067" y="1535" on="1"/>
        <pt x="1057" y="1536" on="1"/>
        <pt x="1048" y="1536" on="1"/>
        <pt x="1001" y="1536" on="0"/>
        <pt x="828" y="1642" on="0"/>
        <pt x="740" y="1642" on="0"/>
        <pt x="625" y="1552" on="0"/>
        <pt x="616" y="1552" on="1"/>
        <pt x="571" y="1552" on="0"/>
        <pt x="571" y="1586" on="1"/>
        <pt x="571" y="1594" on="1"/>
        <pt x="571" y="1654" on="0"/>
        <pt x="749" y="1808" on="0"/>
      </contour>
      <contour>
        <pt x="915" y="1423" on="1"/>
        <pt x="1166" y="1423" on="0"/>
        <pt x="1320" y="1269" on="1"/>
        <pt x="1390" y="1199" on="0"/>
        <pt x="1482" y="990" on="0"/>
        <pt x="1482" y="870" on="1"/>
        <pt x="1482" y="825" on="1"/>
        <pt x="1482" y="665" on="0"/>
        <pt x="1418" y="511" on="1"/>
        <pt x="1286" y="193" on="0"/>
        <pt x="998" y="57" on="1"/>
        <pt x="849" y="-14" on="0"/>
        <pt x="697" y="-14" on="1"/>
        <pt x="651" y="-14" on="1"/>
        <pt x="540" y="-14" on="0"/>
        <pt x="436" y="30" on="1"/>
        <pt x="225" y="120" on="0"/>
        <pt x="144" y="342" on="1"/>
        <pt x="107" y="442" on="0"/>
        <pt x="107" y="586" on="1"/>
        <pt x="108" y="730" on="0"/>
        <pt x="166" y="883" on="1"/>
        <pt x="288" y="1202" on="0"/>
        <pt x="572" y="1343" on="1"/>
        <pt x="732" y="1423" on="0"/>
        <pt x="892" y="1423" on="1"/>
      </contour>
    </TTGlyph>
    <TTGlyph name="P" xMin="53" yMin="-20" xMax="1283" yMax="1359">
      <contour>
        <pt x="600" y="678" on="1"/>
        <pt x="683" y="678" on="1"/>
        <pt x="692" y="679" on="1"/>
        <pt x="719" y="680" on="1"/>
        <pt x="728" y="681" on="0"/>
        <pt x="737" y="681" on="1"/>
        <pt x="867" y="681" on="0"/>
        <pt x="1042" y="872" on="0"/>
        <pt x="1042" y="991" on="1"/>
        <pt x="1042" y="1010" on="1"/>
        <pt x="1042" y="1106" on="0"/>
        <pt x="904" y="1212" on="0"/>
        <pt x="792" y="1212" on="1"/>
        <pt x="756" y="1212" on="1"/>
        <pt x="650" y="1212" on="0"/>
        <pt x="622" y="1127" on="0"/>
        <pt x="583" y="892" on="0"/>
        <pt x="580" y="883" on="0"/>
        <pt x="577" y="864" on="1"/>
        <pt x="571" y="830" on="1"/>
        <pt x="564" y="792" on="1"/>
        <pt x="561" y="778" on="0"/>
        <pt x="558" y="761" on="1"/>
        <pt x="549" y="710" on="1"/>
        <pt x="549" y="703" on="1"/>
        <pt x="549" y="678" on="0"/>
      </contour>
      <contour>
        <pt x="53" y="20" on="1"/>
        <pt x="53" y="69" on="0"/>
        <pt x="207" y="176" on="0"/>
        <pt x="239" y="278" on="0"/>
        <pt x="305" y="650" on="0"/>
        <pt x="389" y="1080" on="0"/>
        <pt x="389" y="1170" on="0"/>
        <pt x="358" y="1202" on="1"/>
        <pt x="350" y="1210" on="0"/>
        <pt x="281" y="1258" on="0"/>
        <pt x="281" y="1282" on="1"/>
        <pt x="281" y="1341" on="0"/>
        <pt x="347" y="1354" on="1"/>
        <pt x="362" y="1357" on="0"/>
        <pt x="605" y="1357" on="1"/>
        <pt x="815" y="1359" on="1"/>
        <pt x="1168" y="1359" on="0"/>
        <pt x="1257" y="1154" on="1"/>
        <pt x="1283" y="1094" on="0"/>
        <pt x="1283" y="1026" on="1"/>
        <pt x="1283" y="999" on="1"/>
        <pt x="1283" y="894" on="0"/>
        <pt x="1232" y="798" on="1"/>
        <pt x="1128" y="604" on="0"/>
        <pt x="890" y="552" on="1"/>
        <pt x="799" y="532" on="0"/>
        <pt x="627" y="532" on="1"/>
        <pt x="539" y="532" on="0"/>
        <pt x="514" y="480" on="1"/>
        <pt x="466" y="379" on="0"/>
        <pt x="466" y="236" on="1"/>
        <pt x="466" y="174" on="0"/>
        <pt x="623" y="103" on="0"/>
        <pt x="623" y="55" on="1"/>
        <pt x="623" y="30" on="0"/>
        <pt x="553" y="-20" on="0"/>
        <pt x="477" y="-20" on="1"/>
        <pt x="111" y="-20" on="1"/>
        <pt x="53" y="-20" on="0"/>
      </contour>
    </TTGlyph>
    <TTGlyph name="Q" xMin="112" yMin="-303" xMax="1464" yMax="1400">
      <contour>
        <pt x="702" y="127" on="1"/>
        <pt x="733" y="127" on="1"/>
        <pt x="820" y="127" on="0"/>
        <pt x="907" y="186" on="1"/>
        <pt x="1079" y="303" on="0"/>
        <pt x="1158" y="554" on="1"/>
        <pt x="1196" y="676" on="0"/>
        <pt x="1196" y="798" on="1"/>
        <pt x="1196" y="813" on="1"/>
        <pt x="1196" y="994" on="0"/>
        <pt x="1020" y="1241" on="0"/>
        <pt x="882" y="1241" on="1"/>
        <pt x="866" y="1241" on="1"/>
        <pt x="786" y="1241" on="0"/>
        <pt x="702" y="1198" on="1"/>
        <pt x="538" y="1113" on="0"/>
        <pt x="441" y="859" on="1"/>
        <pt x="389" y="722" on="0"/>
        <pt x="389" y="586" on="1"/>
        <pt x="389" y="540" on="1"/>
        <pt x="389" y="363" on="0"/>
        <pt x="571" y="127" on="0"/>
      </contour>
      <contour>
        <pt x="1454" y="-155" on="1"/>
        <pt x="1454" y="-198" on="0"/>
        <pt x="1240" y="-303" on="0"/>
        <pt x="1169" y="-303" on="1"/>
        <pt x="1141" y="-303" on="1"/>
        <pt x="1062" y="-303" on="0"/>
        <pt x="956" y="-252" on="1"/>
        <pt x="412" y="9" on="0"/>
        <pt x="312" y="95" on="1"/>
        <pt x="112" y="266" on="0"/>
        <pt x="112" y="540" on="1"/>
        <pt x="112" y="569" on="1"/>
        <pt x="112" y="720" on="0"/>
        <pt x="235" y="1030" on="0"/>
        <pt x="450" y="1267" on="0"/>
        <pt x="743" y="1400" on="0"/>
        <pt x="887" y="1400" on="1"/>
        <pt x="1144" y="1400" on="0"/>
        <pt x="1295" y="1253" on="1"/>
        <pt x="1373" y="1177" on="0"/>
        <pt x="1464" y="947" on="0"/>
        <pt x="1464" y="815" on="1"/>
        <pt x="1464" y="787" on="1"/>
        <pt x="1464" y="565" on="0"/>
        <pt x="1334" y="353" on="1"/>
        <pt x="1240" y="200" on="0"/>
        <pt x="1080" y="96" on="1"/>
        <pt x="1018" y="56" on="0"/>
        <pt x="1018" y="44" on="1"/>
        <pt x="1018" y="9" on="0"/>
        <pt x="1212" y="-72" on="1"/>
        <pt x="1292" y="-105" on="0"/>
        <pt x="1454" y="-105" on="0"/>
      </contour>
    </TTGlyph>
    <TTGlyph name="R" xMin="28" yMin="-9" xMax="1244" yMax="1358">
      <contour>
        <pt x="530" y="768" on="1"/>
        <pt x="530" y="755" on="1"/>
        <pt x="530" y="723" on="0"/>
        <pt x="595" y="723" on="1"/>
        <pt x="673" y="723" on="1"/>
        <pt x="798" y="723" on="0"/>
        <pt x="978" y="887" on="0"/>
        <pt x="978" y="1017" on="1"/>
        <pt x="978" y="1034" on="1"/>
        <pt x="978" y="1119" on="0"/>
        <pt x="861" y="1225" on="0"/>
        <pt x="760" y="1225" on="1"/>
        <pt x="702" y="1225" on="1"/>
        <pt x="624" y="1225" on="0"/>
        <pt x="604" y="1172" on="1"/>
        <pt x="602" y="1167" on="0"/>
        <pt x="530" y="783" on="0"/>
      </contour>
      <contour>
        <pt x="785" y="1358" on="1"/>
        <pt x="1088" y="1358" on="0"/>
        <pt x="1185" y="1193" on="1"/>
        <pt x="1223" y="1127" on="0"/>
        <pt x="1223" y="1040" on="1"/>
        <pt x="1222" y="818" on="0"/>
        <pt x="1002" y="672" on="1"/>
        <pt x="908" y="610" on="0"/>
        <pt x="908" y="540" on="0"/>
        <pt x="939" y="473" on="1"/>
        <pt x="1036" y="257" on="0"/>
        <pt x="1050" y="235" on="1"/>
        <pt x="1083" y="184" on="0"/>
        <pt x="1244" y="107" on="0"/>
        <pt x="1244" y="19" on="0"/>
        <pt x="1190" y="6" on="1"/>
        <pt x="1151" y="-3" on="0"/>
        <pt x="996" y="-3" on="1"/>
        <pt x="925" y="-3" on="0"/>
        <pt x="837" y="118" on="0"/>
        <pt x="769" y="283" on="0"/>
        <pt x="689" y="494" on="0"/>
        <pt x="680" y="512" on="1"/>
        <pt x="644" y="583" on="0"/>
        <pt x="563" y="583" on="1"/>
        <pt x="512" y="583" on="0"/>
        <pt x="498" y="554" on="1"/>
        <pt x="444" y="446" on="0"/>
        <pt x="444" y="269" on="1"/>
        <pt x="444" y="210" on="0"/>
        <pt x="484" y="129" on="0"/>
        <pt x="534" y="60" on="0"/>
        <pt x="534" y="35" on="1"/>
        <pt x="534" y="-6" on="0"/>
        <pt x="267" y="-6" on="1"/>
        <pt x="135" y="-8" on="1"/>
        <pt x="100" y="-9" on="1"/>
        <pt x="69" y="-9" on="1"/>
        <pt x="28" y="-9" on="0"/>
        <pt x="28" y="13" on="1"/>
        <pt x="28" y="64" on="0"/>
        <pt x="183" y="177" on="0"/>
        <pt x="205" y="272" on="0"/>
        <pt x="344" y="1092" on="0"/>
        <pt x="344" y="1184" on="0"/>
        <pt x="317" y="1214" on="1"/>
        <pt x="312" y="1219" on="0"/>
        <pt x="243" y="1273" on="0"/>
        <pt x="243" y="1294" on="1"/>
        <pt x="243" y="1334" on="0"/>
        <pt x="297" y="1346" on="1"/>
        <pt x="324" y="1352" on="0"/>
        <pt x="458" y="1352" on="1"/>
        <pt x="718" y="1358" on="1"/>
      </contour>
    </TTGlyph>
    <TTGlyph name="S" xMin="68" yMin="-22" xMax="1084" yMax="1375">
      <contour>
        <pt x="723" y="1375" on="1"/>
        <pt x="749" y="1375" on="0"/>
        <pt x="895" y="1348" on="0"/>
        <pt x="1024" y="1348" on="0"/>
        <pt x="1084" y="1295" on="0"/>
        <pt x="1084" y="1238" on="1"/>
        <pt x="1084" y="1208" on="1"/>
        <pt x="1084" y="1091" on="0"/>
        <pt x="1038" y="1027" on="1"/>
        <pt x="1019" y="1000" on="0"/>
        <pt x="1002" y="1000" on="1"/>
        <pt x="958" y="1000" on="0"/>
        <pt x="912" y="1075" on="1"/>
        <pt x="845" y="1185" on="0"/>
        <pt x="756" y="1235" on="0"/>
        <pt x="593" y="1235" on="0"/>
        <pt x="459" y="1123" on="0"/>
        <pt x="459" y="1016" on="1"/>
        <pt x="459" y="951" on="0"/>
        <pt x="541" y="885" on="1"/>
        <pt x="585" y="850" on="0"/>
        <pt x="858" y="722" on="0"/>
        <pt x="915" y="664" on="1"/>
        <pt x="1012" y="565" on="0"/>
        <pt x="1012" y="428" on="1"/>
        <pt x="1012" y="229" on="0"/>
        <pt x="713" y="-22" on="0"/>
        <pt x="490" y="-22" on="1"/>
        <pt x="458" y="-22" on="0"/>
        <pt x="125" y="35" on="0"/>
        <pt x="120" y="38" on="1"/>
        <pt x="70" y="64" on="0"/>
        <pt x="70" y="138" on="1"/>
        <pt x="68" y="196" on="1"/>
        <pt x="68" y="258" on="0"/>
        <pt x="122" y="375" on="0"/>
        <pt x="192" y="375" on="0"/>
        <pt x="326" y="180" on="0"/>
        <pt x="418" y="122" on="0"/>
        <pt x="620" y="122" on="0"/>
        <pt x="774" y="254" on="0"/>
        <pt x="774" y="362" on="1"/>
        <pt x="774" y="437" on="0"/>
        <pt x="701" y="501" on="1"/>
        <pt x="659" y="538" on="0"/>
        <pt x="517" y="608" on="1"/>
        <pt x="226" y="750" on="0"/>
        <pt x="226" y="944" on="1"/>
        <pt x="226" y="1232" on="0"/>
        <pt x="501" y="1340" on="1"/>
        <pt x="589" y="1375" on="0"/>
        <pt x="684" y="1375" on="1"/>
        <pt x="687" y="1375" on="0"/>
        <pt x="689" y="1375" on="1"/>
      </contour>
    </TTGlyph>
    <TTGlyph name="Scaron" xMin="33" yMin="-27" xMax="1050" yMax="1835">
      <contour>
        <pt x="689" y="1499" on="1"/>
        <pt x="674" y="1499" on="1"/>
        <pt x="635" y="1499" on="0"/>
        <pt x="566" y="1595" on="1"/>
        <pt x="430" y="1785" on="0"/>
        <pt x="430" y="1794" on="1"/>
        <pt x="430" y="1835" on="0"/>
        <pt x="491" y="1835" on="1"/>
        <pt x="525" y="1835" on="0"/>
        <pt x="700" y="1685" on="0"/>
        <pt x="715" y="1685" on="1"/>
        <pt x="718" y="1685" on="0"/>
        <pt x="967" y="1834" on="0"/>
        <pt x="1045" y="1834" on="0"/>
        <pt x="1045" y="1802" on="1"/>
        <pt x="1045" y="1795" on="1"/>
        <pt x="1045" y="1756" on="0"/>
        <pt x="771" y="1528" on="1"/>
        <pt x="736" y="1499" on="0"/>
      </contour>
      <contour>
        <pt x="126" y="358" on="1"/>
        <pt x="151" y="358" on="0"/>
        <pt x="300" y="182" on="0"/>
        <pt x="404" y="120" on="0"/>
        <pt x="579" y="120" on="0"/>
        <pt x="722" y="251" on="0"/>
        <pt x="722" y="431" on="0"/>
        <pt x="599" y="539" on="0"/>
        <pt x="331" y="685" on="0"/>
        <pt x="269" y="753" on="1"/>
        <pt x="182" y="849" on="0"/>
        <pt x="182" y="993" on="1"/>
        <pt x="182" y="1075" on="0"/>
        <pt x="219" y="1150" on="1"/>
        <pt x="291" y="1296" on="0"/>
        <pt x="461" y="1359" on="1"/>
        <pt x="562" y="1397" on="0"/>
        <pt x="654" y="1397" on="1"/>
        <pt x="686" y="1397" on="1"/>
        <pt x="970" y="1397" on="0"/>
        <pt x="1016" y="1324" on="1"/>
        <pt x="1050" y="1269" on="0"/>
        <pt x="1050" y="1216" on="1"/>
        <pt x="1050" y="1186" on="1"/>
        <pt x="1050" y="1100" on="0"/>
        <pt x="1007" y="1036" on="1"/>
        <pt x="992" y="1014" on="0"/>
        <pt x="971" y="1014" on="1"/>
        <pt x="930" y="1014" on="0"/>
        <pt x="820" y="1191" on="0"/>
        <pt x="710" y="1259" on="0"/>
        <pt x="550" y="1259" on="0"/>
        <pt x="429" y="1140" on="0"/>
        <pt x="429" y="984" on="0"/>
        <pt x="500" y="923" on="1"/>
        <pt x="530" y="898" on="0"/>
        <pt x="843" y="720" on="0"/>
        <pt x="888" y="671" on="1"/>
        <pt x="980" y="573" on="0"/>
        <pt x="980" y="432" on="1"/>
        <pt x="980" y="241" on="0"/>
        <pt x="668" y="-27" on="0"/>
        <pt x="438" y="-27" on="1"/>
        <pt x="388" y="-27" on="0"/>
        <pt x="274" y="-13" on="0"/>
        <pt x="247" y="-13" on="1"/>
        <pt x="151" y="-13" on="0"/>
        <pt x="95" y="27" on="1"/>
        <pt x="76" y="40" on="0"/>
        <pt x="33" y="177" on="0"/>
        <pt x="33" y="189" on="1"/>
        <pt x="33" y="219" on="1"/>
        <pt x="33" y="282" on="0"/>
        <pt x="69" y="335" on="1"/>
        <pt x="85" y="358" on="0"/>
      </contour>
    </TTGlyph>
    <TTGlyph name="T" xMin="152" yMin="-2" xMax="1349" yMax="1360">
      <contour>
        <pt x="568" y="1218" on="1"/>
        <pt x="379" y="1218" on="0"/>
        <pt x="292" y="1082" on="1"/>
        <pt x="236" y="994" on="0"/>
        <pt x="152" y="994" on="0"/>
        <pt x="152" y="1067" on="0"/>
        <pt x="212" y="1323" on="0"/>
        <pt x="247" y="1360" on="0"/>
        <pt x="304" y="1360" on="1"/>
        <pt x="335" y="1359" on="1"/>
        <pt x="1021" y="1358" on="1"/>
        <pt x="1278" y="1358" on="1"/>
        <pt x="1349" y="1350" on="0"/>
        <pt x="1349" y="1304" on="1"/>
        <pt x="1349" y="1114" on="0"/>
        <pt x="1303" y="1026" on="1"/>
        <pt x="1283" y="988" on="0"/>
        <pt x="1272" y="988" on="1"/>
        <pt x="1232" y="988" on="0"/>
        <pt x="1212" y="1018" on="1"/>
        <pt x="1206" y="1027" on="0"/>
        <pt x="1174" y="1133" on="0"/>
        <pt x="1145" y="1159" on="1"/>
        <pt x="1080" y="1217" on="0"/>
        <pt x="939" y="1217" on="0"/>
        <pt x="890" y="1183" on="0"/>
        <pt x="866" y="1106" on="0"/>
        <pt x="797" y="706" on="0"/>
        <pt x="725" y="322" on="0"/>
        <pt x="725" y="194" on="0"/>
        <pt x="759" y="152" on="1"/>
        <pt x="838" y="53" on="0"/>
        <pt x="838" y="49" on="1"/>
        <pt x="838" y="11" on="0"/>
        <pt x="792" y="2" on="1"/>
        <pt x="782" y="0" on="0"/>
        <pt x="534" y="0" on="1"/>
        <pt x="368" y="-2" on="1"/>
        <pt x="275" y="-2" on="0"/>
        <pt x="275" y="60" on="0"/>
        <pt x="382" y="135" on="1"/>
        <pt x="448" y="182" on="0"/>
        <pt x="493" y="334" on="0"/>
        <pt x="628" y="1122" on="0"/>
        <pt x="628" y="1138" on="1"/>
        <pt x="628" y="1218" on="0"/>
      </contour>
    </TTGlyph>
    <TTGlyph name="Thorn" xMin="12" yMin="-4" xMax="1193" yMax="1408">
      <contour>
        <pt x="570" y="448" on="1"/>
        <pt x="633" y="448" on="1"/>
        <pt x="754" y="448" on="0"/>
        <pt x="931" y="625" on="0"/>
        <pt x="931" y="755" on="1"/>
        <pt x="931" y="772" on="1"/>
        <pt x="929" y="790" on="0"/>
        <pt x="929" y="798" on="1"/>
        <pt x="929" y="871" on="0"/>
        <pt x="812" y="978" on="0"/>
        <pt x="728" y="978" on="1"/>
        <pt x="674" y="978" on="1"/>
        <pt x="666" y="977" on="1"/>
        <pt x="585" y="977" on="0"/>
        <pt x="569" y="932" on="1"/>
        <pt x="568" y="929" on="0"/>
        <pt x="558" y="876" on="1"/>
        <pt x="488" y="480" on="1"/>
        <pt x="488" y="448" on="0"/>
      </contour>
      <contour>
        <pt x="247" y="1338" on="1"/>
        <pt x="247" y="1408" on="0"/>
        <pt x="353" y="1408" on="1"/>
        <pt x="381" y="1407" on="1"/>
        <pt x="535" y="1406" on="1"/>
        <pt x="687" y="1406" on="0"/>
        <pt x="706" y="1402" on="1"/>
        <pt x="767" y="1389" on="0"/>
        <pt x="767" y="1345" on="1"/>
        <pt x="767" y="1325" on="0"/>
        <pt x="681" y="1279" on="1"/>
        <pt x="628" y="1251" on="0"/>
        <pt x="628" y="1142" on="0"/>
        <pt x="676" y="1117" on="0"/>
        <pt x="779" y="1117" on="1"/>
        <pt x="967" y="1117" on="0"/>
        <pt x="1193" y="936" on="0"/>
        <pt x="1193" y="772" on="1"/>
        <pt x="1193" y="676" on="0"/>
        <pt x="1109" y="492" on="0"/>
        <pt x="939" y="364" on="0"/>
        <pt x="736" y="308" on="0"/>
        <pt x="590" y="308" on="1"/>
        <pt x="537" y="309" on="1"/>
        <pt x="509" y="310" on="1"/>
        <pt x="490" y="310" on="0"/>
        <pt x="475" y="287" on="1"/>
        <pt x="441" y="234" on="0"/>
        <pt x="441" y="165" on="0"/>
        <pt x="476" y="142" on="1"/>
        <pt x="541" y="99" on="0"/>
        <pt x="541" y="70" on="1"/>
        <pt x="541" y="18" on="0"/>
        <pt x="460" y="-2" on="0"/>
        <pt x="222" y="-2" on="1"/>
        <pt x="84" y="-4" on="1"/>
        <pt x="12" y="-4" on="0"/>
        <pt x="12" y="25" on="1"/>
        <pt x="12" y="68" on="0"/>
        <pt x="35" y="98" on="0"/>
        <pt x="114" y="131" on="1"/>
        <pt x="169" y="154" on="0"/>
        <pt x="186" y="214" on="1"/>
        <pt x="191" y="224" on="0"/>
        <pt x="232" y="461" on="0"/>
        <pt x="255" y="582" on="0"/>
        <pt x="279" y="721" on="0"/>
        <pt x="362" y="1163" on="0"/>
        <pt x="362" y="1187" on="1"/>
        <pt x="362" y="1242" on="0"/>
        <pt x="318" y="1264" on="1"/>
        <pt x="247" y="1300" on="0"/>
      </contour>
    </TTGlyph>
    <TTGlyph name="U" xMin="205" yMin="-24" xMax="1522" yMax="1358">
      <contour>
        <pt x="452" y="392" on="1"/>
        <pt x="452" y="137" on="0"/>
        <pt x="744" y="137" on="1"/>
        <pt x="840" y="137" on="0"/>
        <pt x="993" y="249" on="0"/>
        <pt x="1070" y="414" on="0"/>
        <pt x="1188" y="1018" on="0"/>
        <pt x="1188" y="1166" on="1"/>
        <pt x="1188" y="1208" on="0"/>
        <pt x="1092" y="1281" on="0"/>
        <pt x="1092" y="1357" on="0"/>
        <pt x="1522" y="1357" on="0"/>
        <pt x="1522" y="1336" on="1"/>
        <pt x="1522" y="1267" on="0"/>
        <pt x="1466" y="1232" on="1"/>
        <pt x="1380" y="1178" on="0"/>
        <pt x="1360" y="1116" on="1"/>
        <pt x="1349" y="1083" on="0"/>
        <pt x="1219" y="359" on="0"/>
        <pt x="1077" y="109" on="0"/>
        <pt x="822" y="-24" on="0"/>
        <pt x="680" y="-24" on="1"/>
        <pt x="638" y="-24" on="1"/>
        <pt x="434" y="-24" on="0"/>
        <pt x="319" y="80" on="1"/>
        <pt x="205" y="184" on="0"/>
        <pt x="205" y="355" on="1"/>
        <pt x="205" y="393" on="1"/>
        <pt x="205" y="457" on="0"/>
        <pt x="320" y="1114" on="0"/>
        <pt x="320" y="1161" on="1"/>
        <pt x="320" y="1189" on="0"/>
        <pt x="210" y="1257" on="0"/>
        <pt x="210" y="1287" on="1"/>
        <pt x="210" y="1358" on="0"/>
        <pt x="298" y="1358" on="1"/>
        <pt x="337" y="1358" on="1"/>
        <pt x="376" y="1357" on="1"/>
        <pt x="561" y="1358" on="1"/>
        <pt x="654" y="1358" on="0"/>
        <pt x="714" y="1322" on="0"/>
        <pt x="714" y="1287" on="0"/>
        <pt x="645" y="1229" on="1"/>
        <pt x="603" y="1194" on="0"/>
        <pt x="540" y="1005" on="0"/>
        <pt x="452" y="479" on="0"/>
      </contour>
    </TTGlyph>
    <TTGlyph name="Uacute" xMin="200" yMin="-16" xMax="1553" yMax="1830">
      <contour>
        <pt x="1243" y="1778" on="1"/>
        <pt x="1243" y="1768" on="1"/>
        <pt x="1243" y="1729" on="0"/>
        <pt x="1130" y="1657" on="1"/>
        <pt x="888" y="1503" on="0"/>
        <pt x="833" y="1503" on="1"/>
        <pt x="828" y="1503" on="1"/>
        <pt x="787" y="1503" on="0"/>
        <pt x="787" y="1542" on="1"/>
        <pt x="787" y="1547" on="1"/>
        <pt x="787" y="1550" on="0"/>
        <pt x="1036" y="1830" on="0"/>
        <pt x="1092" y="1830" on="1"/>
        <pt x="1108" y="1830" on="1"/>
        <pt x="1120" y="1828" on="0"/>
        <pt x="1167" y="1828" on="0"/>
        <pt x="1243" y="1790" on="0"/>
      </contour>
      <contour>
        <pt x="316" y="1188" on="1"/>
        <pt x="316" y="1229" on="0"/>
        <pt x="204" y="1294" on="0"/>
        <pt x="204" y="1319" on="1"/>
        <pt x="204" y="1365" on="0"/>
        <pt x="245" y="1395" on="0"/>
        <pt x="288" y="1395" on="1"/>
        <pt x="367" y="1395" on="1"/>
        <pt x="407" y="1394" on="1"/>
        <pt x="516" y="1395" on="1"/>
        <pt x="593" y="1395" on="1"/>
        <pt x="668" y="1395" on="0"/>
        <pt x="704" y="1363" on="1"/>
        <pt x="712" y="1348" on="1"/>
        <pt x="712" y="1325" on="0"/>
        <pt x="624" y="1247" on="0"/>
        <pt x="583" y="1163" on="0"/>
        <pt x="552" y="1034" on="1"/>
        <pt x="462" y="664" on="0"/>
        <pt x="462" y="409" on="1"/>
        <pt x="462" y="283" on="0"/>
        <pt x="612" y="148" on="0"/>
        <pt x="758" y="148" on="1"/>
        <pt x="854" y="148" on="0"/>
        <pt x="1009" y="261" on="0"/>
        <pt x="1096" y="445" on="0"/>
        <pt x="1212" y="1094" on="0"/>
        <pt x="1212" y="1198" on="1"/>
        <pt x="1212" y="1248" on="0"/>
        <pt x="1176" y="1275" on="1"/>
        <pt x="1118" y="1318" on="0"/>
        <pt x="1118" y="1330" on="1"/>
        <pt x="1118" y="1395" on="0"/>
        <pt x="1198" y="1395" on="1"/>
        <pt x="1237" y="1395" on="1"/>
        <pt x="1276" y="1394" on="1"/>
        <pt x="1469" y="1395" on="1"/>
        <pt x="1553" y="1395" on="0"/>
        <pt x="1553" y="1370" on="1"/>
        <pt x="1553" y="1318" on="0"/>
        <pt x="1508" y="1280" on="1"/>
        <pt x="1497" y="1271" on="0"/>
        <pt x="1453" y="1253" on="1"/>
        <pt x="1409" y="1236" on="0"/>
        <pt x="1395" y="1210" on="1"/>
        <pt x="1382" y="1184" on="0"/>
        <pt x="1282" y="584" on="0"/>
        <pt x="1252" y="460" on="1"/>
        <pt x="1179" y="155" on="0"/>
        <pt x="954" y="45" on="1"/>
        <pt x="830" y="-16" on="0"/>
        <pt x="685" y="-16" on="1"/>
        <pt x="642" y="-16" on="1"/>
        <pt x="438" y="-16" on="0"/>
        <pt x="200" y="200" on="0"/>
        <pt x="200" y="408" on="1"/>
        <pt x="200" y="460" on="0"/>
        <pt x="254" y="801" on="1"/>
        <pt x="288" y="1001" on="1"/>
        <pt x="316" y="1167" on="0"/>
      </contour>
    </TTGlyph>
    <TTGlyph name="Ucircumflex" xMin="200" yMin="-19" xMax="1553" yMax="1851">
      <contour>
        <pt x="973" y="1851" on="1"/>
        <pt x="980" y="1851" on="1"/>
        <pt x="1028" y="1851" on="0"/>
        <pt x="1060" y="1806" on="1"/>
        <pt x="1229" y="1569" on="0"/>
        <pt x="1229" y="1555" on="1"/>
        <pt x="1229" y="1514" on="0"/>
        <pt x="1121" y="1514" on="0"/>
        <pt x="959" y="1663" on="0"/>
        <pt x="927" y="1663" on="0"/>
        <pt x="704" y="1514" on="0"/>
        <pt x="604" y="1514" on="0"/>
        <pt x="604" y="1543" on="1"/>
        <pt x="604" y="1561" on="0"/>
        <pt x="879" y="1813" on="1"/>
        <pt x="920" y="1851" on="0"/>
      </contour>
      <contour>
        <pt x="316" y="1165" on="0"/>
        <pt x="316" y="1226" on="0"/>
        <pt x="204" y="1291" on="0"/>
        <pt x="204" y="1317" on="1"/>
        <pt x="204" y="1363" on="0"/>
        <pt x="245" y="1393" on="0"/>
        <pt x="288" y="1393" on="1"/>
        <pt x="328" y="1393" on="1"/>
        <pt x="367" y="1392" on="1"/>
        <pt x="554" y="1393" on="1"/>
        <pt x="667" y="1393" on="0"/>
        <pt x="704" y="1360" on="1"/>
        <pt x="712" y="1346" on="1"/>
        <pt x="712" y="1323" on="0"/>
        <pt x="623" y="1242" on="0"/>
        <pt x="584" y="1163" on="0"/>
        <pt x="552" y="1032" on="1"/>
        <pt x="462" y="662" on="0"/>
        <pt x="462" y="406" on="1"/>
        <pt x="462" y="280" on="0"/>
        <pt x="611" y="146" on="0"/>
        <pt x="758" y="146" on="1"/>
        <pt x="856" y="146" on="0"/>
        <pt x="1010" y="262" on="0"/>
        <pt x="1097" y="444" on="0"/>
        <pt x="1212" y="1096" on="0"/>
        <pt x="1212" y="1196" on="1"/>
        <pt x="1212" y="1244" on="0"/>
        <pt x="1176" y="1272" on="1"/>
        <pt x="1118" y="1316" on="0"/>
        <pt x="1118" y="1328" on="1"/>
        <pt x="1118" y="1393" on="0"/>
        <pt x="1198" y="1393" on="1"/>
        <pt x="1237" y="1392" on="1"/>
        <pt x="1351" y="1391" on="1"/>
        <pt x="1553" y="1391" on="0"/>
        <pt x="1553" y="1367" on="1"/>
        <pt x="1553" y="1316" on="0"/>
        <pt x="1508" y="1278" on="1"/>
        <pt x="1495" y="1267" on="0"/>
        <pt x="1408" y="1232" on="0"/>
        <pt x="1382" y="1184" on="0"/>
        <pt x="1280" y="580" on="0"/>
        <pt x="1252" y="458" on="1"/>
        <pt x="1187" y="182" on="0"/>
        <pt x="987" y="61" on="1"/>
        <pt x="854" y="-19" on="0"/>
        <pt x="685" y="-19" on="1"/>
        <pt x="642" y="-19" on="1"/>
        <pt x="440" y="-19" on="0"/>
        <pt x="200" y="196" on="0"/>
        <pt x="200" y="405" on="1"/>
        <pt x="200" y="458" on="0"/>
        <pt x="254" y="799" on="1"/>
        <pt x="268" y="880" on="1"/>
        <pt x="270" y="894" on="0"/>
      </contour>
    </TTGlyph>
    <TTGlyph name="Udieresis" xMin="210" yMin="-15" xMax="1563" yMax="1800">
      <contour>
        <pt x="607" y="1635" on="1"/>
        <pt x="607" y="1656" on="1"/>
        <pt x="607" y="1704" on="0"/>
        <pt x="689" y="1800" on="0"/>
        <pt x="742" y="1800" on="1"/>
        <pt x="768" y="1800" on="1"/>
        <pt x="806" y="1800" on="0"/>
        <pt x="874" y="1732" on="0"/>
        <pt x="874" y="1689" on="1"/>
        <pt x="874" y="1671" on="1"/>
        <pt x="874" y="1624" on="0"/>
        <pt x="793" y="1527" on="0"/>
        <pt x="730" y="1527" on="1"/>
        <pt x="722" y="1527" on="1"/>
        <pt x="680" y="1527" on="0"/>
        <pt x="607" y="1588" on="0"/>
      </contour>
      <contour>
        <pt x="1137" y="1800" on="1"/>
        <pt x="1163" y="1800" on="1"/>
        <pt x="1202" y="1800" on="0"/>
        <pt x="1269" y="1733" on="0"/>
        <pt x="1269" y="1693" on="1"/>
        <pt x="1269" y="1667" on="1"/>
        <pt x="1269" y="1630" on="0"/>
        <pt x="1195" y="1527" on="0"/>
        <pt x="1134" y="1527" on="1"/>
        <pt x="1108" y="1527" on="1"/>
        <pt x="1100" y="1529" on="0"/>
        <pt x="1095" y="1529" on="1"/>
        <pt x="1061" y="1529" on="0"/>
        <pt x="1001" y="1601" on="0"/>
        <pt x="1001" y="1639" on="1"/>
        <pt x="1001" y="1652" on="1"/>
        <pt x="1005" y="1682" on="1"/>
        <pt x="1005" y="1715" on="0"/>
        <pt x="1090" y="1800" on="0"/>
      </contour>
      <contour>
        <pt x="210" y="409" on="1"/>
        <pt x="210" y="487" on="0"/>
        <pt x="326" y="1166" on="0"/>
        <pt x="326" y="1230" on="0"/>
        <pt x="214" y="1293" on="0"/>
        <pt x="214" y="1320" on="1"/>
        <pt x="214" y="1366" on="0"/>
        <pt x="257" y="1397" on="0"/>
        <pt x="298" y="1397" on="1"/>
        <pt x="338" y="1396" on="1"/>
        <pt x="563" y="1397" on="1"/>
        <pt x="677" y="1397" on="0"/>
        <pt x="714" y="1364" on="1"/>
        <pt x="722" y="1350" on="1"/>
        <pt x="722" y="1328" on="0"/>
        <pt x="630" y="1243" on="0"/>
        <pt x="595" y="1171" on="0"/>
        <pt x="562" y="1036" on="1"/>
        <pt x="472" y="666" on="0"/>
        <pt x="472" y="410" on="1"/>
        <pt x="472" y="283" on="0"/>
        <pt x="623" y="149" on="0"/>
        <pt x="768" y="149" on="1"/>
        <pt x="865" y="149" on="0"/>
        <pt x="1021" y="266" on="0"/>
        <pt x="1101" y="437" on="0"/>
        <pt x="1222" y="1068" on="0"/>
        <pt x="1222" y="1199" on="1"/>
        <pt x="1222" y="1249" on="0"/>
        <pt x="1186" y="1276" on="1"/>
        <pt x="1128" y="1320" on="0"/>
        <pt x="1128" y="1395" on="0"/>
        <pt x="1563" y="1395" on="0"/>
        <pt x="1563" y="1371" on="1"/>
        <pt x="1563" y="1319" on="0"/>
        <pt x="1518" y="1281" on="1"/>
        <pt x="1507" y="1272" on="0"/>
        <pt x="1418" y="1236" on="0"/>
        <pt x="1391" y="1185" on="0"/>
        <pt x="1339" y="877" on="1"/>
        <pt x="1288" y="570" on="0"/>
        <pt x="1260" y="454" on="1"/>
        <pt x="1197" y="187" on="0"/>
        <pt x="997" y="65" on="1"/>
        <pt x="866" y="-15" on="0"/>
        <pt x="695" y="-15" on="1"/>
        <pt x="652" y="-15" on="1"/>
        <pt x="550" y="-14" on="0"/>
        <pt x="465" y="16" on="1"/>
        <pt x="298" y="76" on="0"/>
        <pt x="241" y="217" on="1"/>
        <pt x="210" y="293" on="0"/>
        <pt x="210" y="369" on="1"/>
      </contour>
    </TTGlyph>
    <TTGlyph name="Ugrave" xMin="200" yMin="-17" xMax="1553" yMax="1830">
      <contour>
        <pt x="1012" y="1551" on="1"/>
        <pt x="1012" y="1546" on="1"/>
        <pt x="1012" y="1505" on="0"/>
        <pt x="969" y="1505" on="1"/>
        <pt x="964" y="1505" on="1"/>
        <pt x="912" y="1505" on="0"/>
        <pt x="611" y="1716" on="0"/>
        <pt x="611" y="1763" on="1"/>
        <pt x="611" y="1767" on="1"/>
        <pt x="611" y="1784" on="0"/>
        <pt x="676" y="1827" on="0"/>
        <pt x="729" y="1827" on="1"/>
        <pt x="757" y="1830" on="1"/>
        <pt x="762" y="1829" on="1"/>
        <pt x="811" y="1829" on="0"/>
        <pt x="853" y="1782" on="1"/>
        <pt x="1012" y="1603" on="0"/>
      </contour>
      <contour>
        <pt x="316" y="1167" on="0"/>
        <pt x="316" y="1228" on="0"/>
        <pt x="204" y="1293" on="0"/>
        <pt x="204" y="1319" on="1"/>
        <pt x="204" y="1365" on="0"/>
        <pt x="245" y="1395" on="0"/>
        <pt x="288" y="1395" on="1"/>
        <pt x="328" y="1395" on="1"/>
        <pt x="367" y="1394" on="1"/>
        <pt x="554" y="1395" on="1"/>
        <pt x="667" y="1395" on="0"/>
        <pt x="704" y="1362" on="1"/>
        <pt x="712" y="1348" on="1"/>
        <pt x="712" y="1325" on="0"/>
        <pt x="623" y="1244" on="0"/>
        <pt x="584" y="1165" on="0"/>
        <pt x="552" y="1034" on="1"/>
        <pt x="462" y="664" on="0"/>
        <pt x="462" y="408" on="1"/>
        <pt x="462" y="284" on="0"/>
        <pt x="609" y="148" on="0"/>
        <pt x="758" y="148" on="1"/>
        <pt x="856" y="148" on="0"/>
        <pt x="1010" y="264" on="0"/>
        <pt x="1096" y="444" on="0"/>
        <pt x="1212" y="1093" on="0"/>
        <pt x="1212" y="1198" on="1"/>
        <pt x="1212" y="1246" on="0"/>
        <pt x="1176" y="1274" on="1"/>
        <pt x="1118" y="1318" on="0"/>
        <pt x="1118" y="1330" on="1"/>
        <pt x="1118" y="1395" on="0"/>
        <pt x="1198" y="1395" on="1"/>
        <pt x="1237" y="1394" on="1"/>
        <pt x="1351" y="1394" on="1"/>
        <pt x="1553" y="1394" on="0"/>
        <pt x="1553" y="1370" on="1"/>
        <pt x="1553" y="1318" on="0"/>
        <pt x="1508" y="1280" on="1"/>
        <pt x="1495" y="1269" on="0"/>
        <pt x="1408" y="1234" on="0"/>
        <pt x="1381" y="1184" on="0"/>
        <pt x="1282" y="590" on="0"/>
        <pt x="1252" y="464" on="1"/>
        <pt x="1186" y="184" on="0"/>
        <pt x="987" y="63" on="1"/>
        <pt x="854" y="-17" on="0"/>
        <pt x="685" y="-17" on="1"/>
        <pt x="642" y="-17" on="1"/>
        <pt x="438" y="-17" on="0"/>
        <pt x="200" y="198" on="0"/>
        <pt x="200" y="407" on="1"/>
        <pt x="200" y="460" on="0"/>
        <pt x="254" y="801" on="1"/>
        <pt x="268" y="882" on="1"/>
        <pt x="270" y="896" on="0"/>
      </contour>
    </TTGlyph>
    <TTGlyph name="V" xMin="182" yMin="-19" xMax="1534" yMax="1358">
      <contour>
        <pt x="1123" y="1306" on="1"/>
        <pt x="1123" y="1358" on="0"/>
        <pt x="1346" y="1358" on="1"/>
        <pt x="1379" y="1358" on="1"/>
        <pt x="1491" y="1358" on="0"/>
        <pt x="1534" y="1338" on="0"/>
        <pt x="1534" y="1308" on="1"/>
        <pt x="1534" y="1285" on="1"/>
        <pt x="1534" y="1276" on="0"/>
        <pt x="1426" y="1201" on="1"/>
        <pt x="1373" y="1164" on="0"/>
        <pt x="1324" y="1082" on="1"/>
        <pt x="1316" y="1068" on="0"/>
        <pt x="1096" y="669" on="0"/>
        <pt x="750" y="61" on="0"/>
        <pt x="743" y="52" on="1"/>
        <pt x="686" y="-19" on="0"/>
        <pt x="614" y="-19" on="1"/>
        <pt x="567" y="-19" on="0"/>
        <pt x="543" y="63" on="1"/>
        <pt x="542" y="66" on="0"/>
        <pt x="327" y="1082" on="0"/>
        <pt x="295" y="1175" on="0"/>
        <pt x="182" y="1277" on="0"/>
        <pt x="182" y="1282" on="1"/>
        <pt x="182" y="1306" on="1"/>
        <pt x="182" y="1358" on="0"/>
        <pt x="273" y="1358" on="1"/>
        <pt x="307" y="1357" on="1"/>
        <pt x="408" y="1357" on="1"/>
        <pt x="566" y="1357" on="0"/>
        <pt x="597" y="1350" on="1"/>
        <pt x="667" y="1334" on="0"/>
        <pt x="667" y="1299" on="1"/>
        <pt x="667" y="1284" on="0"/>
        <pt x="585" y="1193" on="0"/>
        <pt x="585" y="1162" on="1"/>
        <pt x="585" y="992" on="0"/>
        <pt x="723" y="371" on="1"/>
        <pt x="729" y="344" on="0"/>
        <pt x="752" y="344" on="0"/>
        <pt x="864" y="545" on="1"/>
        <pt x="1179" y="1108" on="0"/>
        <pt x="1179" y="1169" on="1"/>
        <pt x="1179" y="1201" on="0"/>
        <pt x="1165" y="1231" on="1"/>
        <pt x="1153" y="1249" on="1"/>
        <pt x="1123" y="1284" on="0"/>
      </contour>
    </TTGlyph>
    <TTGlyph name="W" xMin="243" yMin="11" xMax="1995" yMax="1349">
      <contour>
        <pt x="1940" y="1347" on="1"/>
        <pt x="1995" y="1347" on="0"/>
        <pt x="1995" y="1305" on="1"/>
        <pt x="1995" y="1289" on="0"/>
        <pt x="1811" y="1001" on="0"/>
        <pt x="1776" y="931" on="0"/>
        <pt x="1426" y="144" on="0"/>
        <pt x="1385" y="70" on="0"/>
        <pt x="1295" y="11" on="0"/>
        <pt x="1261" y="11" on="1"/>
        <pt x="1204" y="11" on="0"/>
        <pt x="1181" y="71" on="1"/>
        <pt x="1170" y="114" on="1"/>
        <pt x="1049" y="808" on="1"/>
        <pt x="1038" y="846" on="1"/>
        <pt x="1017" y="816" on="1"/>
        <pt x="854" y="490" on="1"/>
        <pt x="669" y="125" on="0"/>
        <pt x="655" y="97" on="1"/>
        <pt x="630" y="52" on="1"/>
        <pt x="600" y="16" on="0"/>
        <pt x="504" y="16" on="0"/>
        <pt x="443" y="45" on="0"/>
        <pt x="429" y="91" on="1"/>
        <pt x="421" y="143" on="1"/>
        <pt x="415" y="190" on="0"/>
        <pt x="402" y="304" on="1"/>
        <pt x="389" y="411" on="1"/>
        <pt x="379" y="496" on="0"/>
        <pt x="376" y="518" on="1"/>
        <pt x="331" y="895" on="1"/>
        <pt x="323" y="946" on="1"/>
        <pt x="284" y="1082" on="1"/>
        <pt x="279" y="1134" on="1"/>
        <pt x="275" y="1158" on="0"/>
        <pt x="243" y="1255" on="0"/>
        <pt x="243" y="1290" on="0"/>
        <pt x="287" y="1349" on="0"/>
        <pt x="327" y="1349" on="1"/>
        <pt x="453" y="1349" on="0"/>
        <pt x="673" y="1289" on="0"/>
        <pt x="673" y="1235" on="1"/>
        <pt x="673" y="1210" on="0"/>
        <pt x="610" y="1097" on="0"/>
        <pt x="610" y="1003" on="1"/>
        <pt x="609" y="952" on="1"/>
        <pt x="608" y="901" on="0"/>
        <pt x="608" y="851" on="1"/>
        <pt x="608" y="675" on="0"/>
        <pt x="654" y="532" on="1"/>
        <pt x="665" y="499" on="0"/>
        <pt x="677" y="499" on="1"/>
        <pt x="710" y="499" on="0"/>
        <pt x="803" y="706" on="1"/>
        <pt x="836" y="781" on="0"/>
        <pt x="881" y="944" on="1"/>
        <pt x="926" y="1106" on="0"/>
        <pt x="960" y="1170" on="1"/>
        <pt x="1036" y="1310" on="0"/>
        <pt x="1142" y="1310" on="1"/>
        <pt x="1204" y="1310" on="0"/>
        <pt x="1250" y="1226" on="0"/>
        <pt x="1250" y="1114" on="1"/>
        <pt x="1246" y="1070" on="1"/>
        <pt x="1243" y="1025" on="1"/>
        <pt x="1251" y="972" on="1"/>
        <pt x="1261" y="918" on="1"/>
        <pt x="1272" y="858" on="0"/>
        <pt x="1329" y="529" on="0"/>
        <pt x="1344" y="485" on="1"/>
        <pt x="1356" y="458" on="1"/>
        <pt x="1394" y="458" on="0"/>
        <pt x="1637" y="1028" on="0"/>
        <pt x="1637" y="1115" on="1"/>
        <pt x="1637" y="1161" on="0"/>
        <pt x="1602" y="1234" on="0"/>
        <pt x="1602" y="1251" on="1"/>
        <pt x="1602" y="1289" on="0"/>
        <pt x="1677" y="1311" on="1"/>
        <pt x="1800" y="1347" on="0"/>
      </contour>
    </TTGlyph>
    <TTGlyph name="X" xMin="27" yMin="-2" xMax="1480" yMax="1359">
      <contour>
        <pt x="682" y="517" on="1"/>
        <pt x="641" y="517" on="0"/>
        <pt x="468" y="267" on="1"/>
        <pt x="412" y="186" on="0"/>
        <pt x="412" y="121" on="1"/>
        <pt x="420" y="101" on="1"/>
        <pt x="434" y="80" on="1"/>
        <pt x="442" y="62" on="1"/>
        <pt x="442" y="16" on="0"/>
        <pt x="400" y="5" on="1"/>
        <pt x="373" y="-2" on="0"/>
        <pt x="275" y="-2" on="1"/>
        <pt x="233" y="-2" on="1"/>
        <pt x="80" y="-2" on="0"/>
        <pt x="27" y="26" on="0"/>
        <pt x="27" y="95" on="0"/>
        <pt x="82" y="127" on="1"/>
        <pt x="198" y="194" on="0"/>
        <pt x="217" y="212" on="1"/>
        <pt x="294" y="284" on="0"/>
        <pt x="589" y="647" on="0"/>
        <pt x="589" y="738" on="1"/>
        <pt x="589" y="806" on="0"/>
        <pt x="429" y="1069" on="1"/>
        <pt x="387" y="1138" on="0"/>
        <pt x="256" y="1264" on="0"/>
        <pt x="256" y="1314" on="0"/>
        <pt x="287" y="1325" on="1"/>
        <pt x="366" y="1354" on="0"/>
        <pt x="674" y="1354" on="1"/>
        <pt x="749" y="1354" on="0"/>
        <pt x="749" y="1314" on="1"/>
        <pt x="749" y="1295" on="0"/>
        <pt x="670" y="1228" on="0"/>
        <pt x="670" y="1163" on="0"/>
        <pt x="778" y="935" on="1"/>
        <pt x="805" y="879" on="0"/>
        <pt x="815" y="879" on="1"/>
        <pt x="858" y="879" on="0"/>
        <pt x="1000" y="1064" on="1"/>
        <pt x="1078" y="1166" on="0"/>
        <pt x="1078" y="1215" on="1"/>
        <pt x="1078" y="1224" on="0"/>
        <pt x="1040" y="1283" on="0"/>
        <pt x="1040" y="1314" on="1"/>
        <pt x="1040" y="1359" on="0"/>
        <pt x="1419" y="1359" on="0"/>
        <pt x="1480" y="1342" on="0"/>
        <pt x="1480" y="1262" on="0"/>
        <pt x="1447" y="1241" on="1"/>
        <pt x="1370" y="1216" on="1"/>
        <pt x="1307" y="1195" on="0"/>
        <pt x="1269" y="1157" on="1"/>
        <pt x="1035" y="923" on="0"/>
        <pt x="935" y="767" on="1"/>
        <pt x="909" y="726" on="0"/>
        <pt x="909" y="701" on="1"/>
        <pt x="909" y="633" on="0"/>
        <pt x="1105" y="267" on="1"/>
        <pt x="1146" y="190" on="0"/>
        <pt x="1195" y="152" on="1"/>
        <pt x="1287" y="80" on="0"/>
        <pt x="1287" y="-2" on="0"/>
        <pt x="1108" y="-2" on="1"/>
        <pt x="1025" y="-2" on="1"/>
        <pt x="984" y="-1" on="1"/>
        <pt x="875" y="-1" on="0"/>
        <pt x="770" y="21" on="0"/>
        <pt x="770" y="62" on="1"/>
        <pt x="770" y="81" on="0"/>
        <pt x="850" y="154" on="0"/>
        <pt x="850" y="194" on="1"/>
        <pt x="850" y="262" on="0"/>
        <pt x="742" y="448" on="1"/>
        <pt x="702" y="517" on="0"/>
      </contour>
    </TTGlyph>
    <TTGlyph name="Y" xMin="193" yMin="-3" xMax="1441" yMax="1359">
      <contour>
        <pt x="1019" y="1308" on="1"/>
        <pt x="1019" y="1358" on="0"/>
        <pt x="1222" y="1358" on="1"/>
        <pt x="1253" y="1359" on="1"/>
        <pt x="1441" y="1359" on="0"/>
        <pt x="1441" y="1320" on="1"/>
        <pt x="1441" y="1259" on="0"/>
        <pt x="1271" y="1171" on="0"/>
        <pt x="1242" y="1135" on="1"/>
        <pt x="1017" y="858" on="0"/>
        <pt x="862" y="621" on="1"/>
        <pt x="826" y="566" on="0"/>
        <pt x="772" y="332" on="0"/>
        <pt x="772" y="187" on="0"/>
        <pt x="814" y="145" on="1"/>
        <pt x="885" y="74" on="0"/>
        <pt x="885" y="55" on="1"/>
        <pt x="885" y="-3" on="0"/>
        <pt x="794" y="-3" on="1"/>
        <pt x="760" y="-2" on="1"/>
        <pt x="495" y="-1" on="1"/>
        <pt x="404" y="-1" on="0"/>
        <pt x="395" y="0" on="1"/>
        <pt x="335" y="7" on="0"/>
        <pt x="335" y="48" on="1"/>
        <pt x="335" y="65" on="0"/>
        <pt x="360" y="87" on="1"/>
        <pt x="382" y="103" on="1"/>
        <pt x="417" y="127" on="0"/>
        <pt x="427" y="138" on="1"/>
        <pt x="472" y="190" on="0"/>
        <pt x="549" y="368" on="0"/>
        <pt x="549" y="684" on="0"/>
        <pt x="353" y="1112" on="1"/>
        <pt x="321" y="1182" on="0"/>
        <pt x="193" y="1260" on="0"/>
        <pt x="193" y="1307" on="1"/>
        <pt x="193" y="1337" on="0"/>
        <pt x="240" y="1352" on="1"/>
        <pt x="259" y="1358" on="0"/>
        <pt x="435" y="1358" on="1"/>
        <pt x="532" y="1359" on="1"/>
        <pt x="562" y="1359" on="1"/>
        <pt x="595" y="1359" on="0"/>
        <pt x="663" y="1318" on="0"/>
        <pt x="663" y="1295" on="1"/>
        <pt x="630" y="1201" on="0"/>
        <pt x="630" y="1168" on="1"/>
        <pt x="630" y="1075" on="0"/>
        <pt x="734" y="817" on="1"/>
        <pt x="758" y="757" on="0"/>
        <pt x="771" y="757" on="1"/>
        <pt x="789" y="757" on="0"/>
        <pt x="886" y="890" on="1"/>
        <pt x="1073" y="1147" on="0"/>
        <pt x="1073" y="1201" on="1"/>
        <pt x="1073" y="1209" on="0"/>
        <pt x="1019" y="1298" on="0"/>
      </contour>
    </TTGlyph>
    <TTGlyph name="Yacute" xMin="182" yMin="3" xMax="1446" yMax="1830">
      <contour>
        <pt x="769" y="1503" on="1"/>
        <pt x="754" y="1503" on="1"/>
        <pt x="718" y="1503" on="0"/>
        <pt x="718" y="1541" on="1"/>
        <pt x="718" y="1546" on="1"/>
        <pt x="718" y="1549" on="0"/>
        <pt x="968" y="1830" on="0"/>
        <pt x="1023" y="1830" on="1"/>
        <pt x="1029" y="1830" on="1"/>
        <pt x="1034" y="1829" on="1"/>
        <pt x="1057" y="1827" on="1"/>
        <pt x="1063" y="1826" on="0"/>
        <pt x="1069" y="1826" on="1"/>
        <pt x="1110" y="1826" on="0"/>
        <pt x="1160" y="1796" on="1"/>
        <pt x="1175" y="1787" on="0"/>
        <pt x="1175" y="1772" on="1"/>
        <pt x="1175" y="1729" on="0"/>
        <pt x="1056" y="1653" on="1"/>
        <pt x="820" y="1503" on="0"/>
      </contour>
      <contour>
        <pt x="182" y="1332" on="1"/>
        <pt x="182" y="1349" on="1"/>
        <pt x="182" y="1377" on="0"/>
        <pt x="231" y="1390" on="1"/>
        <pt x="246" y="1394" on="0"/>
        <pt x="397" y="1394" on="1"/>
        <pt x="462" y="1395" on="1"/>
        <pt x="494" y="1396" on="1"/>
        <pt x="556" y="1396" on="1"/>
        <pt x="595" y="1396" on="0"/>
        <pt x="660" y="1358" on="0"/>
        <pt x="660" y="1328" on="1"/>
        <pt x="660" y="1324" on="0"/>
        <pt x="629" y="1229" on="0"/>
        <pt x="629" y="1199" on="1"/>
        <pt x="629" y="1114" on="0"/>
        <pt x="739" y="841" on="1"/>
        <pt x="764" y="780" on="0"/>
        <pt x="791" y="780" on="0"/>
        <pt x="1077" y="1187" on="0"/>
        <pt x="1077" y="1238" on="1"/>
        <pt x="1077" y="1247" on="0"/>
        <pt x="1024" y="1333" on="0"/>
        <pt x="1024" y="1348" on="1"/>
        <pt x="1034" y="1364" on="1"/>
        <pt x="1066" y="1395" on="0"/>
        <pt x="1446" y="1395" on="0"/>
        <pt x="1446" y="1304" on="0"/>
        <pt x="1272" y="1195" on="0"/>
        <pt x="1245" y="1162" on="1"/>
        <pt x="1015" y="885" on="0"/>
        <pt x="865" y="641" on="1"/>
        <pt x="834" y="590" on="0"/>
        <pt x="780" y="360" on="0"/>
        <pt x="780" y="242" on="1"/>
        <pt x="780" y="193" on="0"/>
        <pt x="873" y="70" on="0"/>
        <pt x="873" y="41" on="1"/>
        <pt x="873" y="3" on="0"/>
        <pt x="784" y="3" on="1"/>
        <pt x="750" y="4" on="1"/>
        <pt x="715" y="5" on="0"/>
        <pt x="678" y="5" on="1"/>
        <pt x="548" y="6" on="1"/>
        <pt x="331" y="6" on="0"/>
        <pt x="331" y="40" on="1"/>
        <pt x="331" y="79" on="0"/>
        <pt x="445" y="149" on="0"/>
        <pt x="471" y="200" on="1"/>
        <pt x="540" y="335" on="0"/>
        <pt x="540" y="565" on="1"/>
        <pt x="540" y="637" on="0"/>
        <pt x="509" y="719" on="1"/>
        <pt x="379" y="1064" on="0"/>
        <pt x="336" y="1153" on="1"/>
        <pt x="315" y="1196" on="0"/>
        <pt x="182" y="1305" on="0"/>
      </contour>
    </TTGlyph>
    <TTGlyph name="Ydieresis" xMin="201" yMin="-41" xMax="1411" yMax="1710">
      <contour>
        <pt x="633" y="1442" on="1"/>
        <pt x="528" y="1442" on="0"/>
        <pt x="528" y="1542" on="1"/>
        <pt x="528" y="1551" on="1"/>
        <pt x="529" y="1555" on="1"/>
        <pt x="529" y="1616" on="0"/>
        <pt x="580" y="1677" on="1"/>
        <pt x="608" y="1710" on="0"/>
        <pt x="664" y="1710" on="1"/>
        <pt x="686" y="1710" on="1"/>
        <pt x="698" y="1707" on="0"/>
        <pt x="733" y="1707" on="0"/>
        <pt x="782" y="1658" on="0"/>
        <pt x="782" y="1613" on="1"/>
        <pt x="782" y="1588" on="1"/>
        <pt x="779" y="1576" on="0"/>
        <pt x="779" y="1567" on="1"/>
        <pt x="779" y="1516" on="0"/>
        <pt x="692" y="1442" on="0"/>
        <pt x="646" y="1442" on="1"/>
      </contour>
      <contour>
        <pt x="1002" y="1442" on="1"/>
        <pt x="963" y="1442" on="0"/>
        <pt x="906" y="1490" on="0"/>
        <pt x="906" y="1534" on="1"/>
        <pt x="906" y="1564" on="1"/>
        <pt x="909" y="1576" on="0"/>
        <pt x="909" y="1585" on="1"/>
        <pt x="909" y="1644" on="0"/>
        <pt x="1002" y="1710" on="0"/>
        <pt x="1042" y="1710" on="1"/>
        <pt x="1059" y="1710" on="1"/>
        <pt x="1103" y="1710" on="0"/>
        <pt x="1157" y="1665" on="0"/>
        <pt x="1157" y="1630" on="1"/>
        <pt x="1160" y="1605" on="1"/>
        <pt x="1160" y="1592" on="1"/>
        <pt x="1160" y="1537" on="0"/>
        <pt x="1083" y="1445" on="0"/>
        <pt x="1044" y="1445" on="1"/>
        <pt x="1024" y="1442" on="1"/>
      </contour>
      <contour>
        <pt x="336" y="-12" on="1"/>
        <pt x="336" y="-5" on="0"/>
        <pt x="474" y="164" on="0"/>
        <pt x="546" y="345" on="0"/>
        <pt x="546" y="512" on="1"/>
        <pt x="546" y="618" on="0"/>
        <pt x="353" y="1049" on="1"/>
        <pt x="326" y="1110" on="0"/>
        <pt x="201" y="1225" on="0"/>
        <pt x="201" y="1239" on="1"/>
        <pt x="201" y="1272" on="0"/>
        <pt x="235" y="1291" on="1"/>
        <pt x="250" y="1299" on="0"/>
        <pt x="392" y="1299" on="1"/>
        <pt x="485" y="1301" on="1"/>
        <pt x="516" y="1302" on="1"/>
        <pt x="545" y="1302" on="1"/>
        <pt x="602" y="1302" on="0"/>
        <pt x="637" y="1268" on="1"/>
        <pt x="649" y="1256" on="0"/>
        <pt x="649" y="1240" on="1"/>
        <pt x="645" y="1223" on="1"/>
        <pt x="630" y="1180" on="1"/>
        <pt x="620" y="1142" on="0"/>
        <pt x="620" y="1105" on="1"/>
        <pt x="620" y="1002" on="0"/>
        <pt x="723" y="765" on="1"/>
        <pt x="747" y="710" on="0"/>
        <pt x="761" y="710" on="1"/>
        <pt x="786" y="710" on="0"/>
        <pt x="975" y="988" on="1"/>
        <pt x="1057" y="1109" on="0"/>
        <pt x="1057" y="1172" on="1"/>
        <pt x="1044" y="1188" on="1"/>
        <pt x="1028" y="1204" on="1"/>
        <pt x="1002" y="1234" on="0"/>
        <pt x="1002" y="1252" on="1"/>
        <pt x="1013" y="1269" on="1"/>
        <pt x="1045" y="1301" on="0"/>
        <pt x="1411" y="1301" on="0"/>
        <pt x="1411" y="1258" on="1"/>
        <pt x="1411" y="1204" on="0"/>
        <pt x="1296" y="1142" on="1"/>
        <pt x="1260" y="1122" on="0"/>
        <pt x="1236" y="1096" on="1"/>
        <pt x="1019" y="856" on="0"/>
        <pt x="823" y="549" on="1"/>
        <pt x="803" y="518" on="0"/>
        <pt x="750" y="234" on="0"/>
        <pt x="750" y="211" on="1"/>
        <pt x="750" y="158" on="0"/>
        <pt x="870" y="45" on="0"/>
        <pt x="870" y="-9" on="1"/>
        <pt x="870" y="-41" on="0"/>
        <pt x="808" y="-41" on="1"/>
        <pt x="780" y="-40" on="1"/>
        <pt x="711" y="-39" on="1"/>
        <pt x="643" y="-37" on="1"/>
        <pt x="551" y="-37" on="1"/>
        <pt x="423" y="-39" on="1"/>
        <pt x="336" y="-39" on="0"/>
      </contour>
    </TTGlyph>
    <TTGlyph name="Z" xMin="46" yMin="-3" xMax="1268" yMax="1359">
      <contour>
        <pt x="910" y="1188" on="1"/>
        <pt x="910" y="1215" on="0"/>
        <pt x="632" y="1215" on="0"/>
        <pt x="529" y="1173" on="1"/>
        <pt x="489" y="1157" on="0"/>
        <pt x="300" y="997" on="0"/>
        <pt x="293" y="997" on="1"/>
        <pt x="251" y="997" on="0"/>
        <pt x="251" y="1041" on="1"/>
        <pt x="251" y="1139" on="0"/>
        <pt x="324" y="1323" on="0"/>
        <pt x="336" y="1334" on="1"/>
        <pt x="363" y="1359" on="0"/>
        <pt x="745" y="1359" on="1"/>
        <pt x="937" y="1359" on="1"/>
        <pt x="1133" y="1359" on="0"/>
        <pt x="1169" y="1354" on="1"/>
        <pt x="1268" y="1340" on="0"/>
        <pt x="1268" y="1308" on="1"/>
        <pt x="1268" y="1259" on="0"/>
        <pt x="1161" y="1110" on="0"/>
        <pt x="405" y="211" on="0"/>
        <pt x="405" y="161" on="1"/>
        <pt x="405" y="141" on="0"/>
        <pt x="808" y="141" on="0"/>
        <pt x="892" y="183" on="1"/>
        <pt x="942" y="208" on="0"/>
        <pt x="1076" y="401" on="0"/>
        <pt x="1142" y="401" on="0"/>
        <pt x="1142" y="369" on="1"/>
        <pt x="1142" y="308" on="0"/>
        <pt x="1083" y="67" on="0"/>
        <pt x="1069" y="45" on="1"/>
        <pt x="1038" y="-3" on="0"/>
        <pt x="793" y="-3" on="1"/>
        <pt x="712" y="-3" on="1"/>
        <pt x="673" y="-2" on="1"/>
        <pt x="166" y="-3" on="1"/>
        <pt x="126" y="-3" on="1"/>
        <pt x="46" y="-3" on="0"/>
        <pt x="46" y="34" on="1"/>
        <pt x="46" y="65" on="1"/>
        <pt x="46" y="126" on="0"/>
        <pt x="910" y="1145" on="0"/>
      </contour>
    </TTGlyph>
    <TTGlyph name="Zcaron" xMin="37" yMin="-28" xMax="1251" yMax="1755">
      <contour>
        <pt x="798" y="1440" on="1"/>
        <pt x="783" y="1440" on="1"/>
        <pt x="735" y="1440" on="0"/>
        <pt x="703" y="1487" on="1"/>
        <pt x="666" y="1540" on="1"/>
        <pt x="661" y="1546" on="1"/>
        <pt x="643" y="1578" on="0"/>
        <pt x="548" y="1701" on="0"/>
        <pt x="548" y="1709" on="1"/>
        <pt x="548" y="1715" on="1"/>
        <pt x="548" y="1755" on="0"/>
        <pt x="608" y="1755" on="1"/>
        <pt x="643" y="1755" on="0"/>
        <pt x="810" y="1614" on="0"/>
        <pt x="827" y="1614" on="0"/>
        <pt x="1058" y="1753" on="0"/>
        <pt x="1142" y="1753" on="0"/>
        <pt x="1142" y="1721" on="1"/>
        <pt x="1142" y="1714" on="1"/>
        <pt x="1142" y="1707" on="0"/>
        <pt x="1021" y="1597" on="0"/>
        <pt x="921" y="1497" on="0"/>
        <pt x="845" y="1440" on="0"/>
      </contour>
      <contour>
        <pt x="742" y="1313" on="1"/>
        <pt x="1128" y="1313" on="1"/>
        <pt x="1221" y="1313" on="0"/>
        <pt x="1251" y="1290" on="0"/>
        <pt x="1251" y="1252" on="1"/>
        <pt x="1251" y="1202" on="0"/>
        <pt x="387" y="175" on="0"/>
        <pt x="387" y="141" on="1"/>
        <pt x="387" y="117" on="0"/>
        <pt x="772" y="117" on="0"/>
        <pt x="856" y="159" on="1"/>
        <pt x="895" y="179" on="0"/>
        <pt x="1066" y="357" on="0"/>
        <pt x="1114" y="357" on="0"/>
        <pt x="1114" y="325" on="1"/>
        <pt x="1114" y="266" on="0"/>
        <pt x="1067" y="43" on="0"/>
        <pt x="1049" y="18" on="1"/>
        <pt x="1016" y="-28" on="0"/>
        <pt x="770" y="-28" on="1"/>
        <pt x="384" y="-28" on="1"/>
        <pt x="343" y="-27" on="1"/>
        <pt x="113" y="-28" on="1"/>
        <pt x="37" y="-28" on="0"/>
        <pt x="37" y="13" on="1"/>
        <pt x="37" y="66" on="0"/>
        <pt x="145" y="206" on="1"/>
        <pt x="199" y="276" on="0"/>
        <pt x="899" y="1100" on="0"/>
        <pt x="899" y="1116" on="1"/>
        <pt x="899" y="1158" on="0"/>
        <pt x="874" y="1169" on="0"/>
        <pt x="586" y="1169" on="0"/>
        <pt x="501" y="1125" on="1"/>
        <pt x="458" y="1103" on="0"/>
        <pt x="288" y="925" on="0"/>
        <pt x="276" y="925" on="1"/>
        <pt x="240" y="925" on="0"/>
        <pt x="240" y="937" on="1"/>
        <pt x="240" y="1108" on="0"/>
        <pt x="293" y="1242" on="1"/>
        <pt x="307" y="1278" on="0"/>
        <pt x="329" y="1289" on="1"/>
        <pt x="376" y="1313" on="0"/>
      </contour>
    </TTGlyph>
    <TTGlyph name="a" xMin="55" yMin="-11" xMax="1034" yMax="938">
      <contour>
        <pt x="720" y="736" on="1"/>
        <pt x="720" y="766" on="0"/>
        <pt x="670" y="808" on="0"/>
        <pt x="620" y="808" on="1"/>
        <pt x="596" y="808" on="1"/>
        <pt x="499" y="808" on="0"/>
        <pt x="417" y="703" on="1"/>
        <pt x="371" y="644" on="0"/>
        <pt x="308" y="466" on="0"/>
        <pt x="308" y="410" on="1"/>
        <pt x="306" y="393" on="1"/>
        <pt x="306" y="341" on="1"/>
        <pt x="306" y="258" on="0"/>
        <pt x="375" y="158" on="0"/>
        <pt x="419" y="158" on="1"/>
        <pt x="462" y="158" on="0"/>
        <pt x="520" y="195" on="1"/>
        <pt x="641" y="273" on="0"/>
        <pt x="683" y="465" on="1"/>
        <pt x="718" y="623" on="0"/>
        <pt x="718" y="679" on="1"/>
        <pt x="720" y="721" on="1"/>
      </contour>
      <contour>
        <pt x="996" y="832" on="1"/>
        <pt x="996" y="814" on="0"/>
        <pt x="903" y="361" on="0"/>
        <pt x="903" y="230" on="0"/>
        <pt x="928" y="199" on="0"/>
        <pt x="1034" y="199" on="0"/>
        <pt x="1034" y="148" on="1"/>
        <pt x="1034" y="76" on="0"/>
        <pt x="968" y="41" on="1"/>
        <pt x="881" y="-5" on="0"/>
        <pt x="715" y="-5" on="0"/>
        <pt x="676" y="36" on="1"/>
        <pt x="667" y="46" on="0"/>
        <pt x="632" y="147" on="0"/>
        <pt x="619" y="147" on="0"/>
        <pt x="562" y="98" on="1"/>
        <pt x="435" y="-11" on="0"/>
        <pt x="197" y="-11" on="0"/>
        <pt x="55" y="168" on="0"/>
        <pt x="55" y="300" on="1"/>
        <pt x="55" y="559" on="0"/>
        <pt x="220" y="744" on="1"/>
        <pt x="302" y="835" on="0"/>
        <pt x="526" y="938" on="0"/>
        <pt x="626" y="938" on="1"/>
        <pt x="665" y="938" on="1"/>
        <pt x="704" y="938" on="0"/>
        <pt x="821" y="912" on="0"/>
        <pt x="861" y="912" on="1"/>
        <pt x="894" y="914" on="1"/>
        <pt x="922" y="913" on="1"/>
        <pt x="996" y="913" on="0"/>
      </contour>
    </TTGlyph>
    <TTGlyph name="aacute" xMin="60" yMin="8" xMax="1039" yMax="1450">
      <contour>
        <pt x="725" y="755" on="1"/>
        <pt x="725" y="827" on="0"/>
        <pt x="617" y="827" on="1"/>
        <pt x="601" y="827" on="1"/>
        <pt x="511" y="827" on="0"/>
        <pt x="422" y="722" on="1"/>
        <pt x="378" y="670" on="0"/>
        <pt x="314" y="488" on="0"/>
        <pt x="314" y="438" on="1"/>
        <pt x="311" y="412" on="1"/>
        <pt x="311" y="360" on="1"/>
        <pt x="311" y="283" on="0"/>
        <pt x="376" y="177" on="0"/>
        <pt x="431" y="177" on="1"/>
        <pt x="439" y="178" on="1"/>
        <pt x="446" y="178" on="1"/>
        <pt x="473" y="178" on="0"/>
        <pt x="592" y="258" on="0"/>
        <pt x="631" y="331" on="1"/>
        <pt x="721" y="500" on="0"/>
        <pt x="721" y="672" on="1"/>
        <pt x="723" y="688" on="0"/>
        <pt x="723" y="698" on="1"/>
        <pt x="725" y="732" on="1"/>
      </contour>
      <contour>
        <pt x="969" y="1405" on="1"/>
        <pt x="969" y="1394" on="1"/>
        <pt x="969" y="1369" on="0"/>
        <pt x="655" y="1090" on="0"/>
        <pt x="609" y="1090" on="1"/>
        <pt x="543" y="1090" on="0"/>
        <pt x="543" y="1119" on="1"/>
        <pt x="543" y="1163" on="0"/>
        <pt x="723" y="1394" on="1"/>
        <pt x="767" y="1450" on="0"/>
        <pt x="823" y="1450" on="1"/>
        <pt x="840" y="1450" on="1"/>
        <pt x="888" y="1446" on="1"/>
        <pt x="969" y="1446" on="0"/>
      </contour>
      <contour>
        <pt x="1001" y="851" on="1"/>
        <pt x="1001" y="833" on="0"/>
        <pt x="908" y="380" on="0"/>
        <pt x="908" y="250" on="0"/>
        <pt x="932" y="218" on="0"/>
        <pt x="1039" y="218" on="0"/>
        <pt x="1039" y="167" on="1"/>
        <pt x="1039" y="95" on="0"/>
        <pt x="973" y="60" on="1"/>
        <pt x="886" y="14" on="0"/>
        <pt x="718" y="14" on="0"/>
        <pt x="681" y="55" on="1"/>
        <pt x="671" y="66" on="0"/>
        <pt x="636" y="166" on="0"/>
        <pt x="628" y="166" on="1"/>
        <pt x="622" y="166" on="0"/>
        <pt x="568" y="118" on="1"/>
        <pt x="445" y="8" on="0"/>
        <pt x="201" y="8" on="0"/>
        <pt x="60" y="186" on="0"/>
        <pt x="60" y="318" on="1"/>
        <pt x="60" y="580" on="0"/>
        <pt x="225" y="763" on="1"/>
        <pt x="299" y="845" on="0"/>
        <pt x="522" y="957" on="0"/>
        <pt x="631" y="957" on="1"/>
        <pt x="670" y="957" on="1"/>
        <pt x="709" y="957" on="0"/>
        <pt x="826" y="931" on="0"/>
        <pt x="866" y="931" on="1"/>
        <pt x="900" y="933" on="1"/>
        <pt x="927" y="932" on="1"/>
        <pt x="1001" y="932" on="0"/>
      </contour>
    </TTGlyph>
    <TTGlyph name="acircumflex" xMin="58" yMin="5" xMax="1037" yMax="1472">
      <contour>
        <pt x="723" y="752" on="1"/>
        <pt x="723" y="824" on="0"/>
        <pt x="615" y="824" on="1"/>
        <pt x="607" y="824" on="1"/>
        <pt x="509" y="824" on="0"/>
        <pt x="420" y="719" on="1"/>
        <pt x="377" y="668" on="0"/>
        <pt x="312" y="484" on="0"/>
        <pt x="312" y="435" on="1"/>
        <pt x="309" y="409" on="1"/>
        <pt x="309" y="357" on="1"/>
        <pt x="309" y="284" on="0"/>
        <pt x="372" y="174" on="0"/>
        <pt x="429" y="174" on="1"/>
        <pt x="437" y="175" on="1"/>
        <pt x="444" y="175" on="1"/>
        <pt x="471" y="175" on="0"/>
        <pt x="590" y="255" on="0"/>
        <pt x="629" y="328" on="1"/>
        <pt x="719" y="497" on="0"/>
        <pt x="719" y="669" on="1"/>
        <pt x="721" y="685" on="0"/>
        <pt x="721" y="695" on="1"/>
        <pt x="723" y="729" on="1"/>
      </contour>
      <contour>
        <pt x="666" y="1472" on="0"/>
        <pt x="761" y="1472" on="0"/>
        <pt x="787" y="1435" on="1"/>
        <pt x="948" y="1202" on="0"/>
        <pt x="948" y="1138" on="1"/>
        <pt x="948" y="1094" on="0"/>
        <pt x="889" y="1094" on="1"/>
        <pt x="881" y="1094" on="1"/>
        <pt x="851" y="1094" on="0"/>
        <pt x="687" y="1271" on="0"/>
        <pt x="671" y="1271" on="0"/>
        <pt x="451" y="1095" on="0"/>
        <pt x="356" y="1095" on="0"/>
        <pt x="356" y="1128" on="1"/>
        <pt x="356" y="1134" on="1"/>
        <pt x="356" y="1141" on="0"/>
        <pt x="391" y="1179" on="1"/>
        <pt x="421" y="1210" on="1"/>
        <pt x="427" y="1216" on="0"/>
        <pt x="439" y="1229" on="1"/>
        <pt x="584" y="1389" on="1"/>
        <pt x="615" y="1425" on="0"/>
      </contour>
      <contour>
        <pt x="999" y="848" on="1"/>
        <pt x="999" y="830" on="0"/>
        <pt x="906" y="377" on="0"/>
        <pt x="906" y="247" on="0"/>
        <pt x="930" y="215" on="0"/>
        <pt x="1037" y="215" on="0"/>
        <pt x="1037" y="164" on="1"/>
        <pt x="1037" y="94" on="0"/>
        <pt x="889" y="11" on="0"/>
        <pt x="716" y="11" on="0"/>
        <pt x="679" y="52" on="1"/>
        <pt x="669" y="63" on="0"/>
        <pt x="634" y="163" on="0"/>
        <pt x="626" y="163" on="1"/>
        <pt x="620" y="163" on="0"/>
        <pt x="566" y="115" on="1"/>
        <pt x="443" y="5" on="0"/>
        <pt x="325" y="5" on="1"/>
        <pt x="306" y="5" on="1"/>
        <pt x="199" y="5" on="0"/>
        <pt x="58" y="183" on="0"/>
        <pt x="58" y="312" on="1"/>
        <pt x="58" y="575" on="0"/>
        <pt x="223" y="760" on="1"/>
        <pt x="297" y="842" on="0"/>
        <pt x="520" y="954" on="0"/>
        <pt x="629" y="954" on="1"/>
        <pt x="668" y="954" on="1"/>
        <pt x="703" y="954" on="0"/>
        <pt x="820" y="928" on="0"/>
        <pt x="864" y="928" on="1"/>
        <pt x="898" y="930" on="1"/>
        <pt x="925" y="929" on="1"/>
        <pt x="999" y="929" on="0"/>
      </contour>
    </TTGlyph>
    <TTGlyph name="acute" xMin="233" yMin="1075" xMax="658" yMax="1439">
      <contour>
        <pt x="658" y="1396" on="1"/>
        <pt x="658" y="1386" on="1"/>
        <pt x="658" y="1362" on="0"/>
        <pt x="339" y="1075" on="0"/>
        <pt x="299" y="1075" on="1"/>
        <pt x="233" y="1075" on="0"/>
        <pt x="233" y="1104" on="1"/>
        <pt x="233" y="1109" on="1"/>
        <pt x="233" y="1154" on="0"/>
        <pt x="411" y="1383" on="1"/>
        <pt x="455" y="1439" on="0"/>
        <pt x="509" y="1439" on="1"/>
        <pt x="545" y="1439" on="1"/>
        <pt x="658" y="1439" on="0"/>
      </contour>
    </TTGlyph>
    <TTGlyph name="adieresis" xMin="62" yMin="10" xMax="1040" yMax="1396">
      <contour>
        <pt x="425" y="179" on="1"/>
        <pt x="440" y="179" on="1"/>
        <pt x="493" y="179" on="0"/>
        <pt x="616" y="293" on="0"/>
        <pt x="645" y="355" on="1"/>
        <pt x="726" y="529" on="0"/>
        <pt x="726" y="733" on="1"/>
        <pt x="727" y="749" on="1"/>
        <pt x="727" y="784" on="0"/>
        <pt x="678" y="828" on="0"/>
        <pt x="627" y="828" on="1"/>
        <pt x="602" y="828" on="1"/>
        <pt x="555" y="828" on="0"/>
        <pt x="445" y="757" on="0"/>
        <pt x="408" y="702" on="1"/>
        <pt x="312" y="558" on="0"/>
        <pt x="312" y="396" on="1"/>
        <pt x="312" y="370" on="1"/>
        <pt x="312" y="280" on="0"/>
        <pt x="382" y="179" on="0"/>
      </contour>
      <contour>
        <pt x="505" y="1396" on="1"/>
        <pt x="542" y="1396" on="0"/>
        <pt x="610" y="1328" on="0"/>
        <pt x="610" y="1283" on="1"/>
        <pt x="610" y="1261" on="1"/>
        <pt x="610" y="1217" on="0"/>
        <pt x="530" y="1121" on="0"/>
        <pt x="474" y="1121" on="1"/>
        <pt x="456" y="1121" on="1"/>
        <pt x="444" y="1124" on="0"/>
        <pt x="412" y="1124" on="0"/>
        <pt x="347" y="1189" on="0"/>
        <pt x="347" y="1234" on="1"/>
        <pt x="347" y="1251" on="1"/>
        <pt x="347" y="1293" on="0"/>
        <pt x="419" y="1394" on="0"/>
        <pt x="471" y="1394" on="1"/>
        <pt x="479" y="1396" on="1"/>
      </contour>
      <contour>
        <pt x="1004" y="1266" on="1"/>
        <pt x="1004" y="1216" on="0"/>
        <pt x="923" y="1121" on="0"/>
        <pt x="872" y="1121" on="1"/>
        <pt x="846" y="1121" on="1"/>
        <pt x="808" y="1121" on="0"/>
        <pt x="740" y="1189" on="0"/>
        <pt x="740" y="1229" on="1"/>
        <pt x="740" y="1255" on="1"/>
        <pt x="740" y="1301" on="0"/>
        <pt x="822" y="1396" on="0"/>
        <pt x="880" y="1396" on="1"/>
        <pt x="894" y="1396" on="1"/>
        <pt x="935" y="1396" on="0"/>
        <pt x="1000" y="1331" on="0"/>
        <pt x="1000" y="1305" on="1"/>
        <pt x="1004" y="1275" on="1"/>
      </contour>
      <contour>
        <pt x="1003" y="868" on="1"/>
        <pt x="1002" y="848" on="0"/>
        <pt x="984" y="758" on="1"/>
        <pt x="910" y="398" on="0"/>
        <pt x="910" y="285" on="1"/>
        <pt x="910" y="241" on="0"/>
        <pt x="935" y="222" on="0"/>
        <pt x="1021" y="216" on="0"/>
        <pt x="1040" y="196" on="0"/>
        <pt x="1040" y="168" on="1"/>
        <pt x="1040" y="153" on="1"/>
        <pt x="1040" y="96" on="0"/>
        <pt x="892" y="16" on="0"/>
        <pt x="721" y="16" on="0"/>
        <pt x="683" y="56" on="1"/>
        <pt x="676" y="63" on="0"/>
        <pt x="637" y="167" on="0"/>
        <pt x="626" y="167" on="0"/>
        <pt x="567" y="116" on="1"/>
        <pt x="444" y="10" on="0"/>
        <pt x="328" y="10" on="1"/>
        <pt x="310" y="10" on="1"/>
        <pt x="203" y="10" on="0"/>
        <pt x="62" y="188" on="0"/>
        <pt x="62" y="318" on="1"/>
        <pt x="62" y="359" on="1"/>
        <pt x="62" y="464" on="0"/>
        <pt x="157" y="692" on="0"/>
        <pt x="325" y="866" on="0"/>
        <pt x="542" y="959" on="0"/>
        <pt x="705" y="959" on="0"/>
        <pt x="830" y="932" on="0"/>
        <pt x="868" y="932" on="1"/>
        <pt x="901" y="934" on="1"/>
        <pt x="928" y="933" on="1"/>
        <pt x="1003" y="933" on="0"/>
      </contour>
    </TTGlyph>
    <TTGlyph name="ae" xMin="35" yMin="-26" xMax="1481" yMax="943">
      <contour>
        <pt x="289" y="370" on="1"/>
        <pt x="289" y="342" on="1"/>
        <pt x="289" y="263" on="0"/>
        <pt x="359" y="154" on="0"/>
        <pt x="414" y="154" on="1"/>
        <pt x="422" y="154" on="1"/>
        <pt x="456" y="154" on="0"/>
        <pt x="584" y="239" on="0"/>
        <pt x="634" y="333" on="0"/>
        <pt x="695" y="610" on="0"/>
        <pt x="731" y="731" on="0"/>
        <pt x="731" y="764" on="0"/>
        <pt x="644" y="822" on="0"/>
        <pt x="594" y="822" on="1"/>
        <pt x="586" y="822" on="1"/>
        <pt x="537" y="822" on="0"/>
        <pt x="430" y="757" on="0"/>
        <pt x="388" y="695" on="1"/>
        <pt x="289" y="546" on="0"/>
      </contour>
      <contour>
        <pt x="927" y="542" on="1"/>
        <pt x="930" y="520" on="1"/>
        <pt x="930" y="497" on="0"/>
        <pt x="943" y="497" on="1"/>
        <pt x="948" y="497" on="1"/>
        <pt x="1057" y="497" on="0"/>
        <pt x="1193" y="588" on="1"/>
        <pt x="1258" y="631" on="0"/>
        <pt x="1258" y="715" on="1"/>
        <pt x="1258" y="742" on="1"/>
        <pt x="1258" y="781" on="0"/>
        <pt x="1204" y="828" on="0"/>
        <pt x="1179" y="828" on="1"/>
        <pt x="1154" y="828" on="1"/>
        <pt x="1093" y="828" on="0"/>
        <pt x="927" y="638" on="0"/>
        <pt x="927" y="546" on="1"/>
      </contour>
      <contour>
        <pt x="829" y="939" on="1"/>
        <pt x="876" y="939" on="0"/>
        <pt x="912" y="906" on="1"/>
        <pt x="920" y="885" on="1"/>
        <pt x="927" y="868" on="0"/>
        <pt x="933" y="868" on="1"/>
        <pt x="938" y="868" on="0"/>
        <pt x="962" y="878" on="1"/>
        <pt x="1106" y="942" on="0"/>
        <pt x="1205" y="943" on="1"/>
        <pt x="1233" y="943" on="1"/>
        <pt x="1354" y="943" on="0"/>
        <pt x="1481" y="819" on="0"/>
        <pt x="1481" y="615" on="0"/>
        <pt x="1395" y="552" on="1"/>
        <pt x="1271" y="461" on="0"/>
        <pt x="1081" y="418" on="1"/>
        <pt x="1028" y="406" on="1"/>
        <pt x="949" y="390" on="0"/>
        <pt x="947" y="389" on="1"/>
        <pt x="915" y="375" on="0"/>
        <pt x="915" y="248" on="0"/>
        <pt x="1013" y="150" on="0"/>
        <pt x="1167" y="150" on="0"/>
        <pt x="1323" y="204" on="0"/>
        <pt x="1392" y="204" on="0"/>
        <pt x="1392" y="186" on="1"/>
        <pt x="1392" y="122" on="0"/>
        <pt x="1111" y="-25" on="0"/>
        <pt x="960" y="-25" on="1"/>
        <pt x="862" y="-25" on="0"/>
        <pt x="779" y="34" on="1"/>
        <pt x="739" y="62" on="0"/>
        <pt x="709" y="109" on="1"/>
        <pt x="696" y="131" on="1"/>
        <pt x="685" y="153" on="1"/>
        <pt x="666" y="186" on="0"/>
        <pt x="658" y="186" on="0"/>
        <pt x="632" y="162" on="1"/>
        <pt x="437" y="-26" on="0"/>
        <pt x="177" y="-26" on="0"/>
        <pt x="35" y="147" on="0"/>
        <pt x="35" y="283" on="1"/>
        <pt x="35" y="310" on="1"/>
        <pt x="36" y="427" on="0"/>
        <pt x="84" y="546" on="1"/>
        <pt x="188" y="800" on="0"/>
        <pt x="441" y="899" on="1"/>
        <pt x="546" y="940" on="0"/>
        <pt x="651" y="940" on="1"/>
        <pt x="753" y="930" on="1"/>
        <pt x="779" y="933" on="1"/>
        <pt x="824" y="939" on="0"/>
      </contour>
    </TTGlyph>
    <TTGlyph name="agrave" xMin="58" yMin="7" xMax="1037" yMax="1448">
      <contour>
        <pt x="723" y="753" on="1"/>
        <pt x="723" y="826" on="0"/>
        <pt x="613" y="826" on="1"/>
        <pt x="438" y="826" on="0"/>
        <pt x="342" y="572" on="1"/>
        <pt x="312" y="492" on="0"/>
        <pt x="312" y="437" on="1"/>
        <pt x="309" y="411" on="1"/>
        <pt x="309" y="359" on="1"/>
        <pt x="309" y="286" on="0"/>
        <pt x="372" y="176" on="0"/>
        <pt x="421" y="176" on="1"/>
        <pt x="437" y="176" on="1"/>
        <pt x="469" y="176" on="0"/>
        <pt x="590" y="257" on="0"/>
        <pt x="633" y="337" on="1"/>
        <pt x="719" y="498" on="0"/>
        <pt x="719" y="671" on="1"/>
        <pt x="721" y="687" on="0"/>
        <pt x="721" y="697" on="1"/>
        <pt x="723" y="731" on="1"/>
      </contour>
      <contour>
        <pt x="565" y="1445" on="1"/>
        <pt x="607" y="1445" on="0"/>
        <pt x="630" y="1395" on="1"/>
        <pt x="640" y="1373" on="0"/>
        <pt x="754" y="1145" on="0"/>
        <pt x="754" y="1128" on="1"/>
        <pt x="754" y="1124" on="1"/>
        <pt x="754" y="1093" on="0"/>
        <pt x="699" y="1093" on="1"/>
        <pt x="689" y="1091" on="1"/>
        <pt x="684" y="1091" on="1"/>
        <pt x="652" y="1091" on="0"/>
        <pt x="390" y="1353" on="0"/>
        <pt x="390" y="1389" on="1"/>
        <pt x="390" y="1445" on="0"/>
        <pt x="494" y="1445" on="1"/>
        <pt x="500" y="1446" on="1"/>
        <pt x="505" y="1447" on="1"/>
        <pt x="528" y="1448" on="1"/>
        <pt x="539" y="1448" on="1"/>
        <pt x="554" y="1445" on="0"/>
      </contour>
      <contour>
        <pt x="925" y="931" on="1"/>
        <pt x="999" y="931" on="0"/>
        <pt x="999" y="850" on="1"/>
        <pt x="999" y="831" on="0"/>
        <pt x="906" y="378" on="0"/>
        <pt x="906" y="239" on="0"/>
        <pt x="924" y="225" on="1"/>
        <pt x="931" y="219" on="0"/>
        <pt x="1037" y="212" on="0"/>
        <pt x="1037" y="166" on="1"/>
        <pt x="1037" y="95" on="0"/>
        <pt x="891" y="13" on="0"/>
        <pt x="717" y="13" on="0"/>
        <pt x="679" y="53" on="1"/>
        <pt x="671" y="62" on="0"/>
        <pt x="634" y="164" on="0"/>
        <pt x="628" y="164" on="1"/>
        <pt x="616" y="164" on="0"/>
        <pt x="566" y="118" on="1"/>
        <pt x="447" y="8" on="0"/>
        <pt x="325" y="7" on="1"/>
        <pt x="306" y="7" on="1"/>
        <pt x="199" y="7" on="0"/>
        <pt x="58" y="185" on="0"/>
        <pt x="58" y="314" on="1"/>
        <pt x="58" y="577" on="0"/>
        <pt x="223" y="762" on="1"/>
        <pt x="304" y="852" on="0"/>
        <pt x="531" y="956" on="0"/>
        <pt x="648" y="956" on="1"/>
        <pt x="694" y="956" on="0"/>
        <pt x="833" y="929" on="0"/>
        <pt x="864" y="929" on="1"/>
        <pt x="898" y="931" on="1"/>
      </contour>
    </TTGlyph>
    <TTGlyph name="ampersand" xMin="125" yMin="-16" xMax="1504" yMax="1434">
      <contour>
        <pt x="746" y="903" on="1"/>
        <pt x="750" y="903" on="1"/>
        <pt x="810" y="903" on="0"/>
        <pt x="891" y="1024" on="1"/>
        <pt x="936" y="1092" on="0"/>
        <pt x="936" y="1166" on="1"/>
        <pt x="936" y="1182" on="1"/>
        <pt x="936" y="1238" on="0"/>
        <pt x="878" y="1296" on="0"/>
        <pt x="846" y="1296" on="1"/>
        <pt x="819" y="1296" on="1"/>
        <pt x="761" y="1296" on="0"/>
        <pt x="685" y="1174" on="0"/>
        <pt x="685" y="1115" on="1"/>
        <pt x="685" y="1074" on="1"/>
        <pt x="689" y="1040" on="1"/>
        <pt x="689" y="995" on="0"/>
        <pt x="740" y="903" on="0"/>
      </contour>
      <contour>
        <pt x="838" y="219" on="1"/>
        <pt x="838" y="229" on="1"/>
        <pt x="837" y="234" on="1"/>
        <pt x="837" y="243" on="0"/>
        <pt x="744" y="371" on="0"/>
        <pt x="571" y="630" on="0"/>
        <pt x="566" y="630" on="1"/>
        <pt x="560" y="630" on="1"/>
        <pt x="519" y="630" on="0"/>
        <pt x="453" y="507" on="1"/>
        <pt x="415" y="436" on="0"/>
        <pt x="415" y="265" on="0"/>
        <pt x="515" y="142" on="0"/>
        <pt x="601" y="142" on="1"/>
        <pt x="638" y="142" on="1"/>
        <pt x="718" y="142" on="0"/>
        <pt x="809" y="191" on="1"/>
        <pt x="838" y="207" on="0"/>
      </contour>
      <contour>
        <pt x="1367" y="70" on="0"/>
        <pt x="1367" y="52" on="0"/>
        <pt x="1347" y="40" on="1"/>
        <pt x="1285" y="3" on="0"/>
        <pt x="1078" y="3" on="1"/>
        <pt x="1044" y="3" on="0"/>
        <pt x="941" y="63" on="0"/>
        <pt x="865" y="63" on="0"/>
        <pt x="816" y="42" on="1"/>
        <pt x="681" y="-16" on="0"/>
        <pt x="551" y="-16" on="1"/>
        <pt x="338" y="-16" on="0"/>
        <pt x="125" y="165" on="0"/>
        <pt x="125" y="428" on="0"/>
        <pt x="222" y="591" on="0"/>
        <pt x="320" y="675" on="0"/>
        <pt x="417" y="746" on="0"/>
        <pt x="419" y="748" on="1"/>
        <pt x="455" y="789" on="0"/>
        <pt x="455" y="848" on="1"/>
        <pt x="455" y="864" on="0"/>
        <pt x="426" y="990" on="0"/>
        <pt x="426" y="1130" on="0"/>
        <pt x="458" y="1202" on="1"/>
        <pt x="523" y="1347" on="0"/>
        <pt x="694" y="1407" on="1"/>
        <pt x="771" y="1434" on="0"/>
        <pt x="1001" y="1434" on="0"/>
        <pt x="1141" y="1303" on="0"/>
        <pt x="1141" y="1218" on="1"/>
        <pt x="1141" y="1066" on="0"/>
        <pt x="1005" y="935" on="1"/>
        <pt x="901" y="833" on="0"/>
        <pt x="901" y="809" on="1"/>
        <pt x="901" y="694" on="0"/>
        <pt x="1005" y="545" on="1"/>
        <pt x="1051" y="480" on="0"/>
        <pt x="1066" y="480" on="0"/>
        <pt x="1137" y="585" on="0"/>
        <pt x="1137" y="680" on="0"/>
        <pt x="1072" y="742" on="0"/>
        <pt x="1072" y="763" on="1"/>
        <pt x="1072" y="812" on="0"/>
        <pt x="1186" y="837" on="0"/>
        <pt x="1431" y="837" on="1"/>
        <pt x="1504" y="837" on="0"/>
        <pt x="1504" y="794" on="1"/>
        <pt x="1504" y="790" on="0"/>
        <pt x="1394" y="609" on="0"/>
        <pt x="1313" y="540" on="0"/>
        <pt x="1309" y="532" on="1"/>
        <pt x="1238" y="374" on="0"/>
        <pt x="1238" y="283" on="1"/>
        <pt x="1238" y="229" on="0"/>
        <pt x="1288" y="162" on="1"/>
        <pt x="1305" y="138" on="1"/>
        <pt x="1343" y="98" on="1"/>
      </contour>
    </TTGlyph>
</ttFont>
